<svg width="16" height="16" viewBox="0 0 16 16" fill="none" xmlns="http://www.w3.org/2000/svg">
<path fill-rule="evenodd" clip-rule="evenodd" d="M13.6034 9.20041C14.2939 9.59715 14.6841 10.3686 14.5962 11.1635L14.4319 12.6512C14.3305 13.5689 13.5775 14.3642 12.5659 14.214C11.029 13.9859 8.40137 13.1599 5.61271 10.3552C2.82409 7.55061 2.00247 4.9076 1.77537 3.36171C1.62588 2.34412 2.41667 1.58657 3.32934 1.48458L4.80825 1.31932C5.59863 1.23099 6.36564 1.62339 6.76011 2.31786L7.32003 3.30362C7.76705 4.09061 7.62837 5.08336 6.99391 5.72146C6.70143 6.01562 6.63006 6.38054 6.77467 6.65443C6.97458 7.03302 7.30946 7.53945 7.86053 8.09368C8.4116 8.64791 8.91514 8.98471 9.29157 9.18577C9.56389 9.33121 9.92674 9.25943 10.2192 8.96528C10.8537 8.32717 11.8408 8.1877 12.6233 8.63728L13.6034 9.20041ZM13.8034 11.0749C13.8561 10.5979 13.622 10.1351 13.2077 9.89704L12.2276 9.3339C11.7608 9.06571 11.1662 9.14749 10.7833 9.53258C10.3214 9.99714 9.58735 10.2521 8.91743 9.89433C8.47429 9.65765 7.90605 9.27406 7.29646 8.66098C6.68688 8.0479 6.30548 7.4764 6.07015 7.03071C5.71439 6.35695 5.96793 5.61872 6.42984 5.15416C6.81274 4.76907 6.89404 4.17105 6.62738 3.70158L6.06746 2.71582C5.83078 2.29914 5.37057 2.0637 4.89634 2.1167L3.41743 2.28196C2.84657 2.34576 2.49583 2.77693 2.56451 3.24445C2.76882 4.6352 3.51971 7.11561 6.17678 9.78792C8.83387 12.4603 11.2998 13.2151 12.6823 13.4203C13.1471 13.4893 13.5756 13.1366 13.6391 12.5626L13.8034 11.0749Z" fill="#FBFBFC"/>
<path fill-rule="evenodd" clip-rule="evenodd" d="M11.6021 4.33083C11.3295 4.05665 11.0058 3.83916 10.6497 3.69078C10.2935 3.54239 9.9117 3.46602 9.52616 3.46602C9.30588 3.46602 9.12731 3.28642 9.12731 3.06488C9.12731 2.84333 9.30588 2.66373 9.52616 2.66373C10.0165 2.66373 10.5019 2.76086 10.9549 2.94956C11.4079 3.13827 11.8195 3.41485 12.1662 3.76353C12.5129 4.11221 12.7879 4.52615 12.9755 4.98173C13.1631 5.4373 13.2597 5.92558 13.2597 6.41868C13.2597 6.64023 13.0811 6.81982 12.8608 6.81983C12.6406 6.81983 12.462 6.64023 12.462 6.41868C12.462 6.03093 12.386 5.64698 12.2385 5.28875C12.091 4.93051 11.8747 4.60501 11.6021 4.33083ZM9.83344 6.10928C9.77216 6.04764 9.6728 6.04764 9.61152 6.10928C9.55024 6.17091 9.55024 6.27084 9.61152 6.33248C9.6728 6.39411 9.77216 6.39411 9.83344 6.33248C9.89473 6.27084 9.89473 6.17091 9.83344 6.10928ZM9.04745 5.54198C9.42026 5.16703 10.0247 5.16703 10.3975 5.54198C10.7703 5.91692 10.7703 6.52483 10.3975 6.89978C10.0247 7.27472 9.42026 7.27473 9.04745 6.89978C8.67465 6.52483 8.67465 5.91692 9.04745 5.54198Z" fill="#FBFBFC"/>
</svg>
