<svg xmlns="http://www.w3.org/2000/svg" width="21" height="12" viewBox="0 0 21 12" fill="none">
<path
		d="M14.3033 0.0126955C12.7591 0.0131085 11.3516 0.59872 10.2908 1.56056C9.22916 0.599959 7.82245 0.0139346 6.27994 0.0139346C6.26714 0.0139346 6.25393 0.0139346 6.24155 0.0139346C2.95675 0.0354098 0.296875 2.70907 0.296875 6.00014C0.296875 9.30443 2.97739 11.9859 6.27953 11.9859C7.82204 11.9859 9.22875 11.4007 10.29 10.4393C10.0683 10.239 9.86771 10.0172 9.67825 9.78515H10.9137C10.7275 10.0135 10.5244 10.2275 10.3061 10.4265H10.3052C10.3003 10.4319 10.2949 10.4352 10.29 10.4397C11.352 11.402 12.7604 11.9884 14.3054 11.988C17.6096 11.9868 20.2872 9.30567 20.2864 6.00014C20.2864 5.9989 20.2864 5.99808 20.2864 5.99725C20.2868 2.69173 17.6075 0.0118695 14.3033 0.0126955ZM9.74677 2.1788H10.8839C11.0515 2.38199 11.2071 2.59591 11.3483 2.81975H9.31956C9.45041 2.60582 9.59405 2.3857 9.74677 2.1788ZM8.96623 3.44831H11.6934C11.7904 3.65563 11.8762 3.86997 11.9514 4.08968H8.64303C8.67605 4.02773 8.79163 3.77829 8.96623 3.44831ZM2.73922 7.52488L3.10204 5.23612L2.28352 7.52488H1.84475L1.78779 5.23612L1.4002 7.52488H0.785592L1.29495 4.48945H2.2245L2.25711 6.35201L2.88493 4.48945H3.89332L3.39098 7.52488H2.73922ZM4.91244 7.51993L4.93349 7.2775C4.92358 7.27874 4.72958 7.57031 4.28008 7.57031C4.0448 7.57031 3.66506 7.44187 3.66506 6.88352C3.66506 6.1736 4.24376 5.9382 4.7948 5.9382C4.88148 5.9382 5.06847 5.95389 5.06847 5.95389C5.06847 5.95389 5.08952 5.91053 5.08952 5.79324C5.08952 5.60037 4.91616 5.57394 4.67881 5.57394C4.26068 5.57394 3.98454 5.68586 3.98454 5.68586L4.077 5.13659C4.077 5.13659 4.41217 4.99618 4.84846 4.99618C5.07425 4.99618 5.72353 5.02013 5.72353 5.76474L5.47339 7.51993H4.91244ZM7.28296 6.74682C7.28296 7.59385 6.46279 7.55751 6.31956 7.55751C5.78503 7.55751 5.61992 7.48358 5.60465 7.47945L5.68968 6.92192C5.69051 6.91697 5.95798 7.01898 6.25559 7.01898C6.4273 7.01898 6.65019 7.00204 6.65019 6.79679C6.65019 6.48953 5.85272 6.56304 5.85272 5.8333C5.85272 5.18945 6.33071 5.00113 6.80209 5.00113C7.16615 5.00113 7.38987 5.05111 7.38987 5.05111L7.30938 5.61359C7.30938 5.61359 6.96389 5.58509 6.87432 5.58509C6.64772 5.58509 6.5243 5.63465 6.5243 5.79324C6.52388 6.11206 7.28296 5.95595 7.28296 6.74682ZM8.26783 6.969C8.32438 6.969 8.38836 6.94959 8.43211 6.94959L8.35244 7.49102C8.28847 7.50878 8.10726 7.5732 7.87487 7.57485C7.57809 7.57733 7.36717 7.41131 7.36717 7.03467C7.36717 6.78192 7.72917 4.69924 7.7432 4.68561H8.3801L8.3153 5.05813H8.63313L8.55181 5.65819H8.21458L8.03544 6.76375C8.02182 6.85172 8.04617 6.969 8.26783 6.969ZM9.66876 4.98792C10.368 4.98792 10.5773 5.50002 10.5773 5.92002C10.5773 6.08811 10.4931 6.50109 10.4931 6.50109H9.19862C9.19862 6.50109 9.07892 7.01113 9.76287 7.01113C10.0836 7.01113 10.4394 6.8542 10.4394 6.8542L10.3271 7.4683C10.3271 7.4683 10.1216 7.5732 9.65431 7.5732C9.14785 7.5732 8.55387 7.35886 8.55387 6.45856C8.55429 5.67843 9.02814 4.98792 9.66876 4.98792ZM11.3557 9.16856H9.23329C9.10409 8.96207 8.98357 8.75021 8.87996 8.52761H11.7045C11.6005 8.74897 11.4841 8.96289 11.3557 9.16856ZM11.2133 7.52942H10.5595L10.957 5.05895H11.5502L11.4932 5.41701C11.4932 5.41701 11.7045 5.02756 11.9898 5.02756C12.0727 5.02756 12.1128 5.03582 12.1128 5.03582C12.0281 5.20845 11.9534 5.36663 11.8758 5.77507C11.4333 5.61813 11.3995 6.47425 11.2133 7.52942ZM13.7044 7.49102C13.7044 7.49102 13.3618 7.57857 13.1472 7.57857C12.3868 7.57857 12.0009 7.05367 12.0009 6.25867C12.0009 5.05978 12.7162 4.4213 13.4514 4.4213C13.7836 4.4213 14.1687 4.57741 14.1687 4.57741L14.0647 5.25264C14.0647 5.25264 13.8043 5.07052 13.4803 5.07052C13.0468 5.07052 12.658 5.48433 12.658 6.23637C12.658 6.60682 12.8392 6.95207 13.2916 6.95207C13.5067 6.95207 13.8183 6.79555 13.8183 6.79555L13.7044 7.49102ZM15.2378 7.52116L15.2593 7.27709C15.249 7.27833 15.055 7.5699 14.6059 7.5699C14.3706 7.5699 13.9908 7.44146 13.9908 6.8831C13.9908 6.17318 14.5695 5.93778 15.1202 5.93778C15.2069 5.93778 15.3943 5.95348 15.3943 5.95348C15.3943 5.95348 15.4157 5.91053 15.4157 5.79324C15.4157 5.60037 15.2424 5.57394 15.0046 5.57394C14.5865 5.57394 14.3107 5.68586 14.3107 5.68586L14.4032 5.13659C14.4032 5.13659 14.7384 4.99618 15.1751 4.99618C15.4004 4.99618 16.0501 5.02013 16.0497 5.76474L15.7996 7.51993C15.7992 7.52116 15.2378 7.52116 15.2378 7.52116ZM16.5616 7.52942H15.9077L16.3052 5.05895H16.8988L16.8418 5.41701C16.8418 5.41701 17.0536 5.02756 17.3388 5.02756C17.4218 5.02756 17.4614 5.03582 17.4614 5.03582C17.3772 5.20845 17.3017 5.36663 17.2245 5.77507C16.7816 5.61813 16.7477 6.47425 16.5616 7.52942ZM18.5135 7.52282L18.5412 7.29526C18.5412 7.29526 18.3299 7.56205 17.9476 7.56205C17.4181 7.56205 17.1584 7.05036 17.1584 6.52752C17.1584 5.7189 17.6447 5.01394 18.2283 5.01394C18.6039 5.01476 18.8438 5.34639 18.8438 5.34639L18.9816 4.49358L19.6202 4.49234L19.1331 7.52282H18.5135ZM19.7733 7.43733C19.7564 7.46789 19.7324 7.49143 19.7019 7.5096C19.6718 7.52653 19.6396 7.53521 19.6057 7.53521C19.5727 7.53521 19.5409 7.52653 19.5104 7.5096C19.4798 7.49143 19.4559 7.46789 19.439 7.43733C19.4216 7.40636 19.4134 7.37497 19.4134 7.34152C19.4134 7.30765 19.422 7.27544 19.439 7.24488C19.4559 7.21432 19.4811 7.18954 19.5112 7.17302C19.5426 7.15609 19.5735 7.14741 19.6057 7.14741C19.6387 7.14741 19.6701 7.15609 19.7007 7.17302C19.732 7.18995 19.756 7.21349 19.7733 7.24488C19.7911 7.27585 19.7989 7.30806 19.7989 7.34152C19.7989 7.37497 19.7906 7.40677 19.7733 7.43733Z"
		fill="#fff"
	/>
<path
		d="M19.7224 9.26363C19.7183 9.26074 19.7146 9.25619 19.7079 9.25372C19.7013 9.25124 19.691 9.25 19.6748 9.25H19.6359V9.31195H19.6773C19.6968 9.31195 19.7096 9.3103 19.7171 9.30328C19.7241 9.29749 19.7274 9.29047 19.7274 9.28056C19.7274 9.27395 19.7258 9.26941 19.7224 9.26363Z"
		fill="#fff"
	/>
<path
		d="M19.8554 9.22686C19.8376 9.19465 19.8133 9.17193 19.7823 9.155C19.7514 9.13807 19.72 9.12939 19.6878 9.12939C19.6548 9.12939 19.6234 9.13807 19.5929 9.155C19.5623 9.17193 19.5371 9.19547 19.5202 9.22686C19.5025 9.25742 19.4946 9.28963 19.4946 9.32267C19.4946 9.35571 19.5033 9.38834 19.5202 9.41848C19.538 9.44904 19.5619 9.47382 19.592 9.49076C19.6226 9.50769 19.6548 9.51636 19.6886 9.51636C19.7217 9.51636 19.7538 9.50769 19.784 9.49076C19.8141 9.47382 19.8385 9.44904 19.8554 9.41848C19.8727 9.38834 19.881 9.35612 19.881 9.32267C19.881 9.28922 19.8723 9.25701 19.8554 9.22686ZM19.7365 9.43005L19.7183 9.39742C19.7039 9.37182 19.6919 9.35488 19.6829 9.34828C19.6771 9.34415 19.668 9.34084 19.6564 9.34084H19.637V9.42963H19.6032V9.22108H19.675C19.6998 9.22108 19.7175 9.22314 19.7274 9.22727C19.7386 9.2314 19.7481 9.23718 19.7538 9.24751C19.7605 9.25701 19.7633 9.26733 19.7633 9.27807C19.7633 9.29335 19.7576 9.30615 19.7472 9.31813C19.7365 9.32887 19.7216 9.33589 19.7039 9.33712C19.7113 9.3396 19.7171 9.34373 19.7217 9.34828C19.7303 9.35654 19.7402 9.37016 19.7526 9.38916L19.7782 9.43005H19.7365Z"
		fill="#fff"
	/>
<path
		d="M4.8464 6.41162C4.37956 6.41162 4.28503 6.62142 4.28503 6.79611C4.28503 6.88614 4.33663 7.03646 4.53435 7.03646C4.91781 7.03646 4.99747 6.53345 4.98509 6.42649C4.96693 6.42277 4.95537 6.41203 4.8464 6.41162Z"
		fill="#fff"
	/>
<path
		d="M9.67121 5.55859C9.32407 5.55859 9.2572 5.95382 9.2572 5.99553H9.96427C9.96427 5.96373 10.0307 5.55859 9.67121 5.55859Z"
		fill="#fff"
	/>
<path
		d="M18.3386 5.62744C18.0583 5.62744 17.8366 5.95287 17.837 6.44721C17.837 6.74869 17.9444 6.94197 18.1739 6.94197C18.5189 6.94197 18.6853 6.4914 18.6853 6.15565C18.6853 5.7852 18.5676 5.62744 18.3386 5.62744Z"
		fill="#fff"
	/>
<path
		d="M19.7444 7.26105C19.73 7.23544 19.7097 7.21562 19.6842 7.20116C19.6586 7.18671 19.6326 7.17969 19.6053 7.17969C19.5789 7.17969 19.5521 7.18712 19.5265 7.20116C19.5009 7.21438 19.4807 7.23503 19.4662 7.26105C19.4518 7.28706 19.4443 7.31473 19.4443 7.34158C19.4443 7.36925 19.4518 7.3965 19.4654 7.4217C19.4807 7.4473 19.5001 7.46671 19.5257 7.48199C19.5512 7.49603 19.5777 7.50429 19.6053 7.50429C19.633 7.50429 19.6602 7.49603 19.685 7.48199C19.7106 7.46754 19.7304 7.44771 19.7452 7.4217C19.7597 7.39609 19.7663 7.36925 19.7663 7.34158C19.7663 7.31432 19.7589 7.28706 19.7444 7.26105ZM19.6548 7.44771L19.6363 7.4155C19.6218 7.38948 19.6103 7.37296 19.6016 7.36677C19.5946 7.3614 19.5863 7.35892 19.5744 7.35892H19.5554V7.4473H19.5207V7.23916H19.5929C19.6173 7.23916 19.6354 7.24122 19.6458 7.24577C19.6561 7.24948 19.6652 7.2565 19.6722 7.26559C19.6792 7.27467 19.6817 7.285 19.6817 7.29615C19.6817 7.31143 19.6759 7.32423 19.6652 7.3358C19.6544 7.34777 19.6396 7.35273 19.6222 7.35479C19.6305 7.3581 19.6359 7.36181 19.64 7.36553C19.6487 7.3742 19.6586 7.38659 19.6705 7.40642L19.6961 7.44771H19.6548Z"
		fill="#fff"
	/>
<path
		d="M15.1727 6.41162C14.7059 6.41162 14.6113 6.62142 14.6113 6.79611C14.6113 6.88614 14.6625 7.03646 14.8606 7.03646C15.2441 7.03646 15.3234 6.53345 15.3114 6.42649C15.2928 6.42277 15.2812 6.41203 15.1727 6.41162Z"
		fill="#fff"
	/>
<path
		d="M19.6412 7.28154C19.6379 7.27741 19.6333 7.27411 19.6271 7.27122C19.62 7.26915 19.6097 7.26709 19.5931 7.26709V7.2675H19.5554V7.33028H19.5964C19.6159 7.33028 19.6287 7.3278 19.6366 7.3216C19.6428 7.31541 19.6466 7.30756 19.6466 7.29848C19.6466 7.29146 19.6449 7.28733 19.6412 7.28154Z"
		fill="#fff"
	/>
</svg>
