<svg xmlns="http://www.w3.org/2000/svg" width="700" height="1000" viewBox="0 0 700 1000" version="1.1">
	<path d="M 0 6 C 0 9.300, 0.160 12, 0.357 12 C 0.659 12, 4.203 10.003, 19.500 1.210 C 21.101 0.290, 19.353 0.055, 10.750 0.030 L 0 0 0 6 M 22 3.106 C 18.975 4.804, 12.789 8.287, 8.253 10.846 L 0.007 15.500 0.003 55.872 C 0 90.799, 0.193 96.085, 1.432 95.056 C 2.220 94.402, 5.708 90.196, 9.182 85.708 C 12.657 81.221, 17.975 74.899, 21 71.660 C 31.078 60.869, 55.312 41.702, 87.398 19.143 C 101.985 8.887, 111 1.767, 111 0.503 C 111 0.226, 92.213 0.004, 69.250 0.009 L 27.500 0.019 22 3.106 M 113.920 5.802 C 110.850 8.936, 102.525 15.522, 95.420 20.439 C 68.687 38.934, 42.779 58.829, 29.906 70.748 C 26.520 73.883, 21.161 79.835, 17.997 83.974 C 14.834 88.113, 9.480 94.505, 6.100 98.178 L -0.045 104.856 0.282 144.178 L 0.609 183.500 3.457 191 C 7.912 202.730, 7.255 218.481, 1.864 229.210 C -0.526 233.967, -0.488 237.999, 2.028 246.582 C 3.143 250.387, 4.984 256.650, 6.119 260.500 C 10.498 275.362, 19.245 288.987, 27.899 294.426 C 32.138 297.090, 53.025 305.615, 64.663 309.430 C 73.082 312.190, 75.028 313.902, 72.313 316.156 C 70.996 317.248, 68.713 316.758, 58.122 313.109 C 51.180 310.717, 40.775 306.703, 35 304.190 C 26.056 300.296, 23.531 298.647, 17.963 293.060 C 11.324 286.398, 5.696 277.109, 2.001 266.716 L 0.146 261.500 0.073 291.297 L 0 321.094 14.250 328.068 C 30.299 335.924, 41.651 339.867, 50.492 340.658 C 55.283 341.086, 58.096 340.669, 64.378 338.598 C 85.181 331.738, 119 339.752, 119 351.542 C 119 357.246, 106.327 365.531, 87.039 372.438 C 71.947 377.842, 69.408 380.587, 66.635 394.500 C 63.194 411.764, 51.332 427.773, 36.610 435.021 C 30.474 438.041, 28.569 438.458, 17.806 439.130 C 11.219 439.542, 4.516 440.167, 2.912 440.519 L -0.006 441.160 0.247 596.238 L 0.500 751.315 7.500 753.731 C 18.569 757.552, 29.046 760.695, 50 766.481 C 60.725 769.442, 73.550 773.290, 78.500 775.032 C 100.017 782.602, 113.951 793, 120.509 806.380 C 124.426 814.371, 125.907 820, 124.094 820 C 123.458 820, 122.742 819.437, 122.503 818.750 C 117.550 804.491, 113.243 797.967, 104.286 791.155 C 92.510 782.198, 82.663 778.349, 44 767.588 C 31.075 763.991, 15.881 759.489, 10.235 757.585 L -0.031 754.122 0.235 782.311 L 0.500 810.500 29 811.033 C 55.364 811.525, 57.915 811.731, 63.041 813.776 C 73.335 817.884, 79.216 826.540, 80.989 840.189 C 82.260 849.974, 82.227 851, 80.647 851 C 79.687 851, 79.111 848.845, 78.667 843.592 C 77.842 833.833, 74.929 826.294, 70.256 821.827 C 62.563 814.473, 58.691 813.749, 26.250 813.601 L -0 813.482 -0 906.741 L 0 1000 175.250 999.913 L 350.500 999.826 342 997.418 C 331.202 994.360, 315.403 992, 305.729 992 C 298.009 992, 296.140 991.003, 298.059 987.909 C 298.718 986.846, 301.214 986.528, 308.216 986.615 C 323.720 986.807, 342.649 990.603, 359.994 996.998 L 368.136 1000 435.268 1000 L 502.400 1000 512.950 989.189 C 518.753 983.243, 528.531 972.965, 534.680 966.350 C 545.326 954.895, 546.280 954.136, 554.680 950.450 C 572.265 942.731, 579.522 936.802, 584.199 926.330 C 586.095 922.085, 586.445 918.895, 587.087 900 L 587.818 878.500 591.786 866.472 C 596.491 852.211, 602.048 840.793, 608.386 832.363 C 610.924 828.987, 613 825.986, 613 825.692 C 613 825.399, 611.663 824.865, 610.030 824.507 C 605.166 823.438, 592.459 825.905, 584.712 829.423 C 563.541 839.034, 552.234 842.965, 542.706 844.028 C 532.455 845.171, 519.441 844.125, 512.224 841.579 C 496.240 835.940, 482.527 824.343, 470.059 805.922 C 467.001 801.405, 463.366 796.864, 461.979 795.831 C 458.825 793.479, 451.045 792.273, 444.500 793.120 C 403.727 798.397, 378.155 799.570, 366.637 796.692 C 350.948 792.771, 336.882 785.540, 323.845 774.696 C 311.395 764.339, 307.851 763.316, 277 761.169 C 262.726 760.175, 258.622 758.645, 252.725 752.117 C 244.757 743.297, 242.440 734.722, 241.484 710.500 C 240.645 689.247, 239.101 680.654, 232.592 661 C 225.455 639.448, 223.991 630.855, 223.294 606.406 C 222.734 586.749, 222.780 586.110, 225.404 576.962 C 230.337 559.764, 241.287 539.998, 251.943 529.059 C 262.080 518.652, 271.510 514.198, 293.260 509.546 C 306.800 506.650, 310.991 504.773, 316.721 499.044 C 323.238 492.527, 326.636 486.318, 328.512 477.500 C 332.690 457.867, 344.146 442.975, 361.954 434.025 C 373.576 428.184, 381.800 426.084, 403.500 423.419 C 429.040 420.282, 433.065 418.982, 445.238 409.943 C 456.642 401.474, 457.610 394.319, 450.121 373.853 C 447.707 367.255, 444.539 339.905, 445.360 332.751 C 446.146 325.911, 449.263 319.587, 454.878 313.443 C 460.883 306.873, 463.843 300.962, 465.254 292.727 C 466.117 287.687, 466.050 285.878, 464.914 283.508 C 462.120 277.681, 454.499 276.446, 443.922 280.106 C 436.359 282.723, 425.655 283.671, 412 282.932 C 394.161 281.966, 385.759 276.783, 364.993 253.935 C 357.656 245.863, 355.772 243.055, 352.917 235.935 C 345.684 217.900, 337.948 203.788, 332.074 197.914 C 324.162 190.002, 318.409 188, 303.585 188 C 294.725 188, 291.973 187.672, 291 186.500 C 290.007 185.303, 290.007 184.697, 291 183.500 C 292.769 181.368, 311.680 181.428, 319.068 183.588 C 334.916 188.222, 343.663 199.038, 356.604 229.996 C 360.955 240.404, 362.228 242.392, 370.065 251.017 C 387.633 270.353, 395.144 275.407, 409 277.213 C 419.658 278.603, 433.191 277.643, 441 274.942 C 448.863 272.222, 459.091 271.891, 463.502 274.214 C 469.627 277.439, 470.500 279.329, 470.500 289.358 C 470.500 297.542, 470.173 299.181, 467.376 305 C 465.658 308.575, 461.775 314.329, 458.746 317.788 C 451.017 326.612, 450.375 329.447, 451.822 348.381 C 453.047 364.407, 453.727 367.877, 457.550 377.607 C 464.550 395.425, 460.547 407.227, 443.842 418.024 C 434.008 424.380, 428.418 425.940, 404.500 429.004 C 372.862 433.057, 360.597 437.966, 348 451.617 C 340.693 459.536, 336.625 467.486, 333.990 479 C 331.639 489.272, 328.014 495.986, 321.071 502.929 C 314.600 509.400, 309.319 511.818, 294.869 514.927 C 274.147 519.386, 266.478 522.860, 257.209 531.983 C 247.118 541.916, 236.493 560.212, 231.482 576.282 C 228.785 584.935, 228.763 585.228, 229.256 606.759 C 229.836 632.062, 230.849 638.168, 237.978 659.335 C 244.434 678.504, 245.657 685.288, 247.021 709.500 C 247.641 720.500, 248.611 731.292, 249.176 733.483 C 251.562 742.737, 258.225 751.614, 264.608 754.041 C 265.921 754.540, 275.658 755.599, 286.247 756.394 C 312.267 758.348, 312.509 758.444, 333.500 775.063 C 340.924 780.940, 355.188 787.650, 366.500 790.585 C 375.723 792.978, 377.588 793.134, 390.500 792.593 C 398.200 792.271, 412.600 791.073, 422.500 789.932 C 450.033 786.757, 451.873 786.653, 457.643 787.945 C 464.511 789.482, 467.636 792.172, 474.960 802.851 C 483.619 815.478, 490.063 822.242, 499.431 828.540 C 509.252 835.143, 517.362 837.927, 529 838.690 C 541.927 839.538, 550.399 837.779, 566.982 830.802 C 574.967 827.443, 584.199 823.575, 587.497 822.207 C 594.768 819.193, 609.144 817.989, 613.976 819.990 C 619.655 822.342, 619.314 827.522, 612.921 836 C 607.052 843.782, 601.381 855.535, 596.877 869.252 C 593.540 879.414, 592.993 882.343, 592.953 890.279 C 592.927 895.351, 592.548 905.154, 592.111 912.065 C 591.455 922.425, 590.854 925.639, 588.686 930.374 C 584.756 938.960, 577.028 945.946, 565.250 951.562 C 559.887 954.119, 553.971 956.945, 552.103 957.842 C 550.235 958.739, 544.160 964.394, 538.603 970.408 C 533.046 976.422, 524.480 985.541, 519.566 990.672 L 510.632 1000 524.303 1000 L 537.975 1000 541.595 992.750 C 550.115 975.687, 557.643 969.354, 586 955.393 C 607.843 944.639, 611.433 941.781, 615.001 932.305 C 617.432 925.850, 617.426 922.083, 614.939 891.749 C 613.453 873.624, 614.150 867.507, 618.826 857.631 C 623.047 848.717, 626.126 845.375, 641.595 832.912 C 668.588 811.167, 669.887 809.744, 666.340 805.822 C 661.950 800.968, 646.555 795.989, 636.020 796.017 C 625.749 796.045, 617.922 798.152, 579.500 811.239 L 543.500 823.500 530.500 823.500 C 518.544 823.500, 517.049 823.288, 511.880 820.865 C 503.084 816.741, 498.971 812.303, 492.404 799.853 C 486.480 788.623, 478.976 779.073, 474.091 776.547 C 468.404 773.606, 463.095 773.806, 437 777.942 C 409.275 782.338, 401.453 782.790, 392.680 780.505 C 383.839 778.202, 380.252 775.992, 356.589 758.260 C 344.479 749.185, 332.811 741.139, 330.659 740.380 C 328.508 739.621, 320.392 738.544, 312.624 737.987 C 286.007 736.079, 278.953 734.471, 272.580 728.862 C 264.812 722.024, 263.717 717.904, 262.921 692.500 C 262.515 679.571, 261.293 663.285, 259.956 653 C 257.886 637.077, 257.787 634.374, 258.855 623 C 260.820 602.066, 265.492 584.262, 273.452 567.377 C 283.954 545.099, 296.992 532.042, 324.237 516.515 C 343.344 505.626, 347.251 500.445, 353.993 477.056 C 358.851 460.205, 360.777 456.034, 365.295 452.589 C 371.423 447.914, 375.703 446.820, 391.488 445.888 C 409.742 444.811, 430.223 442.456, 438.972 440.427 C 455.188 436.666, 461.974 428.268, 471.898 399.684 C 477.596 383.273, 477.540 378.314, 471.490 363.506 C 465.831 349.652, 465.545 348.010, 466.949 337.458 C 468.933 322.549, 473.528 313.461, 486.395 299 C 495.199 289.105, 499 281.542, 499 273.917 C 499 267.007, 496.411 263.256, 489.077 259.539 C 475.732 252.777, 460.086 251.818, 437.243 256.363 C 416.820 260.426, 403.977 259.797, 398.992 254.491 C 392.009 247.058, 379.118 219.952, 370.140 193.823 C 365.382 179.978, 364.329 177.845, 359.475 172.213 C 352.484 164.101, 342.134 158.200, 324.253 152.130 C 307.580 146.470, 275.950 130.407, 268.368 123.750 C 259.181 115.684, 258.329 105.778, 264.894 83.390 C 266.489 77.951, 269.382 68.070, 271.322 61.432 C 273.262 54.795, 276.021 43.770, 277.454 36.932 C 280.674 21.563, 283.253 16.131, 291.623 7.090 L 298.187 0 281.078 0 L 263.968 0 252.682 11.250 C 237.170 26.712, 230.855 36.646, 209.298 79.500 C 189.219 119.417, 187.868 123.206, 190.014 133.604 C 192.254 144.455, 199.940 155.779, 210.406 163.646 C 217.973 169.334, 220.796 170.801, 229.500 173.572 C 234.955 175.308, 236.571 176.264, 236.820 177.904 C 237.321 181.199, 234.855 181.337, 226.374 178.489 C 211.749 173.580, 199.518 164.058, 191.093 151.022 C 185.258 141.994, 183.630 135.712, 184.237 124.555 L 184.730 115.500 203.115 79.051 C 227.188 31.326, 231.294 24.787, 247.900 7.750 L 255.453 0 245.362 0 L 235.271 0 220.385 10.595 C 212.198 16.423, 201.225 24.589, 196 28.742 C 183.617 38.586, 164.438 58.058, 160 65.292 C 149.208 82.884, 144.194 89.590, 133.207 101.123 C 126.594 108.066, 120.408 115.244, 119.461 117.075 C 115.442 124.847, 118.144 135.451, 128.419 152.224 C 165.325 212.468, 168.356 216.104, 184.924 220.006 C 192.518 221.794, 213.680 220.719, 233.250 217.550 C 286.018 209.006, 298.101 207.495, 307.577 208.255 C 320.327 209.277, 324.870 214.129, 332.498 234.879 C 345.762 270.961, 353.944 278.836, 391.331 291.503 C 406.352 296.592, 407.706 296.687, 419.996 293.520 C 431.576 290.536, 439 293.278, 439 300.540 C 439 305.358, 436.183 310.516, 426.896 322.697 C 422.563 328.381, 417.820 335.387, 416.356 338.266 C 412.216 346.407, 412.659 349.393, 420.459 365.970 C 427.805 381.582, 428.819 386.332, 425.572 389.920 C 420.534 395.488, 404.158 395.267, 390.232 389.443 C 385.429 387.435, 380.375 385.726, 379 385.646 C 376.727 385.513, 376.500 385.862, 376.500 389.487 C 376.500 392.842, 376.932 393.680, 379.229 394.781 C 380.730 395.501, 384.218 396.357, 386.979 396.684 C 392.836 397.378, 395.587 399.028, 394.707 401.320 C 393.622 404.148, 380.965 409.680, 370.507 411.897 C 362.123 413.675, 358.457 415.150, 347.516 421.144 C 322.292 434.966, 305.981 447.680, 301.297 457.172 C 300.104 459.589, 298.462 466.271, 297.576 472.307 C 295.328 487.641, 292.925 491.392, 283.369 494.490 C 278.453 496.083, 277.786 496.060, 267.509 493.955 C 251.233 490.622, 243.946 492.398, 234.088 502.103 C 227.560 508.528, 223.927 513.972, 209.538 538.895 C 190.028 572.690, 187.339 579.853, 188.296 595.500 C 189.312 612.115, 193.920 628.956, 201.645 644.281 C 207.677 656.248, 209.983 664.365, 210.955 677.047 C 211.959 690.149, 213.137 695.177, 219.490 713.500 C 224.801 728.815, 225.418 737.298, 222.013 748.161 C 220.920 751.647, 220.020 756.402, 220.013 758.727 C 219.992 765.412, 222.374 766.477, 246.500 770.570 C 268.751 774.346, 277.116 776.692, 284.765 781.306 C 295.718 787.911, 306.516 792.505, 324 797.994 C 333.075 800.843, 352.650 807.284, 367.500 812.307 C 392.504 820.764, 395.092 821.442, 402.506 821.470 C 410.428 821.500, 410.670 821.424, 425.516 814.231 C 442.558 805.975, 448.318 804.634, 454.377 807.509 C 459.345 809.866, 464.078 815.599, 470.533 827.077 C 482.116 847.674, 490.802 855.561, 504.040 857.499 C 510.253 858.409, 518.095 856.851, 541.500 850.055 C 566.574 842.775, 571.065 842.065, 573.931 844.931 L 576.027 847.027 574.007 850.987 C 572.878 853.200, 569.647 856.675, 566.685 858.864 C 558.486 864.920, 552.297 872.381, 550.352 878.554 C 548.918 883.101, 548.796 885.514, 549.575 893.911 C 550.844 907.583, 549.987 911.108, 543.918 917.177 C 537.830 923.265, 530.183 926.977, 523.702 926.990 C 517.383 927.003, 515.350 929.261, 511.579 940.457 C 504.911 960.251, 494.022 967.726, 477.932 963.552 C 471.695 961.935, 470.830 961.928, 464.883 963.451 C 457.834 965.257, 452.193 968.201, 441.050 975.890 C 428.720 984.398, 426.422 984.455, 413.500 976.584 C 406.504 972.323, 398.551 969.685, 372.500 962.986 C 337.216 953.913, 316.422 950.942, 288 950.911 C 262.884 950.884, 245.446 953.462, 225.608 960.135 C 221.907 961.380, 219.365 961.765, 218.771 961.171 C 217.566 959.966, 217.899 959.794, 227.500 956.645 C 247.523 950.077, 268.268 947.514, 295 948.303 C 324.220 949.166, 348.617 953.328, 387.218 964.033 C 405.349 969.062, 409.109 970.555, 419.212 976.740 C 426.698 981.323, 429.177 980.837, 441.607 972.351 C 446.890 968.743, 453.728 964.641, 456.802 963.233 C 464.025 959.926, 474.838 959.070, 480.341 961.369 C 483.425 962.658, 485.081 962.768, 488.836 961.934 C 498.441 959.801, 504.757 952.776, 509.007 939.500 C 513.054 926.857, 516.127 924.022, 525.800 924.006 C 532.126 923.995, 542.618 916.629, 546.140 909.726 C 548.113 905.859, 548.167 905.044, 547.085 895.432 C 545.873 884.658, 546.533 878.737, 549.612 872.784 C 551.810 868.533, 558.585 861.387, 564.735 856.835 C 570.820 852.330, 574.055 847.342, 571.523 846.370 C 568.879 845.356, 561.361 846.968, 542.594 852.575 C 519.664 859.426, 514.807 860.365, 505.256 859.793 C 495.114 859.184, 489.159 856.162, 481.387 847.680 C 478.149 844.147, 472.852 836.586, 469.617 830.878 C 455.463 805.912, 451.585 804.581, 427.225 816.331 C 411.318 824.004, 406.460 825.445, 399.525 824.548 C 396.761 824.191, 381.675 819.694, 366 814.554 C 350.325 809.414, 330.179 802.873, 321.232 800.017 C 306.051 795.171, 289.468 787.912, 282.500 783.061 C 277.849 779.823, 268.203 777.202, 247.166 773.459 C 227.063 769.882, 219.927 767.601, 218.086 764.160 C 216.423 761.054, 216.781 755.898, 219.182 748.355 C 222.565 737.728, 222.119 728.972, 217.532 716 C 211.021 697.585, 209.996 693.712, 208.933 683.500 C 206.919 664.170, 206.213 661.075, 201.446 650.686 C 193.699 633.804, 191.932 629.188, 189.402 619.211 C 183.894 597.500, 184.101 583.825, 190.156 569.280 C 193.344 561.623, 216.386 520.762, 223.021 511 C 227.741 504.057, 237.864 494.373, 242.372 492.489 C 250.675 489.020, 254.751 488.787, 266.607 491.106 C 280.055 493.737, 285.084 492.946, 289.918 487.440 C 293.083 483.836, 293.319 483.033, 295.426 468.702 C 296.397 462.097, 297.670 457.534, 299.333 454.702 C 304.789 445.405, 320.603 432.989, 342.749 420.615 C 356.690 412.826, 360.048 411.443, 370.648 409.130 C 375.677 408.032, 382.650 405.682, 386.145 403.906 L 392.500 400.678 384.565 398.970 C 374.989 396.909, 372.514 394.657, 373.310 388.726 C 373.903 384.308, 375.515 382, 378.010 382 C 378.981 382, 382.743 383.389, 386.369 385.086 C 395.526 389.370, 402.245 390.977, 411 390.973 C 418.730 390.970, 422.502 389.784, 424.390 386.760 C 425.763 384.562, 424.033 379.508, 416.511 363.745 C 409.954 350.003, 409.597 346.469, 413.855 337.469 C 415.424 334.152, 420.411 326.581, 424.936 320.644 C 432.576 310.623, 436.925 303.257, 436.978 300.250 C 436.990 299.562, 436.100 298.100, 435 297 C 432.292 294.292, 424.988 294.361, 416.410 297.177 C 410.358 299.164, 409.241 299.244, 403.639 298.099 C 395.743 296.485, 372.487 287.834, 363.667 283.231 C 351.036 276.639, 340.778 264.020, 334.215 247 C 332.625 242.875, 330.123 236.350, 328.657 232.500 C 325.082 223.115, 320.546 215.404, 317.382 213.331 C 313.890 211.043, 301.091 210.438, 287.868 211.936 C 282.165 212.582, 265.125 215.121, 250 217.578 C 201.870 225.397, 187.996 225.649, 174.299 218.954 C 166.216 215.003, 159.735 207.771, 149.548 191.332 C 145.174 184.274, 137.835 172.650, 133.239 165.500 C 121.668 147.500, 115.954 135.583, 115.268 128.017 C 114.391 118.351, 116.342 114.771, 130.685 99.727 C 142.128 87.725, 147.112 81.074, 158 63.277 C 165.581 50.884, 192.016 26.947, 218.282 8.689 L 230.063 0.500 212.456 0.227 L 194.848 -0.047 175.178 14.227 C 136.172 42.532, 105.633 67.056, 95.263 78.402 C 89.049 85.202, 75.751 111.015, 70.834 125.823 C 68.025 134.281, 67.613 136.885, 67.560 146.500 C 67.510 155.699, 67.846 158.237, 69.616 162 C 73.296 169.828, 79.860 177.519, 89.697 185.531 C 104.815 197.843, 107.528 203.673, 108.807 226.593 C 109.780 244.034, 111.092 247.169, 119.154 251.313 C 123.886 253.745, 126.444 254.261, 138.063 255.125 C 152.108 256.169, 187.652 255.545, 206.500 253.923 C 222.557 252.540, 228.009 251.259, 231.500 248.049 C 244.451 236.138, 264.951 228.815, 279.006 231.078 C 292.731 233.289, 306.659 244.383, 318.452 262.500 C 328.475 277.896, 330.060 279.430, 341.705 285.006 C 347.464 287.763, 356.749 293.112, 362.338 296.893 C 377.520 307.162, 378.048 307.371, 385.466 306.079 C 394.371 304.529, 400.850 305.982, 403.007 310.014 C 404.528 312.856, 402.514 316.051, 393.098 325.733 C 383.465 335.637, 382.071 338.993, 383.968 347.710 C 386.068 357.358, 386.248 358.875, 385.600 361.458 C 384.413 366.187, 382.596 366.466, 349.500 367 L 318.500 367.500 318.170 369.830 C 317.749 372.804, 321.531 378.515, 329.637 387.146 C 333.137 390.872, 336 394.760, 336 395.786 C 336 398.826, 332.710 401.007, 307 415.005 C 265.157 437.788, 264.455 438.283, 259.115 448.768 C 257.919 451.116, 256.547 456.168, 256.067 459.994 C 255.049 468.102, 252.540 472.717, 247.251 476.210 C 241.568 479.963, 237.719 480.779, 223 481.352 C 202.598 482.146, 195.410 485.305, 187.209 497.082 C 184.619 500.801, 177.920 508.041, 172.323 513.172 C 155.451 528.637, 148.442 537.458, 142.005 551.327 C 136.842 562.450, 135 571.446, 135 585.540 C 135 611.219, 142.781 634.403, 164.186 672.500 C 186.975 713.062, 200.003 744.249, 204.499 769 C 208.509 791.081, 208.348 790.863, 223 794.081 C 232.724 796.217, 235.793 796.244, 260.562 794.404 C 267.827 793.865, 269.541 794.113, 277.904 796.914 C 283.008 798.624, 296.255 804.490, 307.342 809.950 C 341.890 826.963, 358.898 831.470, 402 835.037 C 424.953 836.936, 427.432 837.889, 435.401 847.876 C 442.842 857.202, 449.012 862.329, 458.500 867.072 C 467.709 871.675, 470.931 871.988, 484.381 869.586 C 503.729 866.131, 518 868.469, 518 875.094 C 518 879.735, 503.801 891.106, 488.500 898.719 C 485.200 900.361, 476.968 903.841, 470.207 906.453 C 452.624 913.245, 450.979 914.926, 446.398 930.780 C 441.186 948.820, 437.713 951.579, 420.500 951.360 C 411.260 951.242, 403.821 950.092, 374 944.172 C 301.960 929.870, 272.906 926, 237.563 926 C 210.046 926, 194.238 928.638, 180.779 935.475 C 176.020 937.893, 174 938.509, 174 937.541 C 174 934.172, 188.751 928.177, 204.213 925.262 C 211.555 923.877, 218.737 923.520, 238.500 923.557 C 275.099 923.625, 302.796 927.224, 370 940.645 C 424.269 951.482, 433.911 951.610, 439.614 941.571 C 440.776 939.525, 442.734 934.178, 443.964 929.689 C 448.381 913.570, 451.145 910.815, 470.323 903.408 C 485.403 897.584, 490.353 895.149, 500.500 888.557 C 514.114 879.714, 517.833 874.612, 512.453 872.161 C 508.769 870.482, 491.189 870.736, 482.208 872.598 C 472.148 874.683, 466.791 874.073, 457.844 869.823 C 448.914 865.580, 440.028 858.349, 434 850.420 C 431.525 847.164, 428.825 843.941, 428 843.257 C 425.009 840.779, 416.163 838.994, 399.500 837.506 C 355.221 833.551, 339.407 829.196, 302.997 810.932 C 275.948 797.363, 266.639 794.790, 254.185 797.442 C 244.332 799.540, 235.790 799.403, 223.765 796.952 C 207.197 793.576, 205.904 792.367, 203.486 777.988 C 198.548 748.620, 185.946 716.533, 164.611 679 C 141.760 638.800, 133.422 615.837, 132.282 589.968 C 130.956 559.868, 139.477 541.295, 166.650 515.059 C 174.721 507.266, 183.184 498.217, 185.457 494.951 C 193.867 482.866, 200.368 480.040, 222 479.065 C 236.127 478.428, 237.965 478.127, 242.745 475.668 C 249.712 472.086, 252.593 467.559, 253.861 458.200 C 255.569 445.595, 260.720 438.105, 272.500 431.099 C 276.900 428.482, 292.313 419.878, 306.750 411.979 C 321.942 403.667, 333 397.022, 333 396.203 C 333 395.425, 329.939 391.511, 326.197 387.504 C 314.865 375.369, 312.177 367.404, 318.593 364.965 C 320.012 364.425, 334.013 364, 350.374 364 C 385.274 364, 385.147 364.041, 382.350 353.500 C 381.621 350.750, 381.020 345.800, 381.016 342.500 C 381.006 335.198, 382.582 332.324, 391.321 323.713 C 394.789 320.296, 398.455 316.236, 399.468 314.690 C 401.131 312.151, 401.159 311.730, 399.757 310.329 C 397.664 308.236, 390.057 307.497, 384.642 308.860 C 378.635 310.372, 375.870 309.289, 362.500 300.184 C 356.450 296.064, 346.932 290.542, 341.349 287.912 C 329.227 282.203, 326.338 279.496, 316.442 264.574 C 307.136 250.541, 297.655 241.151, 288.333 236.736 C 282.105 233.787, 280.703 233.511, 272.500 233.620 C 259.348 233.794, 245.710 239.342, 234.780 248.962 C 229.136 253.931, 223.197 255.425, 202.951 256.969 C 184.660 258.364, 133.525 258.302, 126.799 256.877 C 111.132 253.556, 106.027 246.034, 105.979 226.201 C 105.935 207.785, 102.423 199.794, 89.706 189.172 C 68.452 171.419, 62.135 158.982, 64.801 140.132 C 66.454 128.442, 70.363 117.623, 79.837 98.512 C 87.982 82.081, 88.558 81.229, 97.395 72.512 C 110.929 59.163, 143.989 33.050, 178.899 8.135 L 190.298 0 175.292 0 L 160.285 0 114.393 35.539 C 62.582 75.661, 57.781 79.720, 48.499 91.251 C 29.818 114.457, 24.238 133.703, 28.368 160.679 C 30.294 173.259, 33.020 180.072, 40.499 191 C 53.949 210.649, 58.400 226.820, 55.055 243.886 C 53.584 251.398, 53.739 261.440, 55.389 265.389 C 57.392 270.183, 61.537 273.600, 67.389 275.284 C 82.065 279.507, 130.879 292.236, 140 294.218 C 150.011 296.394, 152.154 296.486, 186 296.198 C 206.061 296.027, 223.201 295.447, 225.410 294.866 C 227.561 294.300, 230.936 292.546, 232.910 290.968 C 239.080 286.038, 248.444 285.093, 260.497 288.185 C 263.560 288.971, 267.087 291.721, 275.584 299.953 C 281.683 305.861, 289.147 312.523, 292.172 314.757 C 299.572 320.225, 303.182 324.650, 302.803 327.791 C 302.111 333.530, 293.438 336.109, 268.500 337.991 L 253.500 339.122 242.500 344.666 C 228.262 351.842, 227.400 352.745, 226.577 361.362 L 225.921 368.224 231.469 373.362 C 234.520 376.188, 237.013 379.302, 237.008 380.283 C 236.996 383.008, 232.742 390.832, 223.110 405.849 C 210.059 426.194, 209.170 427.938, 207.570 436.297 C 205.778 445.661, 203.681 450.303, 200.164 452.691 C 197.867 454.251, 195.708 454.459, 184.500 454.203 C 168.850 453.846, 161.776 455.609, 152.314 462.224 C 148.949 464.576, 134.678 476.753, 120.601 489.285 C 95.169 511.924, 92.603 514.767, 89.736 523.472 C 89.187 525.137, 88.398 538.650, 87.982 553.500 C 87.347 576.143, 86.785 583.001, 84.496 596 C 82.120 609.492, 81.843 613.119, 82.364 624 C 83.744 652.804, 91.426 681.470, 99.460 687.790 C 100.854 688.886, 105.033 690.529, 108.747 691.441 C 118.295 693.786, 124.911 697.657, 127.292 702.291 C 129.168 705.945, 129.180 706.404, 127.616 714.952 C 126.724 719.829, 126.264 724.524, 126.593 725.383 C 126.923 726.242, 128.837 727.233, 130.847 727.585 C 139.316 729.067, 141.894 733.349, 146.063 752.853 C 151.065 776.258, 155.690 788.068, 164.377 799.625 C 172.598 810.561, 183.100 816.125, 199.187 818.069 C 212.359 819.661, 227.678 823.765, 248.500 831.280 C 286.515 844.999, 300.627 848.339, 327.500 849.977 C 378.012 853.054, 399.729 857.360, 414.060 867.140 C 420.383 871.455, 421.805 874.217, 422.598 883.731 C 423.253 891.581, 423.207 891.818, 420.725 893.445 C 416.526 896.196, 406.319 897.375, 395.543 896.352 C 390.244 895.850, 385.470 895.709, 384.935 896.040 C 384.399 896.372, 383.747 899.085, 383.486 902.071 C 382.664 911.471, 382.039 913.615, 379.400 916.090 C 375.482 919.766, 369.063 919.161, 354.500 913.742 C 319.495 900.716, 296.053 895.847, 267.252 895.620 C 255.784 895.530, 252.003 895.190, 252.002 894.250 C 251.999 892.408, 277.853 892.619, 293.158 894.586 C 309.594 896.699, 332.133 902.532, 351.051 909.567 C 369.838 916.555, 374.500 917.263, 377.880 913.643 C 379.799 911.588, 380.357 909.681, 380.759 903.797 C 381.542 892.335, 380.802 892.806, 396.807 893.581 C 411.706 894.302, 418.228 893.310, 419.968 890.059 C 421.060 888.020, 419.683 878.287, 417.728 874.223 C 416.315 871.285, 409.227 866.609, 402.105 863.916 C 386.533 858.026, 365.938 854.801, 332.500 853.014 C 302.608 851.417, 287.396 848.131, 253.260 835.896 C 222.410 824.840, 216.238 823.141, 197.471 820.536 C 182.720 818.489, 174.703 814.608, 165.857 805.231 C 155.140 793.871, 148.975 779.739, 143.572 754.149 C 139.604 735.355, 137.487 731.421, 130.764 730.346 C 123.774 729.228, 122.797 726.258, 125.176 713.347 C 126.190 707.847, 126.125 706.485, 124.708 703.514 C 122.765 699.439, 116.442 695.893, 107.618 693.931 C 104.383 693.211, 100.333 691.681, 98.618 690.530 C 90.139 684.837, 82.688 660.278, 79.826 628.583 C 78.647 615.535, 78.705 614.321, 81.260 598.246 C 85.175 573.613, 85.215 573.139, 85.138 552.524 C 85.091 539.949, 85.535 531.305, 86.454 526.898 C 89.122 514.104, 90.577 512.308, 118.079 487.863 C 131.917 475.563, 145.548 463.747, 148.369 461.605 C 159.443 453.199, 168.960 450.565, 184.560 451.588 C 199.720 452.582, 202.207 450.552, 204.996 434.914 C 206.286 427.684, 208.355 423.686, 220.960 404.062 C 230.551 389.131, 234 382.923, 234 380.590 C 234 379.770, 231.998 377.426, 229.551 375.381 C 224.564 371.212, 222.473 367.236, 223.525 363.921 C 223.914 362.697, 224.208 359.956, 224.178 357.831 C 224.103 352.357, 226.611 349.992, 240 342.916 L 251.500 336.838 268.500 335.380 C 285.371 333.933, 296.137 331.961, 298.677 329.853 C 301.712 327.334, 300.005 324.223, 292.500 318.595 C 289.750 316.533, 281.796 309.480, 274.825 302.921 L 262.151 290.997 254.791 289.853 C 245.097 288.346, 238.829 289.333, 234.616 293.032 C 232.801 294.625, 230.008 296.432, 228.408 297.046 C 225.447 298.184, 190.704 299.483, 166 299.381 C 149.756 299.314, 135.170 296.541, 99 286.647 C 86.075 283.111, 72.350 279.423, 68.500 278.452 C 62.880 277.033, 60.685 275.877, 57.365 272.589 C 50.776 266.062, 49.722 259.349, 52.564 242 C 54.204 231.991, 53.926 226.764, 51.314 218.500 C 48.943 210.999, 42.812 199.129, 36.693 190.194 C 28.089 177.630, 24.764 165.065, 24.736 145 C 24.724 136.372, 25.247 130.487, 26.425 126 C 30.362 111.004, 41.348 93.495, 55.908 79.010 C 60.083 74.856, 83.225 56.166, 107.332 37.478 C 131.440 18.790, 152.140 2.723, 153.332 1.772 C 155.406 0.119, 154.722 0.046, 137.500 0.074 L 119.500 0.104 113.920 5.802 M 295.101 7.750 C 286.588 16.430, 282.929 23.013, 281.066 33 C 279.190 43.057, 275.303 58.095, 270.467 74 C 260.755 105.939, 260.681 112.176, 269.903 121 C 277.627 128.390, 308.257 143.927, 328.904 150.928 C 340.347 154.808, 344.632 156.920, 352.788 162.700 C 360.035 167.835, 366.126 175.069, 368.382 181.221 C 369.245 183.575, 372.262 191.800, 375.086 199.500 C 385.927 229.051, 397.967 251.759, 404.500 254.978 C 409.063 257.226, 422.421 256.645, 438.408 253.503 C 450.396 251.146, 453.985 250.837, 464.408 251.264 C 477.886 251.815, 483.824 253.317, 491.919 258.219 C 499.962 263.090, 501.504 265.687, 501.481 274.327 C 501.464 280.502, 501.009 282.335, 498.211 287.500 C 496.423 290.800, 491.776 297.100, 487.884 301.500 C 474.475 316.658, 469.607 327.671, 469.541 343 C 469.502 352.069, 469.696 352.945, 473.832 362.313 C 480.355 377.089, 480.536 382.807, 474.994 399.028 C 467.183 421.893, 462.047 431.055, 453.625 437.157 C 445.783 442.838, 429.100 446.076, 397.500 448.052 C 365.711 450.040, 364.082 451.294, 355.998 480 C 354.217 486.325, 351.643 493.713, 350.278 496.417 C 346.380 504.142, 338.710 511.475, 328.568 517.171 C 308.014 528.717, 296.512 537.657, 287.667 548.962 C 268.379 573.613, 257.479 617.780, 262.361 651.500 C 264.933 669.264, 266.271 687.910, 265.590 696.500 C 264.266 713.194, 268.930 724.803, 279.054 730.012 C 283.816 732.462, 291.614 733.748, 309.042 734.958 C 325.810 736.121, 329.187 736.659, 334 738.932 C 335.925 739.841, 347.312 747.914, 359.305 756.872 C 371.297 765.831, 383.672 774.343, 386.805 775.788 C 396.386 780.209, 406.542 780.061, 438.394 775.035 C 464.762 770.875, 464.996 770.857, 470.727 772.503 C 479.174 774.930, 486.715 782.981, 494.410 797.787 C 501.037 810.536, 505.946 815.721, 514.353 818.848 C 528.738 824.200, 535.762 823.019, 581.872 807.493 C 629.123 791.582, 635.321 790.644, 654 796.584 C 662.786 799.377, 667.247 801.921, 669.565 805.458 C 672.866 810.496, 668.733 815.050, 641 836.935 C 628.870 846.507, 624.929 850.974, 620.653 860 C 616.810 868.112, 616.110 878.728, 618.130 898.259 C 618.884 905.541, 619.485 915.591, 619.466 920.590 C 619.435 928.787, 619.113 930.329, 616.184 936.278 C 614.397 939.907, 611.487 944.097, 609.718 945.589 C 607.948 947.081, 598.363 952.280, 588.419 957.142 C 560.444 970.821, 553.544 976.401, 545.003 992.250 L 540.826 1000 549.298 1000 C 557.220 1000, 557.876 999.838, 559.400 997.513 C 563.120 991.834, 574.081 988.673, 595.500 987.100 C 610.577 985.993, 617.222 984.429, 626.280 979.858 C 637.232 974.331, 643.617 966.559, 646.522 955.220 C 647.776 950.325, 647.990 942.366, 647.768 908.905 L 647.500 868.500 651.206 860.919 C 656.443 850.208, 665.548 840.701, 677.759 833.196 C 683.116 829.903, 690.313 825.138, 693.750 822.606 L 700 818.004 700 796.639 L 700 775.274 692.750 774.185 C 678.811 772.091, 673.306 771.856, 663.440 772.934 C 648.192 774.601, 633.966 777.723, 617.498 783.018 C 568.332 798.824, 539.391 801.889, 522.219 793.107 C 516.465 790.165, 509.555 783.585, 502.290 774.131 C 493.380 762.536, 489.213 758.198, 484.790 755.915 C 480.292 753.593, 477.459 753.510, 473.500 755.583 C 469.233 757.818, 446.309 760.992, 434.500 760.984 C 419.568 760.973, 409.827 757.659, 398 748.568 C 365.996 723.966, 339.103 709.373, 312.411 702.126 C 302.274 699.374, 295.514 690.195, 292.433 675 C 290.891 667.394, 290.835 664.607, 291.897 648.500 C 293.429 625.267, 295.504 609.255, 298.114 600.516 C 303.119 583.758, 317.620 550.570, 323.155 543.203 C 328.462 536.141, 337.645 528.771, 349.537 522.028 C 358.566 516.909, 359.558 516.035, 362.618 510.508 C 364.439 507.219, 366.852 500.523, 367.979 495.628 C 370.537 484.518, 374.935 476.143, 381.143 470.562 C 389.980 462.616, 394.294 461.413, 422.339 459.074 C 429.637 458.465, 440.567 456.544, 450.839 454.065 C 460.002 451.852, 469.087 449.806, 471.026 449.518 C 480.838 448.058, 488.825 435.388, 494.593 412.132 C 496.981 402.504, 497.170 400.366, 496.595 389.500 C 495.891 376.177, 493.857 360.505, 491.529 350.468 C 489.360 341.118, 489.610 337.328, 492.842 330.500 C 496.249 323.305, 505.325 313, 508.255 313 C 509.385 313, 512.029 311.192, 514.131 308.983 C 521.910 300.806, 525.207 279.380, 520.318 268.783 C 515.793 258.975, 504.729 249.848, 486 240.473 C 478.627 236.782, 472.135 234.621, 457 230.823 C 432.717 224.729, 422.926 221.780, 414.665 218.074 C 397.307 210.286, 391.231 197.156, 390.339 165.500 C 390.075 156.150, 389.404 147.306, 388.848 145.846 C 388.215 144.185, 384.699 141.103, 379.452 137.611 C 374.840 134.542, 370.302 130.864, 369.367 129.437 C 367.088 125.960, 367.227 119.510, 369.700 113.933 C 372.136 108.441, 381.688 98.005, 389.318 92.500 C 401.209 83.921, 403.713 75.256, 403.047 45 C 402.799 33.725, 402.574 18.987, 402.548 12.249 L 402.500 -0.002 352.601 -0.001 L 302.702 0 295.101 7.750 M 405.778 1.250 C 405.655 1.938, 405.543 18.025, 405.528 37 C 405.490 83.979, 406.681 80.527, 383.166 101.805 C 373.668 110.399, 369.368 117.716, 370.330 123.645 C 371.076 128.244, 372.506 129.765, 381.851 135.909 C 386.058 138.674, 390.156 141.964, 390.958 143.219 C 392.036 144.904, 392.586 150.462, 393.065 164.500 C 393.960 190.701, 397.001 201.251, 406.003 209.383 C 412.979 215.686, 423.842 219.686, 455.110 227.465 C 473.041 231.926, 478.487 233.725, 487.110 238.034 C 507.107 248.029, 517.741 256.863, 522.580 267.500 C 525.658 274.264, 526.349 280.172, 525.025 288.396 C 522.660 303.090, 517.909 311.824, 510.571 314.970 C 505.407 317.183, 498.540 324.731, 495.270 331.787 C 492.433 337.908, 492.489 340.926, 495.771 359 C 496.920 365.325, 498.384 376.913, 499.024 384.752 C 500.118 398.136, 500.055 399.627, 497.997 409.239 C 492.460 435.100, 483.842 449.228, 471.982 451.889 C 469.517 452.442, 459.850 454.690, 450.500 456.883 C 431.690 461.297, 429.124 461.689, 410.803 462.960 C 395.367 464.030, 388.494 466.626, 381.608 473.987 C 375.854 480.139, 373.472 484.966, 370.452 496.588 C 366.176 513.045, 362.312 518.688, 351.603 524.113 C 337.062 531.479, 325.730 542.054, 320.180 553.436 C 309.940 574.438, 299.830 601.645, 298.084 612.899 C 296.394 623.789, 294.008 652.339, 294.022 661.500 C 294.046 676.800, 298.676 690.363, 305.705 695.724 C 307.496 697.090, 313.132 699.450, 318.231 700.969 C 338.792 707.094, 359.110 717.468, 381.477 733.262 C 390.840 739.873, 399.805 746.371, 401.399 747.702 C 410.396 755.212, 424.917 759.516, 438 758.551 C 451.163 757.581, 468.193 754.888, 471.379 753.274 C 472.962 752.472, 476.122 751.787, 478.401 751.753 C 486.641 751.628, 490.828 755.047, 506.201 774.452 C 519.005 790.614, 527.708 795, 546.974 795 C 564.147 795, 581.842 791.365, 615 781.028 C 641.853 772.656, 653.158 770.554, 671.500 770.524 C 679.750 770.511, 689.538 770.873, 693.250 771.330 L 700 772.159 700 761.433 L 700 750.706 690.750 751.301 C 684.881 751.679, 675.826 753.369, 665.976 755.926 C 648.971 760.341, 596.642 772.080, 585.500 773.979 C 574.427 775.866, 555.844 775.453, 546.856 773.120 C 533.332 769.610, 525.354 764.759, 510.808 751.201 C 506.027 746.745, 500.340 742.194, 498.170 741.087 C 493.639 738.775, 485.750 737.427, 471.500 736.530 C 455.576 735.528, 445.948 734.022, 439.500 731.527 C 436.200 730.250, 431.651 728.985, 429.392 728.717 C 423.092 727.968, 418.973 725.591, 401.385 712.550 C 392.446 705.923, 380.940 698.257, 375.816 695.516 C 357.435 685.682, 349.007 673.294, 337.418 639.075 C 331.894 622.763, 331.863 622.606, 332.958 616.319 C 335.429 602.131, 346.980 575.810, 362.986 547.893 C 374.253 528.241, 381.540 518.366, 393.951 505.930 C 412.257 487.587, 428.347 478.771, 450.244 475.085 C 462.384 473.041, 472.423 470.054, 478 466.826 C 493.969 457.584, 501.330 446.950, 511.105 419 L 515.477 406.500 515.486 388.500 C 515.490 378.600, 515.271 364.875, 514.997 358 L 514.500 345.500 517.771 338.836 C 522.863 328.459, 530.102 323.350, 548 317.504 C 558.463 314.086, 561.607 312.528, 564.637 309.257 C 569.130 304.410, 567.104 297.491, 557.820 285.973 C 547.561 273.245, 547.896 274.125, 548.640 261.871 L 549.298 251.045 544.232 242.773 C 538.447 233.326, 534.079 222.808, 531.498 212.107 C 530.517 208.041, 528.903 203.903, 527.910 202.910 C 525.327 200.327, 520.325 199.277, 505 198.100 C 482.138 196.344, 475.534 193.112, 469.600 180.774 C 467.447 176.298, 465.655 170.592, 464.959 165.992 C 463.364 155.461, 462.106 153.690, 451 146.346 C 438.084 137.805, 433.658 130.863, 433.561 119 C 433.459 106.475, 438.087 98.203, 448.217 92.804 C 457.804 87.694, 461.102 80.939, 464.966 58.500 C 467.922 41.335, 470.923 35.721, 485.815 19.500 C 492.380 12.350, 499.832 5.197, 502.375 3.605 C 504.919 2.013, 507 0.550, 507 0.355 C 507 0.160, 484.275 0, 456.500 0 C 416.885 0, 405.952 0.269, 405.778 1.250 M 509.399 2.590 C 501.784 6.616, 498.770 9.246, 487.173 21.988 C 473.322 37.206, 470.698 42.267, 467.431 60.053 C 463.137 83.438, 460.299 89.121, 450.024 94.919 C 440.278 100.417, 435.986 108.004, 436.010 119.693 C 436.029 129.146, 441.182 136.505, 453.574 144.780 C 460.450 149.371, 465.768 154.965, 466.395 158.268 C 466.628 159.496, 467.297 163.425, 467.881 167 C 468.464 170.575, 470.418 176.406, 472.221 179.958 C 477.932 191.206, 485.115 194.306, 509.179 195.908 C 524.156 196.904, 529.173 198.478, 531.424 202.885 C 532.158 204.323, 533.714 209.325, 534.881 214 C 536.853 221.904, 541.684 232.763, 549.116 246 C 552.179 251.455, 552.199 251.586, 551.561 262.044 L 550.919 272.588 553.917 276.544 C 555.566 278.720, 559.179 283.425, 561.945 287 C 566.529 292.923, 570 300.153, 570 303.777 C 570 307.139, 566.496 312.209, 562.620 314.455 C 560.354 315.768, 553.925 318.425, 548.332 320.359 C 530.023 326.691, 524.076 330.983, 519.507 341.163 C 516.856 347.070, 516.759 347.829, 517.365 357.925 C 519.833 399.073, 519.442 404.223, 512.390 423.377 C 506.414 439.608, 505.115 442.506, 500.912 448.977 C 490.478 465.040, 475.490 473.732, 451.710 477.511 C 430.267 480.919, 413.685 489.943, 395.962 507.852 C 383.320 520.626, 376.076 530.525, 364.751 550.500 C 346.237 583.156, 335 609.726, 335 620.846 C 335 625.489, 346.184 656.491, 351.813 667.450 C 357.998 679.493, 365.554 687.106, 377.590 693.418 C 382.589 696.040, 393.790 703.496, 402.482 709.986 C 419.765 722.893, 425.082 726, 429.890 726 C 431.633 726, 435.634 727.074, 438.780 728.386 C 445.838 731.330, 454.134 732.681, 473.500 734.038 C 496.734 735.667, 499.005 736.579, 513.897 750.262 C 519.513 755.421, 526.562 761.130, 529.562 762.948 C 542.681 770.899, 559.504 774.150, 577.411 772.195 C 589.346 770.891, 623.803 763.596, 658.500 755.027 C 672.696 751.521, 686.075 748.819, 691.250 748.412 L 700 747.725 700 741.862 C 700 738.638, 699.735 736, 699.411 736 C 699.087 736, 688.625 738.673, 676.161 741.940 C 663.698 745.207, 649.450 748.623, 644.500 749.531 C 626.351 752.860, 576.875 752.473, 557.083 748.848 C 544.896 746.615, 518.326 734.997, 493.500 721.045 C 485.313 716.443, 476.613 712.477, 470 710.331 C 464.225 708.457, 454.357 704.454, 448.071 701.435 C 413.492 684.828, 395.564 664.463, 384.156 628.834 C 376.221 604.049, 378.368 582.419, 391.203 557.848 C 399.126 542.679, 405.766 533.921, 414.169 527.554 C 422.542 521.208, 458.292 501.717, 460.705 502.182 C 461.692 502.372, 462.500 503.361, 462.500 504.380 C 462.500 505.757, 457.286 509.087, 442.168 517.366 C 411.763 534.016, 407.543 538.137, 394.930 563.500 C 381.042 591.425, 381.746 614.170, 397.505 646.626 C 405.266 662.610, 414.301 673.361, 429 684.105 C 440.020 692.159, 459.019 701.276, 473.578 705.495 C 478.519 706.926, 486.319 710.441, 493.147 714.313 C 517.123 727.907, 541.566 739.085, 554.500 742.370 C 564.062 744.798, 584.848 746.370, 607 746.340 C 634.964 746.302, 642.494 745.109, 682.750 734.343 L 700 729.730 700 718.273 L 700 706.816 693.529 710.373 C 686.868 714.035, 680.034 715.629, 648 720.994 C 641.125 722.145, 629.425 724.447, 622 726.109 C 600.613 730.895, 579.078 729.989, 559.997 723.499 C 550.852 720.389, 548.865 719.123, 542 712.038 C 535.384 705.210, 529.460 702.814, 506 697.478 C 482.590 692.154, 475.312 689.347, 462.666 680.769 C 454.141 674.986, 436.463 657.560, 433.100 651.625 C 429.140 644.634, 425.807 633.497, 421.991 614.500 C 418.189 595.577, 418.348 591.443, 423.291 580.745 C 429.076 568.225, 443.438 548.550, 454.273 538.303 C 462.326 530.687, 477.956 520.835, 494.736 512.797 C 502.856 508.908, 511.482 504.368, 513.904 502.709 C 520.343 498.298, 528.587 489.729, 539.280 476.332 C 544.474 469.824, 549.956 463.375, 551.461 462 C 552.966 460.625, 555.282 457.371, 556.606 454.769 C 561.262 445.624, 562.147 439.289, 562.931 409.500 C 563.885 373.277, 563.878 373.300, 581.805 351.348 C 592.562 338.175, 602.606 328.819, 611.207 323.957 C 623.978 316.740, 625.063 311.255, 619.504 282 C 616.580 266.610, 617.965 247.133, 623.031 232.409 C 626.084 223.536, 626.920 216.090, 627.062 196.500 C 627.189 178.929, 627.121 178.294, 624.194 169.853 C 622.545 165.097, 619.163 157.319, 616.677 152.570 C 610.730 141.203, 610.495 142.078, 625.393 120.012 C 639.989 98.393, 645.490 94.028, 659.164 93.211 C 672.258 92.429, 681.693 96.281, 695.001 107.843 L 700 112.186 700 101.754 C 700 89.657, 701.949 91.694, 683.500 84.510 C 659.607 75.205, 646.550 68.544, 639.653 62.143 C 638.087 60.689, 633.137 54.338, 628.653 48.030 C 618.531 33.789, 609.530 24.516, 604.473 23.120 C 595.378 20.609, 580.484 27.499, 567.923 40.027 C 561.243 46.690, 559.603 49.118, 554.067 60.542 L 547.789 73.500 530.469 90.500 C 520.944 99.850, 512.690 108.438, 512.129 109.584 C 511.567 110.730, 510.971 115.464, 510.804 120.104 C 510.378 131.942, 511.851 134.169, 532.780 153.308 C 539.208 159.186, 544.780 166.185, 556.017 182.493 C 580.980 218.725, 582 221.257, 582 247.040 C 582 257.176, 582.457 266.073, 583.060 267.657 C 583.643 269.190, 586.586 273.030, 589.601 276.191 C 597.343 284.307, 600.464 291.443, 600.484 301.074 C 600.498 307.784, 600.190 309.055, 597.787 312.209 C 596.295 314.167, 589.033 320.108, 581.649 325.411 C 574.266 330.714, 566.204 337.213, 563.735 339.852 C 559.605 344.267, 546.605 367.767, 543.265 376.856 C 542.586 378.704, 540.873 390.405, 539.460 402.858 C 534.858 443.406, 532.888 449.492, 519.650 464.062 C 513.058 471.317, 509.993 474, 508.534 473.790 C 504.683 473.235, 506.018 470.445, 514.607 461.099 C 519.358 455.928, 524.060 449.853, 525.055 447.599 C 528.526 439.733, 530.961 427.337, 533.519 404.500 C 536.306 379.622, 537.818 372.534, 541.566 366.779 C 542.899 364.733, 545.748 359.253, 547.896 354.602 C 555.130 338.945, 558.948 334.709, 578.402 320.755 C 585.498 315.665, 592.222 310.265, 593.343 308.756 C 598.179 302.246, 594.469 289.971, 584.259 278.705 C 576.555 270.204, 575.928 267.682, 576.048 245.693 C 576.177 222.154, 576.147 222.080, 551.229 185.500 C 541.206 170.786, 537.669 166.550, 524.926 154 C 507.157 136.499, 504.997 132.952, 505.006 121.283 C 505.015 107.584, 505.061 107.507, 524.415 88.500 C 542.372 70.866, 545.262 67.237, 549.336 57.212 C 553.943 45.874, 563.467 34.313, 574 27.273 C 583.451 20.957, 591.209 17.728, 598.133 17.227 C 604.029 16.801, 605.345 17.063, 609.973 19.582 C 616.365 23.061, 622.440 29.609, 633.388 44.821 C 638.011 51.244, 642.852 57.466, 644.146 58.646 C 650.293 64.251, 663.116 70.557, 687.750 80.090 L 700 84.830 700 75.637 L 700 66.445 690.750 63.031 C 677.850 58.270, 665.430 51.854, 659.316 46.792 C 651.198 40.071, 645.152 31.709, 636.500 15.241 L 628.500 0.013 571.399 0.007 L 514.298 -0 509.399 2.590 M 632 0.363 C 632 2.193, 647.920 30.340, 651.614 35.042 C 657 41.897, 665.626 48.773, 674.392 53.198 C 680.439 56.250, 697.443 63, 699.086 63 C 699.589 63, 700 59.205, 700 54.567 C 700 47.083, 699.781 46.065, 698.049 45.515 C 693.749 44.151, 681.218 35.046, 676.669 29.982 C 669.574 22.083, 667.160 16.616, 665.530 4.750 L 664.877 0 648.439 0 C 639.397 0, 632 0.163, 632 0.363 M 668 2.790 C 668 7.074, 670.832 16.977, 673.191 20.943 C 676.638 26.736, 683.013 32.929, 690.878 38.125 C 694.936 40.806, 698.649 43, 699.128 43 C 699.608 43, 700 36.642, 700 28.871 L 700 14.742 696.403 10.761 C 694.424 8.571, 692.168 5.254, 691.389 3.390 L 689.973 -0 678.987 -0 L 668 0 668 2.790 M 693.683 1.894 C 693.955 2.936, 695.470 5.299, 697.048 7.144 L 699.919 10.500 699.959 5.250 L 700 0 696.594 -0 C 693.743 -0, 693.268 0.309, 693.683 1.894 M 653.951 96.362 C 648.548 97.819, 643.495 100.800, 639.851 104.680 C 636.137 108.635, 618.053 135.628, 616.288 139.853 C 614.862 143.266, 614.932 143.543, 619.350 151.923 C 621.837 156.640, 625.226 164.550, 626.882 169.500 L 629.892 178.500 629.512 199.500 C 629.208 216.320, 628.747 221.893, 627.198 227.500 C 626.134 231.350, 624.263 238.100, 623.041 242.500 C 619.921 253.727, 619.910 271.458, 623.015 286 C 626.707 303.295, 625.782 315.164, 620.265 321.260 C 619.353 322.268, 615.882 324.534, 612.553 326.295 C 601.724 332.023, 577.356 358.373, 570.731 371.517 C 566.167 380.573, 565.685 384.104, 565.481 410 C 565.210 444.442, 563.027 453.791, 552.682 464.817 C 549.749 467.943, 543.734 475, 539.315 480.500 C 523.655 499.991, 517.790 504.740, 497.221 514.580 C 481.988 521.867, 466.695 531.189, 457.823 538.596 C 448.186 546.641, 429.420 572.575, 424.397 584.787 C 421.286 592.352, 421.384 597.645, 424.960 615.302 C 431.003 645.141, 433.332 650.113, 447.906 664.300 C 465.147 681.084, 476.777 687.766, 497 692.509 C 532.466 700.826, 536.476 702.354, 544.602 710.641 C 551.389 717.563, 555.751 719.875, 567.832 722.953 C 586.713 727.763, 601.276 727.924, 620.558 723.537 C 626.640 722.153, 643.494 718.986, 658.011 716.498 C 682.335 712.330, 684.998 711.670, 691.953 708.084 L 699.500 704.193 699.783 692.471 C 700.045 681.620, 699.933 680.789, 698.283 681.287 C 697.302 681.582, 690.650 683.922, 683.500 686.487 C 653.502 697.247, 619.338 704.195, 595.500 704.382 C 578.267 704.518, 573.280 703.455, 558.500 696.497 C 550.080 692.534, 545.251 689.358, 530.211 677.893 C 525.191 674.065, 521.487 672.416, 508.334 668.153 C 490.326 662.316, 486.147 659.727, 476.842 648.649 C 470.964 641.650, 463.522 628.368, 460.512 619.500 C 455.648 605.176, 460.909 590.025, 479.330 565.306 C 486.786 555.301, 494.733 547.787, 523 524.019 C 530.425 517.776, 539.141 510.155, 542.369 507.084 C 548.918 500.853, 567.249 480.267, 573.678 471.923 C 582.662 460.261, 586.999 446.874, 587.001 430.792 C 587.003 422.060, 588.899 409.325, 591.580 400.039 C 594.923 388.463, 604.620 374.116, 615.278 364.982 C 619.940 360.986, 632.490 346.114, 637.791 338.305 C 650.696 319.291, 658.535 299.433, 668.505 260.500 C 673.760 239.979, 675.446 230.742, 677.997 208.500 C 679.754 193.178, 680.290 190.809, 683.420 184.500 C 687.073 177.139, 692.446 170.855, 697.179 168.407 L 700 166.949 700 141.529 L 700 116.110 691.862 108.939 C 683.051 101.175, 676.578 97.763, 667.464 96.078 C 660.451 94.782, 659.756 94.796, 653.951 96.362 M 696.405 172.040 C 691.438 175.186, 684.018 186.741, 682.626 193.500 C 682.287 195.150, 681.312 203.025, 680.460 211 C 676.756 245.682, 661.557 302.206, 650.373 322.895 C 641.582 339.157, 625.705 360.135, 616.764 367.302 C 610.605 372.238, 601.014 384.740, 597.390 392.556 C 593.332 401.310, 590.331 416.612, 589.615 432.205 C 588.632 453.638, 584.908 462.783, 569.737 481.024 C 554.117 499.806, 545.173 508.876, 528.056 523.295 C 497.240 549.254, 488.941 557.067, 481.357 567.257 C 469.183 583.615, 462.707 596.189, 461.406 605.993 C 459.606 619.569, 475.341 647.565, 490.725 658.153 C 493.078 659.773, 501.848 663.308, 510.523 666.134 C 523.344 670.310, 527.105 671.992, 531.799 675.647 C 545.703 686.476, 550.044 689.390, 558.500 693.571 C 563.450 696.018, 571.059 698.915, 575.410 700.010 C 597.808 705.645, 641.043 698.731, 688.250 681.965 L 700 677.792 700 653.896 C 700 640.753, 699.663 630.006, 699.250 630.014 C 698.837 630.022, 689.950 634.121, 679.500 639.122 C 651.466 652.541, 639.826 657.737, 631.741 660.445 C 613.725 666.478, 592.251 666.122, 564 659.322 C 547.179 655.274, 520.342 640.692, 507.032 628.370 C 493.195 615.558, 493.026 598.335, 506.537 577.907 C 512.538 568.833, 534.108 546.638, 564 518.779 C 591.032 493.586, 595.516 488.888, 602.448 478.500 C 613.793 461.497, 619.685 447.207, 626.004 421.361 C 630.828 401.633, 634.414 392.155, 640.539 382.942 C 645.709 375.164, 649.906 371.156, 660.128 364.232 C 671.379 356.611, 676.195 351.904, 688.336 336.667 C 695.930 327.135, 699.608 323.213, 699.838 324.403 C 700.188 326.215, 695.582 332.596, 683.706 346.750 C 677.047 354.686, 669.543 361.261, 660 367.520 C 652.052 372.733, 643.747 381.987, 639.353 390.526 C 634.502 399.953, 632.092 407.107, 628.074 424 C 623.176 444.596, 618.015 458.050, 609.468 472.500 C 601.540 485.906, 594.361 494.150, 575 512.084 C 553.478 532.019, 532.220 552.678, 521.428 564.146 C 497.629 589.436, 492.948 609.539, 507.315 624.745 C 518.043 636.099, 547.115 652.447, 563.846 656.533 C 585.431 661.806, 607.787 663.389, 621.024 660.582 C 630.617 658.548, 641.819 654.017, 667 641.982 C 679.375 636.068, 691.862 630.222, 694.750 628.991 L 700 626.754 700 607.377 C 700 596.720, 699.888 588.006, 699.750 588.013 C 699.612 588.020, 696.577 588.942, 693.005 590.061 C 684.703 592.664, 679.541 595.718, 670.949 603.112 C 642.365 627.715, 615.638 638.145, 589.094 635.059 C 574.041 633.309, 570.095 631.888, 557.755 623.774 C 538.035 610.807, 534.535 606.456, 534.603 595 C 534.667 584.317, 536.415 581.694, 559.523 557.609 C 571.192 545.445, 581.026 536, 582.020 536 C 582.991 536, 584.064 536.725, 584.404 537.611 C 585.039 539.266, 584.461 539.916, 556.650 568.798 C 542.046 583.965, 539.523 588.229, 540.215 596.575 C 540.844 604.168, 544.080 607.758, 559.492 617.958 C 575.113 628.298, 579.237 629.502, 599 629.496 C 609.320 629.493, 612.808 629.082, 618.998 627.142 C 634.467 622.293, 650.231 613.082, 666.500 599.385 C 677.547 590.085, 682.078 587.402, 691.693 584.469 L 700 581.936 700 555.823 L 700 529.711 687.250 542.121 C 672.611 556.370, 652.415 572.838, 636.500 583.502 C 622.248 593.052, 613.127 596.327, 600.500 596.428 C 589.910 596.513, 587.212 595.891, 583.077 592.411 C 575.852 586.332, 580.760 574.038, 598.013 555 C 619.163 531.661, 636.006 514.293, 641.762 509.890 C 651.997 502.059, 657.272 495.898, 674.627 471.500 C 684.016 458.300, 693.679 445.711, 696.099 443.525 L 700.500 439.550 700.203 305.061 C 700.040 231.093, 699.803 170.470, 699.677 170.344 C 699.551 170.217, 698.078 170.981, 696.405 172.040 M 126.383 322.445 C 125.046 325.929, 126.535 326.489, 140.084 327.603 C 150.178 328.433, 154.533 329.231, 157.657 330.825 C 166.186 335.176, 168.262 340.991, 165.712 353.389 C 160.780 377.373, 144.118 394.027, 114.653 404.421 C 109.345 406.293, 103.099 409.225, 100.773 410.935 C 95.618 414.726, 91.271 420.982, 90.397 425.865 C 89.462 431.093, 85.545 439.041, 81.764 443.383 C 78.992 446.566, 77.143 447.510, 69.500 449.647 C 57.302 453.057, 49.751 457.268, 41.970 465 C 26.499 480.373, 22.979 497.817, 27.250 537.937 C 29.631 560.299, 29.544 580.278, 27.025 589.746 C 24.288 600.036, 22.636 620.022, 23.255 635.364 C 23.663 645.500, 24.494 651.286, 26.894 660.698 C 36.040 696.578, 42.433 707.904, 61.500 722.010 C 66.450 725.673, 76.530 733.468, 83.900 739.334 C 91.271 745.201, 97.628 750, 98.028 750 C 98.428 750, 99.366 749.263, 100.113 748.363 C 101.305 746.927, 100.861 746.185, 96.486 742.302 C 93.744 739.868, 84.750 732.733, 76.500 726.446 C 68.250 720.159, 59.283 713.104, 56.573 710.768 C 46.840 702.377, 40.553 689.664, 33.808 664.736 C 29.922 650.374, 29.660 648.537, 29.241 632.715 C 28.777 615.178, 29.974 600.316, 32.603 590.977 C 35.072 582.207, 35.410 563.726, 33.472 543.500 C 30.760 515.198, 30.534 504.406, 32.455 494.926 C 36.631 474.314, 49.792 460.852, 71.535 454.950 C 80.954 452.393, 85.030 449.584, 89.406 442.632 C 92.769 437.290, 93.979 434.434, 95.947 427.188 C 97.234 422.446, 102.742 415.702, 107.216 413.388 C 108.792 412.573, 114.303 410.435, 119.462 408.638 C 138.356 402.055, 157.411 387.440, 164.224 374.306 C 173.614 356.201, 174.976 339.598, 167.745 331.362 C 162.099 324.931, 154.929 322.664, 136.727 321.553 C 128.613 321.058, 126.857 321.209, 126.383 322.445 M 1.003 337.250 L 1.007 349.500 9.671 351.181 C 24.278 354.014, 39 362.948, 39 368.978 C 39 371.538, 28.054 384.087, 20.090 390.656 C 16.556 393.571, 10.817 397.428, 7.336 399.228 L 1.007 402.500 1.004 420.212 L 1 437.925 7.250 437.485 C 10.688 437.243, 16.850 436.829, 20.944 436.564 C 31.384 435.890, 39.362 431.847, 48.514 422.592 C 56.691 414.323, 62.238 404.091, 64.012 394 C 66.482 379.956, 69.856 376.118, 84.721 370.447 C 105.245 362.616, 116 356.067, 116 351.402 C 116 341.544, 80.483 334.731, 64.516 341.527 C 59.829 343.522, 48.673 343.781, 42 342.050 C 34.334 340.062, 23.959 335.922, 12.672 330.348 C 6.716 327.406, 1.653 325, 1.422 325 C 1.190 325, 1.001 330.512, 1.003 337.250 M 1 376.107 C 1 402.351, 0.090 400.470, 10 394.701 C 16.588 390.867, 36 371.737, 36 369.079 C 36 366.881, 30.513 361.810, 25.222 359.119 C 19.831 356.377, 8.338 353, 4.395 353 L 1 353 1 376.107 M 695.183 382.517 C 684.496 394.689, 674.274 411.678, 669.859 424.608 C 665.758 436.619, 659.859 447.704, 654.736 453.029 C 647.409 460.643, 618 494.266, 618 495.028 C 618 496.565, 620.934 498.135, 622.300 497.329 C 623.073 496.873, 630.641 488.625, 639.117 479 C 647.594 469.375, 656.547 459.398, 659.014 456.829 C 664.624 450.988, 670.380 440.419, 674.403 428.575 C 678.117 417.637, 684.699 405.648, 693.570 393.663 C 699.196 386.062, 700.068 384.321, 699.805 381.213 L 699.500 377.601 695.183 382.517 M 695.808 447.750 C 693.829 449.813, 685.340 461.175, 676.944 473 C 657.773 499.999, 655.422 502.818, 646.413 509.598 C 635.230 518.015, 590.905 565.345, 586.955 573.088 C 582.895 581.047, 581.828 585.170, 583.060 588.144 C 586.465 596.366, 608.774 595.968, 625 587.396 C 639.805 579.574, 665.653 559.242, 685.252 540 L 700.021 525.500 700.010 484.750 C 700.005 462.337, 699.866 444, 699.703 444 C 699.540 444, 697.787 445.688, 695.808 447.750 M 694.500 825.577 C 691.750 827.548, 685.116 831.866, 679.759 835.172 C 668.053 842.395, 658.504 852.195, 653.756 861.855 L 650.500 868.479 650.486 910.490 C 650.472 951.669, 650.426 952.632, 648.177 959.181 C 644.107 971.034, 638.071 977.233, 624.500 983.496 C 615.065 987.850, 609.956 988.962, 594.572 990.006 C 575.642 991.290, 565.887 993.817, 562.061 998.427 C 560.878 999.852, 563.752 1000, 592.628 999.997 C 623.185 999.995, 624.871 999.895, 633.500 997.577 C 649.632 993.242, 655.815 989.585, 660.487 981.612 C 665.545 972.981, 666.156 969.682, 667.074 946.045 C 668.166 917.892, 670.166 902.860, 674.061 893.521 C 677.690 884.817, 684.560 874.034, 693.337 863.265 L 700.048 855.029 699.774 838.511 L 699.500 821.993 694.500 825.577 M 691.085 870.694 C 681.416 883.571, 675.446 895.059, 673.515 904.500 C 671.412 914.780, 670.002 931.701, 670.001 946.662 C 670 966.425, 667.373 977.361, 660.388 986.680 C 656.940 991.281, 652.574 994.080, 644.034 997.166 L 636.500 999.888 665.750 999.944 L 695 1000 695 997.404 C 695 995.976, 694.063 986.922, 692.919 977.285 C 690.736 958.913, 691.001 956.256, 694.778 958.626 C 696.101 959.456, 696.878 962.694, 698.132 972.603 L 699.764 985.500 699.882 922.750 C 699.947 888.237, 699.801 860, 699.557 860 C 699.313 860, 695.501 864.812, 691.085 870.694" stroke="none" fill="black" fill-rule="evenodd"/>
</svg>