<svg xmlns="http://www.w3.org/2000/svg" width="20" height="8" viewBox="0 0 20 8" fill="none">
<path d="M8.00381 1.02393L6.98792 6.98872H8.61268L9.62942 1.02393H8.00381Z" fill="#fff" />
<path
		d="M5.62567 1.03104L4.03433 5.09886L3.86466 4.48465C3.55083 3.74459 2.65988 2.68175 1.61389 2.01193L3.069 6.98622L4.78821 6.98329L7.34697 1.02979L5.62567 1.03104Z"
		fill="#fff"
	/>
<path
		d="M3.24787 1.45774C3.15342 1.0944 2.8797 0.986106 2.53995 0.973145H0.0208947L0 1.09189C1.96034 1.5677 3.25748 2.71417 3.79572 4.09268L3.24787 1.45774Z"
		fill="#fff"
	/>
<path
		d="M12.9225 2.16785C13.4541 2.15949 13.8394 2.27572 14.1386 2.39614L14.2853 2.46513L14.5051 1.17232C14.1833 1.05149 13.6789 0.921875 13.0496 0.921875C11.444 0.921875 10.3124 1.73092 10.3036 2.89035C10.2931 3.74706 11.1097 4.22538 11.7265 4.51095C12.3596 4.80363 12.5719 4.98969 12.569 5.25101C12.564 5.65031 12.0642 5.83344 11.5974 5.83344C10.9467 5.83344 10.6011 5.74355 10.0675 5.52111L9.8581 5.42578L9.62952 6.76082C10.0098 6.92764 10.7114 7.07106 11.4398 7.07858C13.1478 7.07858 14.2577 6.27915 14.2694 5.04028C14.2765 4.36252 13.8431 3.84532 12.9041 3.42093C12.3358 3.14414 11.9881 2.96017 11.9914 2.68087C11.9914 2.43293 12.2865 2.16785 12.9225 2.16785Z"
		fill="#fff"
	/>
<path
		d="M18.6747 1.03027H17.4194C17.0295 1.03027 16.7395 1.13647 16.5681 1.52532L14.1556 6.99172H15.8619C15.8619 6.99172 16.1402 6.25668 16.2033 6.09571C16.3901 6.09571 18.0479 6.09822 18.284 6.09822C18.3325 6.30644 18.4821 6.99172 18.4821 6.99172H19.9894L18.6747 1.03027ZM16.6709 4.87482C16.8047 4.53239 17.3183 3.2078 17.3183 3.2078C17.3095 3.22411 17.4507 2.86286 17.5347 2.63833L17.6442 3.15261C17.6442 3.15261 17.9555 4.5767 18.0207 4.87482H16.6709Z"
		fill="#fff"
	/>
</svg>
