<svg xmlns="http://www.w3.org/2000/svg" width="700" height="1000" viewBox="0 0 700 1000" version="1.1" stroke="none" fill="black" fill-rule="evenodd">
	<path d="M 0 2.674 L 0 5.349 2.500 3 C 3.875 1.708, 5 0.505, 5 0.326 C 5 0.147, 3.875 0, 2.500 0 C 0.457 0, 0 0.488, 0 2.674 M 7.250 6.594 L 0 13.166 0 114.150 C 0 209.852, 0.092 215.108, 1.750 214.629 C 5.034 213.681, 29.475 210.082, 40.500 208.924 C 67.828 206.052, 73.097 209.309, 82.498 234.879 C 95.736 270.891, 103.978 278.848, 141.053 291.408 C 155.422 296.277, 159.702 296.846, 165.128 294.611 C 173.540 291.146, 185.791 291.873, 187.983 295.968 C 190.949 301.510, 188.443 307.550, 176.896 322.697 C 172.563 328.381, 167.944 335.162, 166.632 337.766 C 162.034 346.891, 162.092 347.350, 170.053 364.746 C 177.784 381.638, 178.814 386.338, 175.572 389.920 C 170.534 395.488, 154.158 395.267, 140.232 389.443 C 135.429 387.435, 130.375 385.726, 129 385.646 C 126.727 385.513, 126.500 385.862, 126.500 389.487 C 126.500 392.842, 126.932 393.680, 129.229 394.781 C 130.730 395.501, 134.218 396.357, 136.979 396.684 C 142.836 397.378, 145.587 399.028, 144.707 401.320 C 143.622 404.148, 130.965 409.680, 120.507 411.897 C 112.123 413.675, 108.457 415.150, 97.516 421.144 C 72.292 434.966, 55.981 447.680, 51.297 457.172 C 50.104 459.589, 48.462 466.271, 47.576 472.307 C 45.327 487.649, 42.927 491.392, 33.349 494.496 C 28.419 496.094, 27.742 496.073, 17.597 494.020 C 11.766 492.839, 5.534 492.015, 3.748 492.187 L 0.500 492.500 0.228 511.362 L -0.045 530.224 4.728 526.239 C 15.958 516.863, 22.994 513.810, 43.245 509.529 C 56.748 506.674, 60.836 504.832, 66.738 498.942 C 73.329 492.364, 76.628 486.357, 78.512 477.500 C 82.690 457.867, 94.146 442.975, 111.954 434.025 C 123.576 428.184, 131.800 426.084, 153.500 423.419 C 179.040 420.282, 183.065 418.982, 195.238 409.943 C 206.642 401.474, 207.610 394.319, 200.121 373.853 C 197.707 367.255, 194.539 339.905, 195.360 332.751 C 196.124 326.097, 199.305 319.455, 204.298 314.086 C 210.296 307.638, 212.778 303.220, 214.637 295.687 C 216.474 288.242, 215.922 283.144, 212.991 280.491 C 209.832 277.633, 202.234 277.426, 194.535 279.988 C 186.315 282.724, 175.775 283.677, 162 282.932 C 144.161 281.966, 135.759 276.783, 114.993 253.935 C 107.656 245.863, 105.772 243.055, 102.917 235.935 C 95.684 217.900, 87.948 203.788, 82.074 197.914 C 74.162 190.002, 68.409 188, 53.585 188 C 44.725 188, 41.973 187.672, 41 186.500 C 40.007 185.303, 40.007 184.697, 41 183.500 C 42.769 181.368, 61.680 181.428, 69.068 183.588 C 84.916 188.222, 93.663 199.038, 106.604 229.996 C 110.955 240.404, 112.228 242.392, 120.065 251.017 C 137.633 270.353, 145.144 275.407, 159 277.213 C 169.658 278.603, 183.191 277.643, 191 274.942 C 198.863 272.222, 209.091 271.891, 213.502 274.214 C 219.627 277.439, 220.500 279.329, 220.500 289.358 C 220.500 297.542, 220.173 299.181, 217.376 305 C 215.658 308.575, 211.775 314.329, 208.746 317.788 C 201.017 326.612, 200.375 329.447, 201.822 348.381 C 203.047 364.407, 203.727 367.877, 207.550 377.607 C 214.550 395.425, 210.547 407.227, 193.842 418.024 C 184.008 424.380, 178.418 425.940, 154.500 429.004 C 122.862 433.057, 110.597 437.966, 98 451.617 C 90.693 459.536, 86.625 467.486, 83.990 479 C 81.639 489.272, 78.014 495.986, 71.071 502.929 C 64.619 509.381, 59.357 511.789, 44.710 514.990 C 23.077 519.718, 16.193 522.952, 6.119 533.121 L -0 539.297 -0 638.182 L -0 737.066 2.436 741.873 C 4.997 746.927, 10.582 752.510, 14.608 754.041 C 15.921 754.540, 25.658 755.599, 36.247 756.394 C 62.267 758.348, 62.509 758.444, 83.500 775.063 C 90.925 780.941, 105.189 787.650, 116.500 790.584 C 125.650 792.957, 127.647 793.129, 140 792.610 C 147.425 792.298, 162.050 791.073, 172.500 789.888 C 199.987 786.771, 201.928 786.666, 207.748 787.968 C 214.508 789.481, 217.659 792.205, 224.960 802.851 C 233.757 815.679, 240.222 822.407, 249.948 828.858 C 261.963 836.828, 268.032 838.506, 284.500 838.412 C 299.335 838.328, 300.584 837.989, 325.158 827.380 C 341.876 820.162, 345.844 819.059, 355.203 819.024 C 363.018 818.996, 366.815 820.416, 367.632 823.671 C 368.521 827.211, 367.464 829.975, 362.921 836 C 357.052 843.782, 351.381 855.535, 346.877 869.252 C 343.434 879.736, 342.993 882.204, 342.936 891.279 C 342.804 912.346, 341.515 924.195, 338.683 930.381 C 334.756 938.959, 327.024 945.948, 315.250 951.562 C 309.887 954.119, 303.971 956.945, 302.103 957.842 C 300.235 958.739, 294.160 964.394, 288.603 970.408 C 283.046 976.422, 274.480 985.541, 269.566 990.672 L 260.632 1000 274.303 1000 L 287.975 1000 291.595 992.750 C 300.115 975.687, 307.643 969.354, 336 955.393 C 357.843 944.639, 361.433 941.781, 365.001 932.305 C 367.432 925.850, 367.426 922.083, 364.939 891.749 C 363.453 873.624, 364.150 867.507, 368.826 857.631 C 373.047 848.717, 376.126 845.375, 391.595 832.912 C 418.588 811.167, 419.887 809.744, 416.340 805.822 C 411.950 800.968, 396.555 795.989, 386.020 796.017 C 375.759 796.045, 367.940 798.151, 329.500 811.241 L 293.500 823.500 280.500 823.500 C 268.544 823.500, 267.049 823.288, 261.880 820.865 C 253.084 816.741, 248.971 812.303, 242.404 799.853 C 236.480 788.623, 228.976 779.073, 224.091 776.547 C 218.404 773.606, 213.095 773.806, 187 777.942 C 159.275 782.338, 151.453 782.790, 142.680 780.505 C 133.832 778.200, 130.246 775.988, 106.554 758.218 C 91.957 747.269, 82.978 741.211, 80 740.302 C 77.525 739.547, 69.650 738.497, 62.500 737.969 C 34.921 735.931, 29.110 734.610, 22.626 728.902 C 14.806 722.018, 13.719 717.941, 12.921 692.500 C 12.515 679.571, 11.293 663.285, 9.956 653 C 7.886 637.077, 7.787 634.374, 8.855 623 C 10.855 601.689, 16.275 581.470, 24.266 565.500 C 34.949 544.153, 47.737 531.617, 74.237 516.515 C 93.344 505.626, 97.251 500.445, 103.993 477.056 C 108.851 460.205, 110.777 456.034, 115.295 452.589 C 121.423 447.914, 125.703 446.820, 141.488 445.888 C 159.742 444.811, 180.223 442.456, 188.972 440.427 C 205.111 436.684, 212.021 428.133, 221.898 399.684 C 227.596 383.273, 227.540 378.314, 221.490 363.506 C 215.831 349.652, 215.545 348.010, 216.949 337.458 C 218.933 322.549, 223.528 313.461, 236.395 299 C 245.199 289.105, 249 281.542, 249 273.917 C 249 267.007, 246.411 263.256, 239.077 259.539 C 225.732 252.777, 210.086 251.818, 187.243 256.363 C 166.820 260.426, 153.977 259.797, 148.992 254.491 C 141.996 247.045, 129.784 221.512, 120.658 195.253 C 115.261 179.722, 114.376 177.899, 109.475 172.213 C 102.484 164.101, 92.134 158.200, 74.253 152.130 C 55.202 145.662, 22.513 128.525, 16.471 121.836 C 14.483 119.635, 12.412 115.785, 11.465 112.528 C 9.526 105.857, 10.338 98.930, 14.873 83.462 C 16.480 77.983, 19.382 68.070, 21.322 61.432 C 23.262 54.795, 26.021 43.770, 27.454 36.932 C 30.674 21.563, 33.253 16.131, 41.623 7.090 L 48.187 0 31.344 0.011 L 14.500 0.022 7.250 6.594 M 45.101 7.750 C 36.588 16.430, 32.929 23.013, 31.066 33 C 29.190 43.057, 25.303 58.095, 20.467 74 C 10.755 105.939, 10.681 112.176, 19.903 121 C 27.627 128.390, 58.257 143.927, 78.904 150.928 C 90.347 154.808, 94.632 156.920, 102.788 162.700 C 110.035 167.835, 116.126 175.069, 118.382 181.221 C 119.245 183.575, 122.262 191.800, 125.086 199.500 C 135.927 229.051, 147.967 251.759, 154.500 254.978 C 159.063 257.226, 172.421 256.645, 188.408 253.503 C 200.396 251.146, 203.985 250.837, 214.408 251.264 C 227.886 251.815, 233.824 253.317, 241.919 258.219 C 249.962 263.090, 251.504 265.687, 251.481 274.327 C 251.464 280.502, 251.009 282.335, 248.211 287.500 C 246.423 290.800, 241.776 297.100, 237.884 301.500 C 224.475 316.658, 219.607 327.671, 219.541 343 C 219.502 352.069, 219.696 352.945, 223.832 362.313 C 230.355 377.089, 230.536 382.807, 224.994 399.028 C 217.183 421.893, 212.047 431.055, 203.625 437.157 C 195.783 442.838, 179.100 446.076, 147.500 448.052 C 115.711 450.040, 114.082 451.294, 105.998 480 C 104.217 486.325, 101.643 493.713, 100.278 496.417 C 96.380 504.142, 88.710 511.475, 78.568 517.171 C 44.252 536.448, 29.847 552.844, 19.514 584.388 C 11.476 608.927, 9.627 631.575, 13.383 659.500 C 14.512 667.895, 15.363 680.907, 15.508 692 C 15.804 714.723, 16.674 718.669, 22.864 725.342 C 28.609 731.535, 35.284 733.309, 59.042 734.958 C 75.810 736.121, 79.187 736.659, 84 738.932 C 85.925 739.841, 97.312 747.914, 109.305 756.872 C 121.297 765.831, 133.672 774.343, 136.805 775.788 C 146.386 780.209, 156.542 780.061, 188.394 775.035 C 214.762 770.875, 214.996 770.857, 220.727 772.503 C 229.174 774.930, 236.715 782.981, 244.410 797.787 C 251.037 810.536, 255.946 815.721, 264.353 818.848 C 278.738 824.200, 285.762 823.019, 331.872 807.493 C 379.123 791.582, 385.321 790.644, 404 796.584 C 412.786 799.377, 417.247 801.921, 419.565 805.458 C 422.866 810.496, 418.733 815.050, 391 836.935 C 378.870 846.507, 374.929 850.974, 370.653 860 C 366.810 868.112, 366.110 878.728, 368.130 898.259 C 368.884 905.541, 369.485 915.591, 369.466 920.590 C 369.435 928.787, 369.113 930.329, 366.184 936.278 C 364.397 939.907, 361.487 944.097, 359.718 945.589 C 357.948 947.081, 348.363 952.280, 338.419 957.142 C 310.444 970.821, 303.544 976.401, 295.003 992.250 L 290.826 1000 299.298 1000 C 307.220 1000, 307.876 999.838, 309.400 997.513 C 313.120 991.834, 324.081 988.673, 345.500 987.100 C 360.600 985.991, 367.220 984.431, 376.334 979.831 C 387.360 974.266, 394.333 965.402, 396.982 953.582 C 397.645 950.621, 397.933 934.117, 397.765 908.700 L 397.500 868.500 401.206 860.919 C 406.250 850.603, 415.747 840.495, 426.498 834.001 C 450.019 819.794, 463.454 807.876, 466.015 798.948 C 467.098 795.170, 465.536 783.480, 463.627 781.087 C 460.766 777.501, 447.241 774.103, 429.500 772.513 C 415.616 771.268, 391.150 775.414, 367.498 783.018 C 318.332 798.824, 289.391 801.889, 272.219 793.107 C 266.465 790.165, 259.555 783.585, 252.290 774.131 C 243.380 762.536, 239.213 758.198, 234.790 755.915 C 230.292 753.593, 227.459 753.510, 223.500 755.583 C 219.233 757.818, 196.309 760.992, 184.500 760.984 C 169.568 760.973, 159.827 757.659, 148 748.568 C 115.996 723.966, 89.103 709.373, 62.411 702.126 C 52.274 699.374, 45.514 690.195, 42.433 675 C 40.891 667.394, 40.835 664.607, 41.897 648.500 C 43.429 625.267, 45.504 609.255, 48.114 600.516 C 53.119 583.758, 67.620 550.570, 73.155 543.203 C 78.464 536.138, 87.645 528.770, 99.552 522.020 C 108.678 516.845, 109.562 516.060, 112.699 510.342 C 114.550 506.970, 116.734 500.902, 117.554 496.856 C 122.389 473.002, 137.831 460, 161.325 460 C 171.484 460, 183.482 458.183, 201 453.991 C 210.075 451.819, 219.087 449.806, 221.026 449.518 C 230.838 448.058, 238.825 435.388, 244.593 412.132 C 246.981 402.504, 247.170 400.366, 246.595 389.500 C 245.891 376.177, 243.857 360.505, 241.529 350.468 C 239.360 341.118, 239.610 337.328, 242.842 330.500 C 246.249 323.305, 255.325 313, 258.255 313 C 259.385 313, 262.029 311.192, 264.131 308.983 C 271.910 300.806, 275.207 279.380, 270.318 268.783 C 265.793 258.975, 254.729 249.848, 236 240.473 C 228.627 236.782, 222.135 234.621, 207 230.823 C 182.717 224.729, 172.926 221.780, 164.665 218.074 C 147.307 210.286, 141.231 197.156, 140.339 165.500 C 140.075 156.150, 139.404 147.306, 138.848 145.846 C 138.215 144.185, 134.699 141.103, 129.452 137.611 C 124.840 134.542, 120.302 130.864, 119.367 129.437 C 117.088 125.960, 117.227 119.510, 119.700 113.933 C 122.136 108.441, 131.688 98.005, 139.318 92.500 C 151.209 83.921, 153.713 75.256, 153.047 45 C 152.799 33.725, 152.574 18.987, 152.548 12.249 L 152.500 -0.002 102.601 -0.001 L 52.702 0 45.101 7.750 M 155.778 1.250 C 155.655 1.938, 155.543 18.025, 155.528 37 C 155.490 83.938, 156.646 80.570, 133.336 101.646 C 123.921 110.158, 119.386 117.828, 120.329 123.641 C 121.076 128.244, 122.504 129.764, 131.851 135.909 C 136.058 138.674, 140.156 141.964, 140.958 143.219 C 142.036 144.904, 142.586 150.462, 143.065 164.500 C 143.960 190.701, 147.001 201.251, 156.003 209.383 C 162.979 215.686, 173.842 219.686, 205.110 227.465 C 223.041 231.926, 228.487 233.725, 237.110 238.034 C 257.108 248.029, 267.786 256.855, 272.498 267.282 C 275.659 274.278, 276.358 280.118, 275.025 288.396 C 272.660 303.090, 267.909 311.824, 260.571 314.970 C 255.407 317.183, 248.540 324.731, 245.270 331.787 C 242.433 337.908, 242.489 340.926, 245.771 359 C 246.920 365.325, 248.384 376.913, 249.024 384.752 C 250.118 398.136, 250.055 399.627, 247.997 409.239 C 242.254 436.064, 232.746 450.851, 220.167 452.522 C 217.600 452.864, 208.300 454.884, 199.500 457.012 C 181.847 461.280, 179.233 461.682, 160.803 462.960 C 145.367 464.030, 138.494 466.626, 131.608 473.987 C 125.854 480.139, 123.472 484.966, 120.452 496.588 C 116.176 513.045, 112.312 518.688, 101.603 524.113 C 87.062 531.479, 75.730 542.054, 70.180 553.436 C 59.940 574.438, 49.830 601.645, 48.084 612.899 C 46.394 623.789, 44.008 652.339, 44.022 661.500 C 44.046 676.800, 48.676 690.363, 55.705 695.724 C 57.496 697.090, 63.132 699.450, 68.231 700.969 C 88.792 707.094, 109.110 717.468, 131.477 733.262 C 140.840 739.873, 149.805 746.371, 151.399 747.702 C 160.396 755.212, 174.917 759.516, 188 758.551 C 201.163 757.581, 218.193 754.888, 221.379 753.274 C 222.962 752.472, 226.122 751.787, 228.401 751.753 C 236.641 751.628, 240.828 755.047, 256.201 774.452 C 269.005 790.614, 277.708 795, 296.974 795 C 314.052 795, 332.248 791.282, 364 781.307 C 388.568 773.588, 401.581 770.968, 418.500 770.335 C 441.037 769.492, 461.464 773.646, 466.192 780.033 C 467.520 781.828, 468.241 785.042, 468.666 791.062 C 469.194 798.545, 469.005 800.071, 467.076 803.850 C 463.192 811.464, 449.155 823.278, 430.021 835.036 C 418.044 842.396, 408.560 852.080, 403.756 861.855 L 400.500 868.480 400.492 910.490 C 400.485 951.718, 400.442 952.624, 398.184 959.181 C 394.099 971.041, 388.067 977.235, 374.500 983.496 C 365.065 987.850, 359.956 988.962, 344.572 990.006 C 325.642 991.290, 315.887 993.817, 312.061 998.427 C 310.878 999.852, 313.752 1000, 342.628 999.997 C 373.435 999.995, 374.811 999.912, 383.799 997.504 C 400.430 993.048, 407.048 988.706, 411.998 979.004 C 415.341 972.451, 416.969 963.272, 416.985 950.895 C 417.003 936.908, 418.552 916.822, 420.452 905.937 C 423.295 889.654, 434.974 871.063, 455 850.940 C 463.701 842.197, 470.619 836.317, 477.764 831.592 C 487.970 824.841, 493.921 818.969, 495.942 813.653 C 496.524 812.122, 497.003 808.087, 497.007 804.685 C 497.011 801.283, 497.679 794.225, 498.491 789 C 502.471 763.400, 502.556 761.780, 500.179 756.869 C 496.310 748.877, 486.415 745.631, 473 747.955 C 469.425 748.575, 458.817 749.704, 449.427 750.465 C 435.247 751.613, 428.977 752.692, 412.427 756.829 C 393.723 761.506, 361.580 768.813, 343.500 772.500 C 319.481 777.398, 298.461 775.836, 283.052 768.009 C 275.657 764.252, 271.184 760.872, 260.808 751.201 C 256.027 746.745, 250.340 742.194, 248.170 741.087 C 243.639 738.775, 235.750 737.427, 221.500 736.530 C 205.576 735.528, 195.948 734.022, 189.500 731.527 C 186.200 730.250, 181.651 728.985, 179.392 728.717 C 173.082 727.967, 168.972 725.590, 151.220 712.425 C 142.190 705.729, 130.684 698.090, 125.651 695.450 C 107.628 685.997, 99.001 673.277, 87.418 639.075 C 81.894 622.763, 81.863 622.606, 82.958 616.319 C 85.429 602.131, 96.980 575.810, 112.986 547.893 C 124.236 528.270, 131.520 518.393, 143.991 505.849 C 162.086 487.648, 178.303 478.778, 200.244 475.085 C 212.384 473.041, 222.423 470.054, 228 466.826 C 243.969 457.584, 251.330 446.950, 261.105 419 L 265.477 406.500 265.486 388.500 C 265.490 378.600, 265.271 364.875, 264.997 358 L 264.500 345.500 267.771 338.836 C 272.863 328.459, 280.102 323.350, 298 317.504 C 308.463 314.086, 311.607 312.528, 314.637 309.257 C 319.026 304.522, 317.058 297.382, 308.504 287 C 306.012 283.975, 302.626 279.496, 300.981 277.046 L 297.989 272.592 298.644 261.818 L 299.298 251.045 294.232 242.773 C 288.447 233.326, 284.079 222.808, 281.498 212.107 C 280.517 208.041, 278.903 203.903, 277.910 202.910 C 275.336 200.336, 270.360 199.299, 255 198.136 C 232.259 196.415, 225.537 193.118, 219.600 180.774 C 217.447 176.298, 215.655 170.592, 214.959 165.992 C 213.364 155.461, 212.106 153.690, 201 146.346 C 189.755 138.910, 184.737 132.038, 183.446 122.307 C 181.830 110.122, 187.374 98.943, 198.024 92.916 C 201.507 90.945, 205.395 87.818, 206.663 85.967 C 209.910 81.229, 212.565 72.445, 214.966 58.500 C 217.922 41.335, 220.923 35.721, 235.815 19.500 C 242.380 12.350, 249.832 5.197, 252.375 3.605 C 254.919 2.013, 257 0.550, 257 0.355 C 257 0.160, 234.275 0, 206.500 0 C 166.885 0, 155.952 0.269, 155.778 1.250 M 259.399 2.590 C 251.784 6.616, 248.770 9.246, 237.173 21.988 C 223.322 37.206, 220.698 42.267, 217.431 60.053 C 213.137 83.438, 210.299 89.121, 200.024 94.919 C 189.784 100.695, 185.080 109.795, 186.287 121.489 C 187.269 131.007, 191.516 136.729, 203.574 144.780 C 210.450 149.371, 215.768 154.965, 216.395 158.268 C 216.628 159.496, 217.297 163.425, 217.881 167 C 218.464 170.575, 220.418 176.406, 222.221 179.958 C 227.932 191.206, 235.115 194.306, 259.179 195.908 C 274.156 196.904, 279.173 198.478, 281.424 202.885 C 282.158 204.323, 283.714 209.325, 284.881 214 C 286.853 221.904, 291.684 232.763, 299.116 246 C 302.179 251.455, 302.199 251.586, 301.561 262.044 L 300.919 272.588 303.917 276.544 C 305.566 278.720, 309.179 283.425, 311.945 287 C 316.529 292.923, 320 300.153, 320 303.777 C 320 307.139, 316.496 312.209, 312.620 314.455 C 310.354 315.768, 303.925 318.425, 298.332 320.359 C 280.023 326.691, 274.076 330.983, 269.507 341.163 C 266.856 347.070, 266.759 347.829, 267.365 357.925 C 269.833 399.073, 269.442 404.223, 262.390 423.377 C 256.414 439.608, 255.115 442.506, 250.912 448.977 C 240.464 465.061, 225.786 473.562, 201.500 477.592 C 179.721 481.206, 163.685 489.943, 145.962 507.852 C 133.320 520.626, 126.076 530.525, 114.751 550.500 C 96.339 582.977, 85 609.731, 85 620.699 C 85 625.307, 96.322 656.816, 101.800 667.450 C 108.006 679.501, 115.567 687.113, 127.601 693.424 C 132.606 696.049, 143.631 703.376, 152.101 709.707 C 168.896 722.260, 175.300 726, 179.997 726 C 181.682 726, 185.634 727.074, 188.780 728.386 C 195.838 731.330, 204.134 732.681, 223.500 734.038 C 246.734 735.667, 249.005 736.579, 263.897 750.262 C 269.513 755.421, 276.562 761.130, 279.562 762.948 C 292.681 770.899, 309.504 774.150, 327.411 772.195 C 339.343 770.892, 373.792 763.599, 408.500 755.028 C 429.202 749.915, 435.111 748.867, 451.500 747.396 C 484.371 744.447, 488.352 744.448, 494.398 747.406 C 500.121 750.207, 503.312 754.668, 504.310 761.268 C 504.626 763.354, 503.795 771.832, 502.449 780.268 C 501.111 788.645, 500.013 799.002, 500.009 803.282 C 499.994 816.665, 495.593 823.235, 479.713 833.582 C 461.196 845.647, 437.633 871.776, 428.458 890.418 C 422.818 901.877, 420.002 920.602, 420.001 946.662 C 420 965.984, 417.499 976.744, 410.800 986.252 C 407.666 990.700, 402.388 994.150, 394.184 997.113 L 386.500 999.888 415.750 999.944 L 445 1000 445 997.404 C 445 995.976, 444.063 986.922, 442.919 977.285 C 440.736 958.912, 441.001 956.254, 444.778 958.627 C 446.168 959.501, 446.962 963.597, 448.896 979.855 L 451.292 1000 463.554 1000 L 475.817 1000 473.917 993.750 C 472.427 988.851, 471.826 982.313, 471.134 963.500 C 469.490 918.833, 471.876 907.667, 485.796 894.900 C 497.614 884.061, 509.320 879.218, 528.789 877.113 C 534.448 876.501, 553.798 875.991, 571.789 875.979 C 613.447 875.953, 621 874.581, 621 867.041 C 621 858.999, 602.528 841.692, 582.981 831.421 C 574.292 826.854, 569.545 822.072, 567.030 815.349 C 565.220 810.513, 562.772 795.777, 561.298 780.851 C 560.217 769.898, 564.810 747.977, 572.958 725.205 C 578.714 709.119, 578.530 702.578, 572.128 695.661 C 563.718 686.574, 545.661 684.743, 511.493 689.511 C 486.375 693.016, 467.933 698.551, 446.500 709.016 C 435.062 714.602, 435.397 714.515, 404.074 719.969 C 391.189 722.212, 375.664 725.198, 369.574 726.604 C 350.943 730.906, 328.298 729.747, 310.171 723.565 C 300.820 720.376, 297.094 718.041, 292.597 712.552 C 287.800 706.699, 281.159 703.687, 263.704 699.450 C 237.080 692.986, 233.498 691.942, 226.309 688.549 C 215.525 683.459, 207.616 677.691, 196.148 666.554 C 184.690 655.425, 182.162 651.758, 178.458 640.894 C 174.283 628.646, 168.773 600.352, 169.312 593.924 C 170.361 581.392, 187.438 554.225, 204.273 538.303 C 212.326 530.687, 227.956 520.835, 244.736 512.797 C 252.856 508.908, 261.482 504.368, 263.904 502.709 C 270.343 498.298, 278.587 489.729, 289.280 476.332 C 294.474 469.824, 299.956 463.375, 301.461 462 C 302.966 460.625, 305.282 457.371, 306.606 454.769 C 311.259 445.628, 312.146 439.285, 312.938 409.500 C 313.917 372.635, 313.835 372.871, 334.203 348.415 C 343.567 337.172, 353.043 328.596, 361.228 323.956 C 364.666 322.007, 368.467 318.947, 369.674 317.156 C 372.511 312.945, 373.548 304.401, 372.164 296.638 C 371.562 293.262, 370.329 286.450, 369.425 281.500 C 366.983 268.129, 367.874 249.441, 371.524 237.500 C 376.036 222.737, 376.873 216.585, 377.035 197 C 377.185 178.852, 377.130 178.335, 374.192 169.853 C 372.544 165.097, 369.163 157.319, 366.677 152.570 C 360.730 141.203, 360.495 142.078, 375.393 120.012 C 389.989 98.393, 395.490 94.028, 409.164 93.211 C 417.666 92.703, 427.374 95.037, 434.195 99.229 C 439.616 102.561, 475.938 136.006, 503.500 163.044 C 523.143 182.314, 529.497 187.903, 538.500 193.831 C 550.504 201.733, 563.182 208.335, 575.252 212.966 C 589.728 218.521, 599.708 226.640, 604.798 237 C 607.380 242.255, 607.497 243.167, 607.443 257.500 C 607.394 270.460, 606.952 274.522, 604.193 287.374 C 600.039 306.725, 600.077 309.682, 604.599 318.500 C 609.377 327.818, 625.494 352.081, 633.326 361.746 C 649.071 381.176, 656 396.686, 656 412.500 C 656 426.108, 650.929 438.110, 619.030 500 C 613.503 510.725, 608.323 521.750, 607.520 524.500 C 604.519 534.774, 601.676 553.658, 601.648 563.500 C 601.623 572.392, 601.936 574.199, 604.475 579.813 C 607.761 587.079, 613.020 592.125, 619.901 594.612 C 622.430 595.527, 632.934 599.589, 643.243 603.640 C 671.094 614.583, 679.823 615.275, 692.114 607.514 C 695.481 605.388, 697.855 604.466, 698.446 605.053 C 699.613 606.211, 697.286 608.088, 690.422 611.524 C 680.169 616.657, 669.831 616.525, 655.194 611.072 C 631.015 602.064, 613.675 594.854, 610.660 592.554 C 599.377 583.949, 596.488 568.621, 601.066 541.663 C 604.064 524.004, 605.286 520.471, 614.740 502.101 C 636.038 460.717, 647.963 436.579, 649.972 430.783 C 651.170 427.327, 652.404 420.806, 652.714 416.292 C 653.933 398.514, 648.335 384.737, 631.402 363.839 C 624.173 354.918, 607.872 330.614, 602.333 320.500 C 598.833 314.108, 598.503 312.849, 598.539 306 C 598.563 301.530, 599.673 293.774, 601.286 286.800 C 602.775 280.366, 604.532 269.723, 605.189 263.150 C 606.252 252.513, 606.193 250.502, 604.647 244.850 C 600.706 230.444, 590.504 221.370, 569.254 213.371 C 559.305 209.626, 550.486 204.873, 537 195.985 C 526.286 188.925, 521.428 184.707, 503 166.465 C 468.499 132.312, 436.547 103.439, 429.500 100.047 C 414.310 92.736, 399.352 94.477, 389.851 104.661 C 386.108 108.674, 368.042 135.656, 366.288 139.853 C 364.862 143.266, 364.932 143.543, 369.350 151.923 C 371.837 156.640, 375.226 164.550, 376.882 169.500 L 379.892 178.500 379.515 199.500 C 379.117 221.584, 379.418 219.613, 372.795 243.500 C 369.962 253.719, 370.058 272.131, 373.016 286 C 376.707 303.299, 375.781 315.165, 370.265 321.260 C 369.353 322.268, 365.882 324.534, 362.553 326.295 C 351.724 332.023, 327.356 358.373, 320.731 371.517 C 316.167 380.573, 315.694 384.081, 315.480 410.500 C 315.203 444.728, 313.081 453.733, 302.682 464.817 C 299.749 467.943, 293.697 475, 289.233 480.500 C 272.653 500.926, 268.149 504.584, 247.310 514.544 C 232.003 521.860, 216.718 531.170, 207.823 538.596 C 198.186 546.641, 179.420 572.575, 174.397 584.787 C 171.286 592.352, 171.384 597.645, 174.960 615.302 C 181.003 645.141, 183.332 650.113, 197.906 664.300 C 215.147 681.084, 226.777 687.766, 247 692.509 C 282.466 700.826, 286.476 702.354, 294.602 710.641 C 301.389 717.563, 305.751 719.875, 317.832 722.953 C 336.712 727.763, 351.324 727.926, 370.500 723.540 C 376.550 722.156, 392.075 719.211, 405 716.995 C 434.876 711.873, 433.602 712.208, 446 706.239 C 459.618 699.682, 479.024 692.751, 491 690.166 C 505.040 687.135, 531.156 683.981, 542 684.007 C 561.683 684.054, 573.979 689.523, 578.447 700.218 C 581.145 706.676, 580.395 711.880, 574.046 730.778 C 564.556 759.025, 562.572 772.254, 565.091 790.500 C 568.792 817.306, 570.339 820.803, 581.275 827.101 C 601.825 838.937, 615.861 850.343, 621.088 859.456 C 624.497 865.399, 624.739 868.791, 622.002 872.271 C 617.680 877.765, 614.327 878.180, 567.500 879.015 C 522.744 879.814, 518.230 880.237, 506.400 884.749 C 494.050 889.459, 480.791 901.597, 477.037 911.630 C 473.362 921.454, 472.509 934.654, 473.749 962.548 C 474.557 980.717, 475.343 989.199, 476.642 993.750 L 478.425 1000 491.712 1000 C 499.021 1000, 505 999.801, 505 999.557 C 505 999.313, 502.288 994.926, 498.973 989.807 C 491.114 977.670, 484.477 963.931, 483.037 956.818 C 480.674 945.146, 484.070 940.451, 504.436 927.243 C 511.621 922.583, 521.381 915.894, 526.124 912.378 C 536.392 904.768, 546.583 899.889, 557.500 897.356 C 564.470 895.739, 568.655 895.556, 590 895.933 C 643.038 896.871, 657.953 896.628, 666.208 894.691 C 675.769 892.447, 685.314 887.773, 687.981 884.027 C 690.914 879.907, 690.608 874.340, 687.151 868.946 C 683.353 863.018, 682.944 862.711, 664.508 851.982 C 644.550 840.368, 634.716 835.681, 624.500 832.914 C 602.353 826.915, 603.055 827.215, 597.014 821.174 C 593.476 817.635, 590.127 812.958, 588.117 808.745 C 584.127 800.385, 580.161 783.439, 579.401 771.500 C 578.764 761.509, 577.848 765.382, 591.451 720.531 C 595.116 708.447, 599.326 696.313, 600.807 693.566 C 606.702 682.631, 624.939 667.857, 647 656.143 C 661.599 648.391, 693.757 635, 697.775 635 C 701.838 635, 696.908 637.706, 683.980 642.572 C 646.001 656.868, 614.662 676.847, 604.091 693.500 C 602.345 696.250, 599.990 701.650, 598.857 705.500 C 597.724 709.350, 593.704 722.625, 589.924 735 C 580.338 766.385, 580.504 765.314, 582.986 779.573 C 586.598 800.332, 590.133 809.595, 597.622 817.925 C 602.974 823.877, 606.269 825.478, 620.387 828.982 C 634.202 832.412, 640.723 835.149, 655.696 843.801 C 662.188 847.553, 671.199 852.765, 675.720 855.382 C 684.307 860.353, 687.778 863.685, 691.048 870.094 C 697.208 882.168, 689.418 891.135, 667.500 897.203 C 659.953 899.292, 657.942 899.397, 632 899.050 C 572.665 898.258, 564.999 898.383, 556.957 900.272 C 546.862 902.644, 538.324 906.822, 528.036 914.427 C 523.341 917.897, 512.882 925.070, 504.793 930.367 C 481.980 945.306, 480.652 949.468, 491.677 971.500 C 494.154 976.450, 499.055 984.887, 502.568 990.250 L 508.955 1000 519.094 1000 C 529.122 1000, 529.227 999.975, 528.627 997.750 C 526.436 989.625, 525.658 978.507, 526.702 970.244 C 528.410 956.731, 534.577 940.548, 540.950 932.858 C 547.595 924.839, 562.888 917.154, 582.379 912.040 C 599.096 907.654, 610.995 906.142, 641.636 904.513 C 672.192 902.888, 695.527 901.185, 698.250 900.382 C 699.371 900.051, 700 900.407, 700 901.371 C 700 902.387, 698.617 903.063, 695.750 903.446 C 688.186 904.459, 667.012 905.940, 645 906.997 C 601.099 909.105, 580.132 913.067, 559.254 923.203 C 544.947 930.149, 537.704 939.355, 531.846 958.043 C 529.919 964.188, 529.507 967.699, 529.504 978 C 529.502 985.678, 530.032 992.332, 530.880 995.250 L 532.260 1000 542.993 1000 L 553.727 1000 552.760 994.750 C 552.228 991.863, 551.977 984.533, 552.203 978.463 C 552.563 968.750, 552.976 966.650, 555.643 960.963 C 557.309 957.408, 561.109 951.850, 564.086 948.611 C 567.064 945.372, 571.104 940.423, 573.065 937.614 C 579.165 928.876, 589.831 925.128, 614.950 922.894 C 630.101 921.547, 674.236 922.225, 689.250 924.035 C 699.687 925.294, 700 925.404, 700 927.818 L 700 930.305 688.250 929.402 C 681.788 928.906, 661.200 928.513, 642.500 928.530 C 613.852 928.555, 607.084 928.843, 599.503 930.358 C 586.469 932.964, 581.521 935.365, 577.786 940.896 C 576.076 943.428, 572.327 947.999, 569.454 951.054 C 559.214 961.945, 555.752 973.333, 557.862 989.182 C 558.531 994.207, 559.313 998.697, 559.598 999.159 C 559.884 999.622, 566.329 1000, 573.920 1000 L 587.722 1000 584.347 991.016 C 576.485 970.085, 579.900 957.355, 595.308 950.153 C 607.635 944.390, 618.230 943.114, 662.500 942.056 C 681.200 941.609, 697.288 940.916, 698.250 940.515 C 699.460 940.011, 700 940.246, 700 941.276 C 700 942.096, 698.763 943.064, 697.250 943.427 C 695.737 943.790, 678.750 944.481, 659.500 944.961 C 624.352 945.839, 614.162 946.693, 604.030 949.609 C 592.971 952.793, 586.493 957.946, 583.981 965.559 C 581.771 972.254, 584.378 986.795, 589.662 997.250 L 591.051 1000 607.881 1000 L 624.711 1000 625.269 992.631 C 625.934 983.832, 628.245 978.818, 634.054 973.570 C 644.939 963.737, 663.794 959.246, 691.750 959.828 C 698.652 959.972, 700 960.267, 700 961.636 C 700 963.090, 698.852 963.196, 689.703 962.583 C 667.730 961.111, 646.311 966.315, 635.974 975.635 C 630.321 980.732, 628.050 985.910, 628.022 993.762 L 628 1000.025 664.250 999.762 L 700.500 999.500 700.671 916.500 C 700.765 870.850, 700.635 834.001, 700.383 834.614 C 700.093 835.317, 697.474 834.428, 693.296 832.209 C 689.651 830.274, 677.275 825.433, 665.795 821.452 C 643.872 813.850, 638.865 811.312, 634.496 805.584 C 627.838 796.854, 624.169 774.955, 625.351 751 C 626.420 729.357, 631.708 713.799, 642.399 700.849 C 649.071 692.768, 649.994 692.097, 677.250 675.500 L 700 661.647 700 605.429 L 700 549.211 696.315 550.042 C 691.006 551.239, 686.510 549.139, 685.191 544.847 C 684.625 543.006, 683.863 537.705, 683.497 533.067 C 682.613 521.882, 680.188 514.499, 674.160 504.650 C 664.567 488.974, 663.810 484.351, 665.200 449.918 C 665.676 438.106, 666.168 434.592, 667.789 431.418 C 669.928 427.228, 676.061 421.176, 690.795 408.714 L 700 400.929 700 404.822 C 700 408.538, 699.533 409.105, 689.750 417.253 C 684.112 421.949, 678.286 427.076, 676.803 428.646 C 671.939 433.793, 671.289 437.004, 670.557 459.500 C 669.754 484.154, 670.501 487.925, 678.882 501.527 C 685.153 511.704, 687.751 519.444, 689.021 531.736 C 690.444 545.497, 690.374 545.356, 695.315 544.566 C 697.576 544.204, 699.641 543.692, 699.906 543.427 C 700.705 542.628, 701.209 235, 700.445 213.890 L 699.736 194.281 686.633 184.890 C 666.001 170.104, 638.573 149.558, 625.776 139.304 C 614.374 130.167, 613.574 129.257, 596.656 106.157 C 587.089 93.093, 578.555 81.039, 577.691 79.370 C 576.828 77.701, 574.552 74.456, 572.634 72.160 C 560.003 57.042, 541.329 48.310, 514.500 44.974 C 495.539 42.617, 478.954 36.781, 465.192 27.623 C 457.020 22.185, 443.537 8.530, 441.481 3.609 L 439.973 -0 428.987 -0 L 418 0 418 2.790 C 418 7.172, 420.859 17.034, 423.262 20.943 C 433.226 37.146, 455.825 49.304, 488.403 55.986 C 509.407 60.295, 530.626 73.629, 540.937 89 C 542.966 92.025, 546.960 99.321, 549.813 105.213 C 557.384 120.851, 569.012 132.521, 582.078 137.596 C 584.510 138.541, 589.425 141.861, 593 144.975 C 607.948 157.995, 619.094 165.728, 637 175.500 C 649.753 182.460, 658.223 189.058, 665.708 197.862 C 676.966 211.105, 690.560 234.840, 688.224 237.176 C 687.483 237.917, 686.120 235.965, 683.654 230.627 C 681.721 226.444, 677.713 219.304, 674.746 214.761 C 662.911 196.636, 652.882 187.231, 635 177.490 C 616.546 167.436, 603.539 158.375, 592.500 147.879 C 588.856 144.415, 584.536 141.426, 581.500 140.269 C 574.707 137.680, 568.605 133.683, 562.156 127.599 C 555.235 121.068, 550.570 114.100, 544.347 101 C 533.724 78.633, 514.559 64.664, 485.500 58.105 C 457.429 51.770, 437.811 42.369, 426.571 29.868 C 419.580 22.092, 417.155 16.575, 415.530 4.750 L 414.877 0 398.439 0 C 389.397 0, 382 0.163, 382 0.363 C 382 0.563, 385.338 7.078, 389.417 14.842 C 404.080 42.748, 412.099 49.389, 447 62.528 C 479.871 74.903, 491.695 84.006, 531.603 127.662 C 551.496 149.422, 564.029 160.838, 579.188 171.004 C 587.506 176.581, 591.388 178.619, 611.428 187.931 C 634.350 198.581, 648.116 214.068, 651.011 232.462 C 653.817 250.299, 667.698 273.372, 691.132 299.156 C 695.460 303.918, 699 308.080, 699 308.406 C 699 312.297, 685.482 298.303, 672.043 280.500 C 658.092 262.019, 651.246 248.358, 648.483 233.483 C 646.421 222.379, 642.649 215.014, 635.150 207.446 C 627.921 200.151, 620.140 194.884, 609.206 189.885 C 574.498 174.018, 560.358 163.344, 530.535 130.500 C 521.046 120.050, 507.633 106.042, 500.728 99.371 C 482.034 81.311, 470.241 74.102, 442 63.473 C 410.433 51.592, 401.237 43.593, 386.378 15.083 L 378.516 0 321.407 -0 L 264.298 -0 259.399 2.590 M 443.806 2.006 C 445.198 5.768, 452.489 14.121, 459.185 19.625 C 474.169 31.942, 490.799 38.768, 513.842 42.059 C 540.363 45.847, 555.377 51.938, 568.575 64.264 C 572.697 68.113, 577.273 73.341, 578.743 75.881 C 580.214 78.422, 589.082 91.027, 598.451 103.893 C 617.470 130.011, 618.083 130.610, 651.500 155.647 C 665.453 166.102, 673.129 171.732, 695.250 187.734 L 700 191.170 700 95.585 L 700 0 679.487 0 L 658.973 0 660.414 3.447 C 663.881 11.747, 676.552 27.088, 681.142 28.545 C 683.643 29.339, 683.506 31, 680.940 31 C 676.419 31, 662.557 15.035, 657.862 4.420 L 655.906 -0 650.346 -0 C 645.421 0, 644.875 0.200, 645.565 1.750 C 646.259 3.309, 651.413 23.174, 652.537 28.624 C 653.542 33.496, 669.984 45.755, 689.250 55.996 C 698.137 60.720, 700.932 63, 697.833 63 C 693.993 63, 663.879 44.695, 656.442 37.839 C 650.626 32.479, 650.479 32.178, 647.922 20.372 C 646.746 14.943, 644.900 8.138, 643.820 5.250 L 641.856 0 624.361 0 L 606.866 0 610.299 4.250 C 612.187 6.588, 618.114 15.250, 623.470 23.500 C 638.985 47.398, 655.307 62.037, 684.750 78.464 C 694.124 83.694, 696.904 86, 693.835 86 C 691.835 86, 678.053 78.099, 664.500 69.183 C 646.520 57.355, 634.226 45.009, 622.492 27 C 617.654 19.575, 611.426 10.462, 608.652 6.750 L 603.608 -0 556.554 0.111 C 513.283 0.212, 509.942 0.339, 515 1.685 C 518.644 2.655, 528.616 3.377, 544.546 3.825 C 568.391 4.494, 568.638 4.524, 574.046 7.331 C 583.807 12.399, 595.199 21.272, 606.999 33 C 621.385 47.298, 630.030 58.714, 635.774 71 C 638.217 76.225, 641.746 82.381, 643.616 84.679 C 650.511 93.150, 666.489 101.871, 687.391 108.572 C 693.776 110.618, 699 112.677, 699 113.146 C 699 116.665, 670.406 106.628, 655.930 98.027 C 644.965 91.514, 639.663 85.622, 634.113 73.782 C 627.961 60.661, 619.544 49.352, 605.590 35.458 C 593.280 23.201, 583.772 15.725, 574 10.616 L 567.500 7.218 545 6.672 C 522.679 6.131, 513.695 5.010, 504.124 1.572 C 500.705 0.344, 495.568 0.009, 480.624 0.040 L 461.500 0.079 466.248 4.451 C 471.765 9.529, 480.547 13.254, 493 15.797 C 500.227 17.272, 501.500 17.830, 501.500 19.516 C 501.500 22.407, 496.050 22.566, 485.892 19.972 C 471.523 16.304, 461.150 10.059, 457.410 2.825 C 456.036 0.169, 455.564 -0, 449.507 -0 C 443.479 -0, 443.112 0.129, 443.806 2.006 M 342 17.937 C 340.625 18.358, 337.123 19.909, 334.217 21.385 C 317.146 30.053, 305.525 41.980, 299.353 57.170 C 295.261 67.241, 292.388 70.850, 274.415 88.500 C 255.061 107.507, 255.015 107.584, 255.006 121.283 C 254.997 132.952, 257.157 136.499, 274.926 154 C 287.669 166.550, 291.206 170.786, 301.229 185.500 C 326.072 221.971, 326 221.796, 326 245.595 C 326 267.818, 326.610 270.265, 334.259 278.705 C 341.566 286.768, 345.231 294.281, 345.231 301.199 C 345.231 308.008, 343.712 309.773, 328.402 320.755 C 308.948 334.709, 305.130 338.945, 297.896 354.602 C 295.748 359.253, 292.899 364.733, 291.566 366.779 C 287.818 372.534, 286.306 379.622, 283.519 404.500 C 280.961 427.337, 278.526 439.733, 275.055 447.599 C 274.060 449.853, 269.358 455.928, 264.607 461.099 C 256.018 470.445, 254.683 473.235, 258.534 473.790 C 259.993 474, 263.058 471.317, 269.650 464.062 C 282.888 449.492, 284.858 443.406, 289.460 402.858 C 290.873 390.405, 292.586 378.704, 293.265 376.856 C 296.605 367.767, 309.605 344.267, 313.735 339.852 C 316.204 337.213, 324.266 330.714, 331.649 325.411 C 339.033 320.108, 346.295 314.167, 347.787 312.209 C 350.190 309.055, 350.498 307.784, 350.484 301.074 C 350.464 291.443, 347.343 284.307, 339.601 276.191 C 336.586 273.030, 333.643 269.190, 333.060 267.657 C 332.457 266.073, 332 257.176, 332 247.040 C 332 232.133, 331.678 228.169, 330.034 222.855 C 325.851 209.339, 293.378 161.951, 281.500 152.031 C 273.811 145.609, 266.748 138.282, 263.767 133.634 C 260.645 128.766, 260.513 128.165, 260.804 120.104 C 260.971 115.464, 261.567 110.730, 262.129 109.584 C 262.690 108.438, 270.944 99.850, 280.469 90.500 L 297.789 73.500 304.067 60.542 C 309.603 49.118, 311.243 46.690, 317.923 40.027 C 330.484 27.499, 345.378 20.609, 354.473 23.120 C 359.530 24.516, 368.531 33.789, 378.653 48.030 C 383.137 54.338, 388.087 60.689, 389.653 62.143 C 396.601 68.592, 412.499 76.538, 438.103 86.358 C 457.800 93.913, 467.495 101.572, 507.567 141.237 C 535.652 169.035, 538.808 171.861, 540.444 170.665 C 541.862 169.628, 542.027 168.926, 541.207 167.421 C 539.514 164.310, 482.187 107.940, 474 101.334 C 462.124 91.752, 451.921 85.560, 441.324 81.502 C 416.404 71.958, 402.132 65.206, 395.732 59.931 C 393.700 58.255, 388.243 51.604, 383.607 45.150 C 367.715 23.024, 360.439 16.950, 350 17.095 C 346.975 17.137, 343.375 17.516, 342 17.937 M 554 29.774 C 554 30.200, 558.388 32.719, 563.750 35.372 C 577.587 42.217, 588.981 50.059, 595.409 57.163 C 598.458 60.532, 605.759 70.310, 611.635 78.894 C 630.853 106.967, 636.767 113.294, 650.759 120.749 C 663.747 127.669, 689.978 135.434, 688.841 132.022 C 688.613 131.338, 684.393 129.751, 679.463 128.494 C 662.119 124.075, 648.859 117.914, 639.163 109.770 C 633.384 104.916, 628.808 99.022, 613.646 76.894 C 607.764 68.310, 600.458 58.532, 597.409 55.163 C 591.105 48.196, 579.747 40.334, 566.270 33.607 C 557.401 29.180, 554 28.118, 554 29.774 M 448.500 167.869 C 442.815 170.462, 437.446 176.388, 433.404 184.529 C 430.359 190.663, 429.729 193.274, 428.463 205.029 C 425.647 231.180, 421.983 249.427, 414.074 276.686 C 404.735 308.872, 400.878 318.132, 389.574 335.500 C 383.537 344.775, 370.749 360.293, 365.278 364.982 C 355.525 373.341, 345.370 387.833, 342.113 398.040 C 339.484 406.281, 337.884 416.417, 336.990 430.500 C 335.303 457.082, 332.896 462.126, 308.869 489.423 C 296.116 503.912, 290.695 509.140, 273 524.019 C 244.733 547.787, 236.786 555.301, 229.330 565.306 C 210.909 590.026, 205.647 605.179, 210.513 619.500 C 216.157 636.112, 228.645 653.752, 239.762 660.818 C 242.368 662.474, 249.900 665.519, 256.500 667.584 C 272.424 672.566, 275.536 674.030, 283.096 680.095 C 293.149 688.160, 300.600 692.948, 309.381 696.987 C 323.333 703.404, 328.637 704.510, 345 704.419 C 383.237 704.205, 438.936 688.301, 484.488 664.590 C 506.992 652.877, 512.294 651.137, 529.358 649.869 C 545.712 648.654, 555.136 646.468, 564.636 641.683 C 584.835 631.511, 596.021 616.183, 592.043 604.129 C 590.766 600.262, 586.633 594.359, 576.205 581.511 C 565.109 567.841, 561.940 558.801, 564.105 547 C 565.023 541.995, 568.827 533.483, 580.639 510 C 589.076 493.225, 598.922 474.550, 602.517 468.500 C 611.885 452.735, 613.518 446.897, 613.425 429.500 C 613.360 417.245, 613.010 414.378, 610.619 406.500 C 607.218 395.291, 601.201 382.625, 588.293 359.500 C 577.022 339.308, 574.559 333.250, 575.493 328.016 C 575.838 326.082, 578.103 318.186, 580.527 310.469 C 587.980 286.736, 590.303 275.805, 590.403 264 C 590.547 246.953, 587.678 243.954, 559.247 231.436 C 533.114 219.930, 528.343 217.694, 521.866 213.917 C 512.888 208.680, 507.177 202.884, 499.556 191.273 C 489.126 175.383, 487.100 173.671, 473.233 169.025 C 462.624 165.470, 454.581 165.094, 448.500 167.869 M 453.358 168.954 C 446.284 170.641, 440.331 176.411, 435.256 186.500 C 432.696 191.589, 432.338 193.421, 430.460 211 C 426.756 245.682, 411.557 302.206, 400.373 322.895 C 391.582 339.157, 375.705 360.135, 366.764 367.302 C 360.605 372.238, 351.014 384.740, 347.390 392.556 C 343.313 401.350, 340.335 416.605, 339.593 432.500 C 338.587 454.046, 335.109 462.542, 319.717 481.048 C 304.118 499.805, 295.168 508.881, 278.056 523.295 C 239.919 555.422, 231.635 564.077, 220.054 583.907 C 215.680 591.396, 211 604.235, 211 608.745 C 211 618.609, 221.157 638.784, 231.958 650.373 C 239.176 658.117, 243.883 660.714, 260.523 666.134 C 273.344 670.310, 277.105 671.992, 281.799 675.647 C 295.700 686.474, 300.044 689.390, 308.500 693.575 C 313.450 696.024, 321.317 698.980, 325.983 700.144 C 351.105 706.410, 407.228 695.523, 456.500 674.824 C 463.100 672.052, 476.825 665.554, 487 660.386 C 497.175 655.217, 508.200 650.286, 511.500 649.426 C 514.800 648.567, 523.575 647.475, 531 646.999 C 539.948 646.426, 546.860 645.399, 551.500 643.953 C 572.643 637.361, 588.804 623.320, 589.717 610.748 C 590.187 604.281, 587.735 599.768, 576.541 586.500 C 572.364 581.550, 567.272 574.149, 565.224 570.052 C 562.085 563.775, 561.445 561.389, 561.147 554.870 C 560.725 545.615, 561.824 541.880, 570.162 524.240 C 577.565 508.576, 594.657 476.122, 601.098 465.500 C 608.435 453.399, 610.170 447.613, 610.746 433.330 C 611.647 410.963, 606.772 397.208, 583.720 357.068 C 570.999 334.918, 570.673 332.472, 577.549 310.822 C 586.564 282.440, 589.706 263.871, 587.107 254.341 C 585.059 246.836, 578.176 242.624, 541.916 226.691 C 515.790 215.210, 508.420 209.701, 498.191 194 C 488.821 179.619, 487.248 177.984, 479.199 174.266 C 475.144 172.392, 468.828 170.224, 465.163 169.447 C 457.810 167.888, 457.824 167.889, 453.358 168.954 M 588.667 194.667 C 586.294 197.039, 588.848 199.349, 604.529 209.018 C 628.652 223.891, 629.263 225.018, 629.181 254.500 C 629.122 275.470, 630.077 281.843, 634.832 292.230 C 637.726 298.550, 653.624 324.085, 659.283 331.500 C 665.243 339.311, 673.576 347.157, 679 350.065 C 682.025 351.687, 688.015 355.960, 692.310 359.561 L 700.120 366.108 699.810 361.877 C 699.521 357.937, 699.018 357.278, 692.508 352.322 C 688.662 349.394, 683.951 346.256, 682.038 345.348 C 673.882 341.477, 665.813 331.931, 651.131 308.780 C 635.633 284.342, 635.036 282.316, 634.658 252.843 C 634.257 221.587, 633.240 219.793, 606.769 203.614 C 590.993 193.972, 589.901 193.432, 588.667 194.667 M 36 212.019 C 32.425 212.494, 23.087 213.865, 15.250 215.064 L 1 217.244 1 226.122 C 1 235.319, 1.344 235.957, 5.193 233.897 C 6.327 233.290, 10.753 232.183, 15.028 231.436 C 24.533 229.777, 32.726 230.841, 40.910 234.798 C 48.443 238.439, 61.110 251.174, 68.466 262.500 C 78.452 277.876, 80.054 279.427, 91.705 285.006 C 97.464 287.763, 106.749 293.112, 112.338 296.893 C 127.520 307.162, 128.048 307.371, 135.466 306.079 C 144.371 304.529, 150.850 305.982, 153.007 310.014 C 154.528 312.856, 152.514 316.051, 143.098 325.733 C 133.465 335.637, 132.071 338.993, 133.968 347.710 C 136.068 357.358, 136.248 358.875, 135.600 361.458 C 134.413 366.187, 132.596 366.466, 99.500 367 L 68.500 367.500 68.170 369.830 C 67.749 372.804, 71.531 378.515, 79.637 387.146 C 83.137 390.872, 86 394.760, 86 395.786 C 86 398.826, 82.710 401.007, 57 415.005 C 15.157 437.788, 14.455 438.283, 9.115 448.768 C 7.919 451.116, 6.547 456.168, 6.067 459.994 C 5.570 463.955, 4.290 468.412, 3.097 470.344 C 1.414 473.066, 1 475.355, 1 481.935 C 1 489.718, 1.103 490.102, 3.028 489.491 C 4.144 489.137, 10.184 489.850, 16.450 491.076 C 30.067 493.739, 35.068 492.964, 39.918 487.440 C 43.083 483.836, 43.319 483.033, 45.426 468.702 C 47.179 456.776, 49.343 452.741, 58.710 443.932 C 66.338 436.758, 77.406 429.175, 92.749 420.610 C 106.699 412.822, 110.054 411.442, 120.648 409.130 C 125.677 408.032, 132.650 405.682, 136.145 403.906 L 142.500 400.678 134.565 398.970 C 124.989 396.909, 122.514 394.657, 123.310 388.726 C 123.901 384.322, 125.514 382, 127.984 382 C 128.941 382, 132.823 383.413, 136.612 385.141 C 146.222 389.523, 152.301 390.977, 161 390.973 C 168.730 390.970, 172.502 389.784, 174.390 386.760 C 175.763 384.562, 174.033 379.508, 166.511 363.745 C 159.954 350.003, 159.597 346.469, 163.855 337.469 C 165.424 334.152, 170.411 326.581, 174.936 320.644 C 182.576 310.623, 186.925 303.257, 186.978 300.250 C 186.990 299.563, 186.100 298.100, 185 297 C 182.292 294.292, 174.988 294.361, 166.410 297.177 C 160.358 299.164, 159.241 299.244, 153.639 298.099 C 145.743 296.485, 122.487 287.834, 113.667 283.231 C 109.909 281.270, 104.224 277.095, 101.034 273.954 C 92.165 265.222, 88.075 257.658, 78.619 232.500 C 75.082 223.087, 70.558 215.412, 67.284 213.266 C 64.158 211.218, 47.119 210.538, 36 212.019 M 503.500 225.352 C 495.554 227.966, 480.986 236.926, 474.167 243.392 C 468.298 248.957, 466.362 253.136, 465.544 262 C 465.163 266.125, 463.804 274.225, 462.523 280 C 461.242 285.775, 459.263 294.934, 458.124 300.352 C 456.985 305.771, 454.990 312.527, 453.690 315.366 C 450.907 321.446, 429.060 349.007, 422.237 355.046 C 419.632 357.352, 414.183 361.486, 410.128 364.232 C 399.906 371.156, 395.709 375.164, 390.539 382.942 C 384.414 392.155, 380.828 401.633, 376.004 421.361 C 369.685 447.207, 363.793 461.497, 352.448 478.500 C 345.516 488.888, 341.032 493.586, 314 518.779 C 284.108 546.638, 262.538 568.833, 256.537 577.907 C 246.757 592.694, 244.087 606.708, 248.944 617.760 C 253.150 627.333, 267.345 638.356, 291 650.420 C 309.461 659.835, 329.577 664.335, 353.500 664.401 C 374.067 664.457, 380.293 662.527, 418.500 644.247 C 447.845 630.207, 457.282 626.484, 468.481 624.531 C 473.247 623.700, 479.727 621.978, 482.879 620.705 C 503.734 612.281, 529.757 591.178, 536.888 576.907 C 539.599 571.483, 540.001 569.639, 540.004 562.590 C 540.010 550.727, 541.916 527.523, 543.502 520.021 C 545.470 510.706, 546.882 507.815, 556.496 493.419 C 575.518 464.935, 583.930 440.447, 581.056 421.922 C 578.903 408.049, 573.413 397.666, 560.266 382.602 C 555.737 377.413, 551.170 371.668, 550.117 369.834 C 546.889 364.213, 543.998 349.313, 544.015 338.376 C 544.035 324.965, 545.829 318.285, 554.160 300.599 C 563.622 280.510, 566.048 273.815, 566.706 265.970 C 567.540 256.023, 564.164 251.059, 554.500 248.020 C 549.459 246.434, 543.458 242.814, 532.916 234.998 C 528.354 231.615, 522.971 228.006, 520.955 226.977 C 515.982 224.440, 508.414 223.736, 503.500 225.352 M 503 228.455 C 501.075 229.178, 496.710 231.359, 493.301 233.302 C 474.441 244.048, 468 251.689, 468 263.320 C 468 266.281, 466.911 273.158, 465.579 278.602 C 464.247 284.046, 462.863 290.685, 462.502 293.357 C 461.456 301.098, 458.114 312.841, 455.476 318.048 C 452.406 324.105, 434.560 346.582, 426.533 354.500 C 423.188 357.800, 417.087 362.738, 412.975 365.474 C 393.790 378.241, 385.678 391.648, 378.471 422.500 C 373.506 443.755, 368.138 457.888, 359.479 472.500 C 351.505 485.956, 344.363 494.132, 324.500 512.543 C 297.913 537.186, 267.508 567.581, 261.951 575.072 C 246.609 595.751, 245.114 611.832, 257.332 624.763 C 268.043 636.100, 297.128 652.450, 313.846 656.533 C 335.431 661.806, 357.787 663.389, 371.024 660.582 C 380.639 658.544, 391.853 654.002, 417 641.964 C 429.375 636.039, 443.325 629.621, 448 627.701 C 455.976 624.426, 459.002 623.614, 473.120 620.966 C 491.241 617.567, 525.644 592.351, 534.468 576 C 537.380 570.605, 537.449 570.129, 538.107 551 C 539.143 520.902, 541.520 510.281, 549.895 498.327 C 577.720 458.611, 585.195 429.141, 573.378 405.741 C 569.554 398.170, 566 393.259, 556.494 382.406 C 547.081 371.660, 544.907 367.145, 542.497 353.324 C 539.011 333.330, 540.950 322.503, 552.495 297.500 C 561.873 277.192, 564 270.897, 564 263.453 C 564 256.623, 561.797 253.932, 553.480 250.603 C 545.876 247.559, 541.908 245.156, 530.674 236.796 C 517.636 227.093, 511.528 225.253, 503 228.455 M 16 233.629 C 14.625 233.892, 10.688 235.021, 7.250 236.136 L 1 238.163 1 262.582 L 1 287 3.750 287.006 C 10.880 287.020, 14.344 289.075, 25.587 299.961 C 31.684 305.865, 39.147 312.523, 42.172 314.757 C 49.572 320.225, 53.182 324.650, 52.803 327.791 C 52.112 333.515, 43.445 336.105, 18.696 337.982 C 10.554 338.599, 3.241 339.354, 2.446 339.659 C 1.205 340.135, 1.004 349.310, 1.030 404.357 C 1.048 442.001, 1.426 467.877, 1.945 466.992 C 2.431 466.162, 3.284 462.202, 3.839 458.192 C 4.915 450.434, 7.210 445.111, 12.107 439.016 C 15.296 435.048, 24.344 429.618, 62.250 408.924 C 74.015 402.501, 83 396.988, 83 396.192 C 83 395.420, 79.939 391.511, 76.197 387.504 C 64.865 375.369, 62.177 367.404, 68.593 364.965 C 70.012 364.425, 84.013 364, 100.374 364 C 135.274 364, 135.147 364.041, 132.350 353.500 C 131.621 350.750, 131.020 345.800, 131.016 342.500 C 131.006 335.198, 132.582 332.324, 141.321 323.713 C 144.789 320.296, 148.455 316.236, 149.468 314.690 C 151.131 312.151, 151.159 311.730, 149.757 310.329 C 147.664 308.236, 140.057 307.497, 134.642 308.860 C 128.618 310.377, 125.945 309.317, 111.818 299.809 C 105.392 295.485, 95.885 289.974, 90.691 287.563 C 79.314 282.283, 76.378 279.491, 66.139 264.209 C 52.499 243.852, 39.823 234.318, 25.344 233.524 C 21.580 233.318, 17.375 233.365, 16 233.629 M 1 313.021 L 1 337.176 4.750 336.609 C 6.813 336.297, 14.716 335.551, 22.313 334.950 C 36.081 333.861, 46.212 331.899, 48.693 329.840 C 51.712 327.335, 49.993 324.214, 42.500 318.595 C 39.750 316.533, 31.833 309.514, 24.906 302.997 C 14.533 293.239, 11.623 291.032, 8.406 290.487 C 6.258 290.123, 3.712 289.609, 2.750 289.345 C 1.118 288.898, 1 290.499, 1 313.021 M 478.112 359.516 C 460.508 364.461, 442.442 381.756, 427.320 408.142 C 424.471 413.113, 421.211 420.239, 420.075 423.978 C 417.031 433.999, 409.727 447.872, 404.810 452.967 C 397.280 460.771, 368 494.201, 368 494.994 C 368 496.559, 370.919 498.144, 372.300 497.329 C 373.073 496.873, 380.641 488.625, 389.117 479 C 397.594 469.375, 406.561 459.385, 409.045 456.800 C 414.534 451.087, 420.832 439.440, 424.616 428 C 432.246 404.931, 454.876 376.042, 471.775 367.797 C 478.109 364.707, 479.111 364.520, 489 364.572 C 496.490 364.611, 500.531 365.096, 503.096 366.262 C 509.439 369.148, 528.260 387.375, 537.336 399.423 C 543.175 407.173, 546.159 421.024, 544.022 430.457 C 543.404 433.183, 539.781 441.102, 535.970 448.055 C 528.781 461.170, 523.231 474.592, 516.130 496.033 C 510.480 513.092, 493.656 543.793, 482.292 557.783 C 473.931 568.074, 455.280 580.288, 441.443 584.532 C 432.072 587.406, 427.483 590.139, 416.500 599.385 C 400.231 613.082, 384.467 622.293, 368.998 627.142 C 362.808 629.082, 359.320 629.493, 349 629.496 C 329.237 629.502, 325.113 628.298, 309.492 617.958 C 294.080 607.758, 290.844 604.168, 290.215 596.575 C 289.523 588.229, 292.046 583.965, 306.650 568.798 C 334.461 539.916, 335.039 539.266, 334.404 537.611 C 334.064 536.725, 332.991 536, 332.020 536 C 331.026 536, 321.192 545.445, 309.523 557.609 C 286.415 581.694, 284.667 584.317, 284.603 595 C 284.535 606.456, 288.035 610.807, 307.755 623.774 C 320.095 631.888, 324.041 633.309, 339.094 635.059 C 365.493 638.128, 391.491 628.074, 420.362 603.631 C 429.885 595.568, 435.081 592.637, 447.277 588.448 C 456.837 585.165, 470.902 576.458, 480.070 568.148 C 492.181 557.171, 513.820 521.116, 520.600 500.618 C 528.142 477.815, 533.305 465.132, 540.392 452 C 549.455 435.208, 550 433.595, 550 423.579 C 550 406.401, 544.863 396.699, 525.823 377.919 C 513.874 366.133, 509.140 362.511, 502.805 360.305 C 496.460 358.095, 484.527 357.714, 478.112 359.516 M 454.363 437.922 C 447.179 441.185, 442.155 446.857, 424.627 471.500 C 407.272 495.898, 401.997 502.059, 391.762 509.890 C 386.155 514.179, 370.752 530.039, 348.104 554.841 C 330.867 573.718, 325.829 586.313, 333.077 592.411 C 337.212 595.891, 339.910 596.513, 350.500 596.428 C 357.567 596.372, 361.218 595.768, 367.500 593.615 C 382.675 588.415, 414.536 564.618, 438.528 540.564 C 450.143 528.918, 454.207 523.999, 462.162 511.955 C 473.334 495.039, 480.363 482.330, 482.010 476.066 C 482.899 472.687, 482.898 469.729, 482.007 463.637 C 480.426 452.822, 477.750 446.134, 473.256 441.769 C 467.009 435.699, 461.658 434.610, 454.363 437.922 M 454 441.103 C 447.681 444.887, 443.988 449.231, 427.738 472 C 407.634 500.168, 405.434 502.809, 396.413 509.598 C 385.230 518.015, 340.905 565.345, 336.955 573.088 C 332.895 581.047, 331.828 585.170, 333.060 588.144 C 336.465 596.366, 358.774 595.968, 375 587.396 C 390.074 579.432, 416.245 558.736, 435.566 539.500 C 451.146 523.989, 459.609 512.658, 472.806 489.643 C 479.593 477.805, 480.649 473.589, 479.211 464.077 C 477.362 451.856, 476.172 448.898, 471.030 443.750 C 466.807 439.522, 465.803 439, 461.893 439.004 C 459.219 439.006, 456.131 439.827, 454 441.103 M 189.672 512.239 C 179.316 517.883, 167.841 524.774, 164.172 527.554 C 155.767 533.920, 149.128 542.676, 141.203 557.848 C 128.368 582.419, 126.221 604.049, 134.156 628.834 C 145.564 664.463, 163.492 684.828, 198.071 701.435 C 204.357 704.454, 214.225 708.457, 220 710.331 C 226.613 712.477, 235.313 716.443, 243.500 721.045 C 268.326 734.997, 294.896 746.615, 307.083 748.848 C 326.871 752.473, 376.347 752.860, 394.500 749.531 C 403.971 747.795, 429.505 741.264, 469.450 730.360 C 495.820 723.162, 512.412 719.475, 523.224 718.409 C 529.300 717.811, 530.894 718.008, 534.405 719.791 C 536.657 720.935, 539.294 722.114, 540.265 722.410 C 545.009 723.858, 544.685 729.713, 537.982 763.677 C 535.792 774.774, 534 786.282, 534 789.251 C 534 792.219, 535.120 798.391, 536.490 802.966 C 539.805 814.041, 540.861 828.435, 538.669 832.673 C 533.355 842.950, 527.534 846.078, 512 847.006 C 496.792 847.914, 492.294 849.849, 483.267 859.366 C 472.572 870.640, 453.141 900.320, 454.366 903.512 C 455.798 907.244, 458.632 904.775, 465 894.252 C 473.635 879.981, 484.445 865.565, 490.763 859.895 C 496.681 854.584, 500.475 853.361, 513.500 852.567 C 518.450 852.265, 524.176 851.546, 526.225 850.969 C 531.423 849.505, 537.892 844.332, 541.860 838.467 L 545.219 833.500 544.720 820.500 C 544.347 810.780, 543.689 806.010, 542.111 801.593 C 538.985 792.845, 539.403 785.530, 544.489 760 C 549.911 732.787, 550.300 724.699, 546.411 720.077 C 544.987 718.385, 543.062 717, 542.134 717 C 541.205 717, 539.399 716.267, 538.120 715.372 C 533.952 712.452, 529.059 712.015, 517.473 713.529 C 506.036 715.024, 493.562 718.057, 439.500 732.490 C 400.283 742.960, 392.427 744.585, 374 746.037 C 354.380 747.582, 317.372 745.628, 304.500 742.366 C 291.586 739.094, 267.136 727.914, 243.147 714.313 C 236.319 710.441, 228.519 706.926, 223.578 705.495 C 209.019 701.276, 190.020 692.159, 179 684.105 C 164.301 673.361, 155.266 662.610, 147.505 646.626 C 131.746 614.170, 131.042 591.425, 144.930 563.500 C 157.543 538.137, 161.763 534.016, 192.168 517.366 C 207.369 509.042, 212.500 505.761, 212.500 504.366 C 212.500 500.653, 208.230 502.125, 189.672 512.239 M 672.819 661.354 C 659.795 668.121, 647.420 674.941, 645.319 676.509 C 636.814 682.861, 622.259 698.488, 619.248 704.500 C 613.373 716.234, 602.537 753.730, 601.042 767.500 C 599.985 777.236, 601.262 789.953, 604.043 797.385 C 608.330 808.844, 616.949 815.088, 639.250 822.889 C 645.712 825.150, 656.288 828.848, 662.750 831.106 C 684.098 838.565, 689.616 841.965, 697.065 852.248 C 699.612 855.764, 700 855.997, 700 854.009 C 700 850.762, 693.323 842.415, 688.003 839.011 C 681.709 834.983, 676.430 832.847, 653 824.847 C 626.643 815.847, 617.471 811.478, 612.083 805.357 C 605.953 798.393, 603.498 789.676, 603.533 775 C 603.557 764.894, 604.017 761.803, 607.330 749.500 C 617.628 711.252, 620.747 704.088, 632.221 692.333 C 644.467 679.787, 649.060 676.667, 674.875 663.362 C 696.232 652.355, 701.681 648.952, 697.833 649.026 C 697.100 649.040, 685.844 654.588, 672.819 661.354 M 678 681.649 C 653.845 696.478, 650.477 699.071, 644.505 707.441 C 634.671 721.221, 631.034 734.900, 631.013 758.178 C 630.986 788.502, 635.239 802.510, 646.164 808.084 C 648.469 809.260, 658.100 812.844, 667.565 816.050 C 687.047 822.648, 697.905 827.269, 699.780 829.762 C 701.201 831.652, 701.389 796.100, 700.262 738.750 C 699.686 709.423, 699.648 709, 697.589 709.022 C 693.804 709.062, 687.563 712.617, 683.638 716.970 C 672.909 728.870, 666.849 756.056, 671.469 771.568 C 675.153 783.940, 684.357 793.643, 694.580 795.931 C 698.184 796.737, 700 797.645, 700 798.639 C 700 799.590, 699.363 799.950, 698.250 799.627 C 697.288 799.348, 694.475 798.596, 692 797.957 C 683.044 795.643, 673.545 786.022, 669.337 775 C 666.648 767.959, 666.883 748.796, 669.782 738.701 C 675.253 719.644, 684.213 708.774, 696.250 706.590 L 700 705.909 700 687.455 C 700 677.305, 699.663 669.014, 699.250 669.032 C 698.837 669.050, 689.275 674.727, 678 681.649 M 689.905 684.135 C 674.376 694.160, 668.764 699.384, 662.189 709.933 C 653.671 723.600, 649.249 733.155, 648.438 739.649 C 647.637 746.061, 649.469 767.621, 651.629 777.206 C 652.460 780.895, 654.200 785.395, 655.496 787.206 C 656.792 789.018, 659.074 792.525, 660.568 795 C 667.448 806.398, 674.532 812.007, 687.665 816.457 C 697.623 819.832, 700 820.273, 700 818.748 C 700 817.995, 696.353 816.346, 691.250 814.792 C 681.006 811.672, 671.111 805.643, 667.428 800.279 C 659.793 789.159, 657.901 786.199, 656.444 783.097 C 653.537 776.908, 651.797 764.903, 651.646 750 C 651.502 735.655, 651.534 735.428, 654.667 728.814 C 659.897 717.776, 670.200 702.077, 674.560 698.504 C 676.810 696.661, 683.116 692.133, 688.575 688.443 C 694.034 684.753, 698.650 681.343, 698.833 680.867 C 699.587 678.906, 695.931 680.244, 689.905 684.135 M 1 760.835 C 1 768.170, 1.354 771.159, 2.250 771.402 C 2.938 771.589, 8.225 772.723, 14 773.921 C 19.775 775.120, 26.975 777.377, 30 778.936 C 33.025 780.496, 39.900 784.060, 45.278 786.858 C 51.242 789.960, 61.969 794.136, 72.778 797.563 C 82.525 800.653, 102.650 807.286, 117.500 812.302 C 142.458 820.734, 145.106 821.427, 152.506 821.462 C 160.434 821.500, 160.658 821.429, 175.516 814.231 C 192.558 805.975, 198.318 804.634, 204.377 807.509 C 209.350 809.868, 214.053 815.569, 220.712 827.307 C 230.001 843.681, 236.670 851.215, 245.168 854.937 C 255.442 859.437, 261.320 858.818, 291.500 850.055 C 316.574 842.775, 321.065 842.065, 323.931 844.931 L 326.027 847.027 324.007 850.987 C 322.878 853.200, 319.647 856.675, 316.685 858.864 C 308.486 864.920, 302.297 872.381, 300.352 878.554 C 298.918 883.101, 298.796 885.514, 299.575 893.911 C 300.844 907.583, 299.987 911.108, 293.918 917.177 C 287.830 923.265, 280.183 926.977, 273.702 926.990 C 267.383 927.003, 265.350 929.261, 261.579 940.457 C 254.911 960.251, 244.022 967.726, 227.932 963.552 C 221.703 961.937, 220.824 961.929, 214.910 963.444 C 208.277 965.144, 200.912 969.027, 190.031 976.561 C 178.802 984.337, 176.232 984.339, 163.500 976.584 C 150.480 968.653, 98.857 955.749, 65 951.963 C 51.916 950.500, 24.197 950.542, 11.519 952.044 L 1 953.291 1 976.645 L 1 1000 50.750 999.913 L 100.500 999.826 92 997.418 C 81.202 994.360, 65.403 992, 55.729 992 C 48.009 992, 46.139 991.002, 48.060 987.909 C 48.733 986.826, 51.334 986.537, 59.310 986.660 C 74.543 986.895, 93.974 990.929, 111.273 997.448 L 118.046 1000 185.223 1000 L 252.400 1000 262.950 989.189 C 268.752 983.243, 278.531 972.965, 284.680 966.350 C 295.326 954.895, 296.280 954.136, 304.680 950.450 C 322.265 942.731, 329.522 936.802, 334.199 926.330 C 336.095 922.085, 336.445 918.895, 337.087 900 L 337.818 878.500 341.786 866.472 C 346.491 852.211, 352.048 840.793, 358.386 832.363 C 360.924 828.987, 363 825.986, 363 825.692 C 363 825.399, 361.663 824.865, 360.030 824.507 C 355.166 823.438, 342.459 825.905, 334.712 829.423 C 313.541 839.034, 302.234 842.965, 292.706 844.028 C 282.455 845.171, 269.441 844.125, 262.224 841.579 C 246.240 835.940, 232.527 824.343, 220.059 805.922 C 212.597 794.897, 210.736 793.627, 201.365 793.153 C 197.222 792.944, 191.282 793.255, 188.166 793.845 C 185.050 794.434, 171.700 795.897, 158.500 797.094 C 138.143 798.941, 133.184 799.098, 125.832 798.129 C 107.895 795.763, 90.300 788.128, 76.747 776.829 C 61.934 764.481, 58.335 763.348, 26.990 761.169 C 13.461 760.229, 9.906 759.060, 4.250 753.692 L 1 750.608 1 760.835 M 1 784.437 L 1 794.749 9.750 794.253 C 17.644 793.806, 19.414 794.064, 27.842 796.890 C 32.980 798.614, 46.255 804.490, 57.342 809.950 C 91.890 826.963, 108.898 831.470, 152 835.037 C 174.363 836.887, 179.114 838.633, 184.926 847.138 C 190.011 854.577, 199.439 862.595, 208.344 867.052 C 217.328 871.549, 221.217 871.915, 234.500 869.515 C 248.800 866.931, 262.699 867.842, 266.466 871.609 C 268.951 874.094, 268.259 876.764, 263.906 881.487 C 256.364 889.668, 241.139 898.367, 220.207 906.453 C 202.624 913.245, 200.979 914.926, 196.398 930.780 C 191.186 948.820, 187.713 951.579, 170.500 951.360 C 161.260 951.242, 153.821 950.092, 124 944.172 C 82.899 936.012, 70.777 933.818, 51.500 931.049 C 38.137 929.130, 8.285 926, 3.339 926 C 1.011 926, 1 926.061, 1 938.519 C 1 950.986, 1.009 951.036, 3.250 950.529 C 9.676 949.074, 24.060 948, 37.118 948 C 67.481 948, 95.712 952.522, 137.218 964.033 C 155.349 969.062, 159.109 970.555, 169.212 976.740 C 176.698 981.323, 179.177 980.837, 191.607 972.351 C 196.890 968.743, 203.728 964.641, 206.802 963.233 C 214.025 959.926, 224.838 959.070, 230.341 961.369 C 233.425 962.658, 235.081 962.768, 238.836 961.934 C 248.441 959.801, 254.757 952.776, 259.007 939.500 C 263.032 926.925, 266.088 924, 275.199 924 C 282.102 924, 292.460 916.940, 296.140 909.726 C 298.113 905.859, 298.167 905.044, 297.085 895.432 C 295.873 884.658, 296.533 878.737, 299.612 872.784 C 301.810 868.533, 308.585 861.387, 314.735 856.835 C 320.820 852.330, 324.055 847.342, 321.523 846.370 C 318.879 845.356, 311.361 846.968, 292.594 852.575 C 269.664 859.426, 264.807 860.365, 255.256 859.793 C 245.114 859.184, 239.159 856.162, 231.387 847.680 C 228.149 844.147, 222.852 836.586, 219.617 830.878 C 205.485 805.951, 201.434 804.541, 177.593 816.254 C 161.442 824.189, 155.432 825.756, 147.300 824.152 C 144.110 823.523, 129.350 818.999, 114.500 814.097 C 99.650 809.196, 80.226 802.869, 71.334 800.038 C 55.003 794.838, 43.248 789.744, 33.043 783.446 C 27.868 780.252, 14.915 776.246, 4.750 774.697 L 1 774.126 1 784.437 M 9.500 796.448 C 8.950 796.661, 6.802 797.120, 4.727 797.468 L 0.953 798.099 1.227 815.300 L 1.500 832.500 18.500 838.204 C 40.399 845.551, 56.019 848.668, 77.500 849.977 C 128.012 853.054, 149.729 857.360, 164.060 867.140 C 170.383 871.455, 171.805 874.217, 172.598 883.731 C 173.253 891.581, 173.207 891.818, 170.725 893.445 C 166.526 896.196, 156.319 897.375, 145.543 896.352 C 140.244 895.850, 135.479 895.704, 134.955 896.028 C 134.431 896.352, 133.771 899.291, 133.488 902.558 C 132.706 911.597, 132.115 913.544, 129.364 916.124 C 125.485 919.763, 119.014 919.143, 104.500 913.742 C 69.495 900.716, 46.053 895.847, 17.252 895.620 C 5.784 895.530, 2.003 895.190, 2.002 894.250 C 1.999 892.408, 27.853 892.619, 43.158 894.586 C 59.594 896.699, 82.133 902.532, 101.051 909.567 C 119.775 916.531, 124.505 917.258, 127.842 913.684 C 129.723 911.669, 130.319 909.598, 130.874 903.139 C 131.254 898.719, 131.926 894.742, 132.368 894.301 C 132.811 893.861, 140.446 893.495, 149.336 893.489 C 158.226 893.483, 166.300 893.092, 167.278 892.621 C 170.420 891.107, 170.944 888.720, 169.711 881.525 C 168.017 871.631, 163.642 867.820, 147.792 862.429 C 133.177 857.458, 114.076 854.709, 82.434 853.020 C 55.148 851.565, 35.751 847.667, 10.750 838.616 L 1 835.086 1 878.971 L 1 922.856 6.250 923.392 C 9.138 923.687, 18.925 924.658, 28 925.551 C 50.860 927.799, 80.291 932.640, 122 941.012 C 174.012 951.453, 183.954 951.535, 189.614 941.571 C 190.776 939.525, 192.734 934.178, 193.964 929.689 C 198.381 913.570, 201.145 910.815, 220.323 903.408 C 235.403 897.584, 240.353 895.149, 250.500 888.557 C 264.114 879.714, 267.833 874.612, 262.453 872.161 C 258.874 870.530, 240.870 870.745, 232.500 872.517 C 223.484 874.427, 219.493 874.387, 213.428 872.323 C 202.810 868.711, 191.494 860.273, 183.932 850.328 C 181.494 847.123, 178.825 843.941, 178 843.257 C 175.009 840.779, 166.163 838.994, 149.500 837.506 C 122.468 835.091, 112.750 833.517, 96.220 828.876 C 82.808 825.110, 73.489 821.232, 52.417 810.652 C 43.102 805.974, 32.109 801.017, 27.990 799.637 C 20.788 797.224, 11.588 795.637, 9.500 796.448" />
</svg>