<svg version="1.1" id="Слой_1" xmlns="http://www.w3.org/2000/svg" x="0" y="0" viewBox="0 0 64.72 73" style="enable-background:new 0 0 64.72 73" xml:space="preserve"><style>.st0{fill:#9ac1a0}</style><g id="XMLID_5181_"><path id="XMLID_00000132777744282791591190000011253903185235039376_" class="st0" d="M48.63 29.34c.32-1.3.47-2.63.47-3.96 0-9.23-7.51-16.75-16.75-16.75-9.23 0-16.75 7.51-16.75 16.75 0 1.33.16 2.66.47 3.96.45 2.72 1.06 4.91 1.83 6.51 1.65 3.46 8.57 14.87 11.75 20.06-4.3.55-6.29 2.4-6.29 4.14 0 2.07 2.81 4.3 8.99 4.3s8.99-2.23 8.99-4.3c0-1.74-1.99-3.59-6.29-4.14 3.18-5.2 10.1-16.61 11.75-20.06.77-1.6 1.38-3.79 1.83-6.51zm-9.87 30.72c-.17.49-2.34 1.72-6.4 1.72-4.11 0-6.27-1.26-6.4-1.7.12-.43 1.88-1.48 5.22-1.69.04.06.07.11.08.14.24.38.65.61 1.1.61s.87-.23 1.1-.61c.02-.03.05-.07.08-.14 3.3.2 5.06 1.23 5.22 1.67zm7.35-31.29c-.01.03-.01.07-.02.1-.4 2.46-.96 4.49-1.62 5.87-1.66 3.49-9.24 15.94-12.11 20.62-2.87-4.68-10.45-17.13-12.11-20.62-.66-1.38-1.21-3.41-1.62-5.87-.01-.03-.01-.07-.02-.1-.27-1.11-.41-2.25-.41-3.39 0-7.81 6.35-14.16 14.16-14.16 7.81 0 14.16 6.35 14.16 14.16 0 1.14-.14 2.28-.41 3.39z"/><path id="XMLID_00000103242748343777836790000012891863063487109029_" class="st0" d="M32.36 15.96c-4.96 0-8.99 4.03-8.99 8.99s4.03 8.99 8.99 8.99 8.99-4.03 8.99-8.99c0-4.95-4.04-8.99-8.99-8.99zm0 15.39c-3.53 0-6.4-2.87-6.4-6.4 0-3.53 2.87-6.4 6.4-6.4 3.53 0 6.4 2.87 6.4 6.4 0 3.53-2.87 6.4-6.4 6.4z"/></g></svg>