<svg version="1.1" id="Слой_1" xmlns="http://www.w3.org/2000/svg" x="0" y="0" viewBox="0 0 64.72 73" style="enable-background:new 0 0 64.72 73" xml:space="preserve"><style>.st0{fill:#9ac1a0}</style><g id="XMLID_6474_"><path id="XMLID_00000082326420226903684650000003789556302592464301_" class="st0" d="M45.38 10.75H19.34c-2.46 0-4.46 2-4.46 4.46v42.58c0 2.46 2 4.46 4.46 4.46h26.04c2.46 0 4.46-2 4.46-4.46V15.21c0-2.46-2-4.46-4.46-4.46zm2.39 47.04a2.39 2.39 0 0 1-2.39 2.39H19.34a2.39 2.39 0 0 1-2.39-2.39V15.21a2.39 2.39 0 0 1 2.39-2.39h26.04a2.39 2.39 0 0 1 2.39 2.39v42.58z"/><path id="XMLID_00000137848287304577051440000018219300242637934732_" class="st0" d="M32.36 13.89a.48.48 0 1 0-.48-.48c0 .27.21.48.48.48z"/><path id="XMLID_00000030460064595202606980000000193606164232920231_" class="st0" d="M30.56 15.83h3.59a.48.48 0 0 0 0-.96h-3.59a.48.48 0 0 0-.48.48c.01.26.22.48.48.48z"/><path id="XMLID_00000039841289178730518060000004649708546098431152_" class="st0" d="M28.96 15.72a.37.37 0 1 0-.37-.37c0 .2.16.37.37.37z"/><path id="XMLID_00000126304586893241892110000002405277784237538470_" class="st0" d="M32.36 54.15c-1.61 0-2.92 1.31-2.92 2.92 0 1.61 1.31 2.91 2.92 2.91 1.61 0 2.92-1.31 2.92-2.91a2.93 2.93 0 0 0-2.92-2.92zm0 4.8c-1.04 0-1.88-.84-1.88-1.88s.84-1.88 1.88-1.88 1.88.84 1.88 1.88-.84 1.88-1.88 1.88z"/><path id="XMLID_00000143610552066401829640000012813075138726705305_" class="st0" d="M44.57 16.86H20.15c-.29 0-.52.23-.52.52v36.19c0 .29.23.52.52.52h24.43c.29 0 .52-.23.52-.52v-36.2a.53.53 0 0 0-.53-.51zm-.51 36.19h-23.4V17.89h23.39v35.16z"/></g></svg>