<svg xmlns="http://www.w3.org/2000/svg" viewBox="0 0 64.72 73" style="enable-background:new 0 0 64.72 73" xml:space="preserve"><path d="M8.27 32.25c-.65.8-1.04 1.82-1.04 2.92v24.89c0 2.57 2.09 4.66 4.66 4.66h.63l.11.11.11-.11h39.21l.11.11.11-.11h.63c2.57 0 4.66-2.09 4.66-4.66V35.18c0-1.11-.39-2.12-1.04-2.92 0-.32-.11-.65-.36-.89L33.23 8.51c-.46-.46-1.29-.46-1.75 0L8.64 31.36c-.25.25-.37.57-.37.89zm6.55 30.4L26.5 50.97l4.99 4.99c.23.23.55.36.87.36.33 0 .64-.13.87-.36l4.99-4.99L49.9 62.65H14.82zm3.75-22.41v-8.69h28v8.27L32.36 54.03 18.57 40.24zm36.84-5.06v24.89c0 1.25-.89 2.29-2.07 2.53L39.97 49.22l15.17-15.17c.17.34.27.72.27 1.13zM32.36 11.14l21.1 21.1-5.41 5.41v-6.83c0-.41-.33-.74-.74-.74H17.83c-.41 0-.74.33-.74.74v7.25l-5.82-5.82 21.09-21.11zM9.31 35.18c0-.4.1-.78.27-1.12l15.17 15.17-13.38 13.36a2.593 2.593 0 0 1-2.07-2.53V35.18z" style="fill:#9ac1a0"/></svg>