<svg fill="#006843" xmlns="http://www.w3.org/2000/svg" viewBox="0 0 235.38 234.03" ><path d="M174.02 211.01c46.82-30.25 63.29-93.23 35.66-141.88-19.13-34.88-58.97-56.29-98.59-53.09C56.71 19.76 13.83 66.87 15 121.35c.5 55.25 46 101.5 101.29 103.73 13.58.66 27.31-1.21 40.24-5.55-19.1 8.09-40.65 10.39-61.06 6.47C10.63 209.66-22.55 106.84 34.95 42.94 86.3-14.42 180.88-2.95 216.51 65.42c27.52 51.21 8.75 117.68-42.49 145.59z"/><path d="M175.21 179.49c-5.85-25.82-23.65-48.31-23.36-75.34 1.6-24.89-1.94-21.9-23.77-27.61-20.09-13.55 23.78-29.72-.84-51.7-10.17-5.4-21.16.22-24.17 10.97-1.84 5.46 2.53 13.35-3.9 16.83-6.8 2.48-15.77 5.69-11.7 14.97 5.93 13.18-9.46 6.47-7.61 22.72 2.05 26.17-8.95 47.6-15.66 72-2.35 6.67-8.94 42.53 2.52 24.05 3.62-4.57-2.09-12.44 3.11-18.82 9.31-19.39 21.07-38.3 21.88-60.35 9.47 10.57 12.09 24.86 9.06 35.47 44.61-18.84 21.01-2.14 39.15-35.58-.07 22.14 10.58 41.61 23.11 58.97 7.62 7.45 2.12 17.44 6.89 21.96 4.68 4.66-.17 13.74.59 19.9 6.25-3.71 7.36-20.77 4.7-28.44zM88.25 80.67c9.12-9.9 3.06-14.74 21.13-14.79 1.57 11.88-12.57 13.61-21.13 14.79z"/><path d="M153.37 211.22c-8.2-8.89-18.21-62.28-20.7-75.18-22.58 4.79-43.11 17.24-51.27 39.76-2.17 5.11-3.73 10.35-3.17 16.17 20.64 27.53 48.53 24.29 75.14 19.25z"/></svg>