<svg fill="#006843" xmlns="http://www.w3.org/2000/svg" viewBox="0 0 235.38 234.03"><path d="M186.13 167.64c1.88-5.06 3.56-10.18 4.63-15.49 2.66-13.21 2.36-26.2-2.88-38.84-.7-1.69-1.53-2.3-3.38-2.17-11.09.77-22.23 1.13-33.05 4.08-12.16 3.31-20.61 10.63-24.58 22.79-.2.61-.47 1.19-.75 1.88-4.14-14.98 1.69-35.48 22.94-39.19 11.19-1.95 22.15-.96 32.78 3.15.35.13.66.44 1.21.17a53.698 53.698 0 0 0-9.44-12.12c-6.67-6.43-14.18-11.87-21.28-17.8-9.02-7.53-17.59-15.47-23.64-25.74-2.97-5.05-5.11-10.4-6.23-16.18-.31-1.63.12-1.87 1.55-1.76 11.15.82 21.87 3.32 31.74 8.65 22.47 12.14 36.87 30.5 41.63 55.8 2.59 13.78 1.89 27.52-2.09 41.08-1.02 3.49-.97 7.29-1.62 10.9-1.32 7.34-3.52 14.39-7.54 20.79zM115.25 30.5c-35.99 8.91-58.5 30.56-64.51 67.86 5.62-23.82 20.57-40.82 40.28-54.27 8.04-5.48 16.65-9.89 25.83-13.17.42-.15.86-.24 1.44-.39.15 3.06-.53 5.87-1.39 8.64-3.37 10.9-10.14 19.54-18.25 27.25-7.8 7.42-16.6 13.58-25.14 20.08-6.29 4.78-12.48 9.69-17.05 16.28-.36.52-.72 1.04-1.4 2.03 3.79-1.62 7.19-2.76 10.7-3.5 8.78-1.85 17.58-2.24 26.33.08 12.92 3.43 21.24 14.12 21.57 27.51.09 3.63-.25 7.22-1.2 11.24-.49-1.32-.83-2.21-1.14-3.11-4.25-12.27-13.28-18.94-25.53-21.94-7.13-1.74-14.37-2.54-21.66-3.08-3.48-.26-6.98-.35-10.45-.73-1.73-.19-2.52.41-3.2 1.93-2.81 6.28-4.25 12.87-4.72 19.69-.78 11.22 1.15 22.01 5.29 32.44.17.42.31.84.46 1.27.02.05-.04.11-.13.36-2.54-4.16-4.26-8.54-5.51-13.09-1.5-5.43-2.51-10.95-2.58-16.61-.04-3.4-1.46-6.54-2-9.85-4.82-29.81 1.8-56.07 24.47-77.05C79.61 37.5 96.35 31.22 115.25 30.5zM147.95 194.06c-4.01 1.64-6.83 4.84-10.19 7.31-6.31 4.62-13.54 5-20.92 4.79-6.51-.18-12.41-2.03-17.6-6.14-2.66-2.11-5.6-3.87-8.76-6.03 2.92.03 4.88-1.21 6.74-2.74 2.7-2.21 5.3-4.56 8.23-6.48 4.32-2.82 8.71-3.55 13.11-.17.66.51 1.1.37 1.7-.07 4.46-3.29 8.86-2.59 13.07.44 2.89 2.07 5.63 4.35 8.45 6.51 1.81 1.38 3.69 2.59 6.17 2.58z"/><path d="M50.63 126.85c3.84.95 7.68 1.69 11.63 1.91 6.66.38 13.15-.8 19.66-1.81 4.43-.68 8.87-.88 13.34-.22 4.24.63 7.51 2.92 10.47 5.83-.26.34-.48.12-.64.01-3.61-2.5-7.16-1.9-10.98-.24-9.09 3.94-18.75 5.71-28.54 6.8-2.28.25-4.53.84-7.4.7 3.12-1.12 5.85-1.81 8.59-3.19-6.5-1.71-11.9-4.75-16.13-9.79zM133.25 132.5c3.43-4.19 7.86-5.98 13.11-6.21 5.81-.24 11.46.77 17.14 1.67 7.95 1.27 15.83 1.25 23.6-1.15.17-.05.38-.01 1.02-.01-4.58 5.28-10.16 8.14-16.79 9.87 2.77 1.49 5.63 1.97 8.25 3.1-5.11-.43-10.2-1.02-15.24-1.94-7.19-1.31-14.24-3.16-20.95-6.12-3.53-1.56-6.86-1.26-10.14.79zM35.86 138.76c.57 1.82 1.04 3.41 1.55 4.98 1.95 5.99 4.79 11.57 7.92 17.01 2.36 4.12 4.16 8.44 5.25 13.07.91 3.9 2.16 7.71 3.58 11.46 1.39 3.68 3.06 7.22 5.26 10.81-14.87-10.94-26.73-39.81-23.56-57.33zM112.29 169.91c-.59.83.61 1.66-.18 2.09-.93.5-2.01.29-2.97-.23-3.46-1.88-4.05-7.51-.67-9.69 4.07-2.63 8.5-4.76 13.68-3.53 2.66.63 5.16 1.69 7.5 3.07 2.03 1.2 2.82 3.18 2.52 5.48-.29 2.23-1.28 4.07-3.59 4.87-1.8.62-2.27.29-2.12-1.49.06-.68-.24-.86-.76-.61-.58.27-1.11.66-1.63 1.03-3.46 2.47-5.79 2.52-9.44.22-.73-.47-1.38-1.17-2.34-1.21zM202.15 140.05c1.64 22.4-7.64 40.32-23.07 55.67 2.1-3.83 3.93-7.77 5.44-11.88 1.11-3.03 2.19-6.09 2.83-9.24.97-4.76 2.93-9.06 5.39-13.19 4-6.73 7.41-13.72 9.41-21.36z"/><path d="M195.06 194.53c38.17-40.62 39.01-105.72.48-146.3-26.96-29.25-70.78-40.44-108.46-27.8C35.19 37.12 4.9 93.16 19.15 145.75c13.77 53.51 69.07 87.45 123.27 76.32 13.34-2.62 26.21-7.74 37.72-15.07-16.6 12.44-36.96 19.87-57.72 20.97C36.14 232.53-20.8 140.71 19.64 64.85 55.69-3.18 150.25-14.8 201.28 42.99c39.03 43.09 36.8 112.12-6.22 151.54z"/></svg>