<svg fill="#006843" xmlns="http://www.w3.org/2000/svg" viewBox="0 0 235.38 234.03"><path d="M175.32 130.74c-3.83 7.77-7.56 16.66-4.03 25.26 3.26 9.1 14.97 12.28 22.79 6.93-.02-.03-.04-.07-.06-.1-.11.05-.21.1-.32.15-17.31 6.88-22.83-14.2-17.17-26.9 6.01-13.31 7.82-27.04-.94-39.69-9.82-14.86-4.38-16.87-8.55-31.69-2.21-6.64-6.29-11.91-12.17-15.68-1.8-1.15-3.08-2.51-4.1-4.38-7.42-14.8-26.52-16.82-40.94-12.56-19.11 6.39-33.38 22.64-43.37 39.58-7.14 12.05-10.52 26.05-9.43 39.98-1.58 10.38-2 21.36.88 31.55 3.77-3.13 7.23-6.32 10.07-10.16-5.14 10.07-13.12 19.47-24.14 23.19 9.76 11.93 24.68-.93 32.69-8.7-6.08 9.89-21.8 24.11-32.67 12.49 4.86 13.83 15.73 22.43 29.07 12.05-5.73 12.42-20.67 21.35-33.82 14.96 5.58 7.72 12.38 17.9 22.52 19.21 16.8-.54 34.85-7.76 44.82-21.83 1.94 7.98 7.17 14.51 9.84 22.19-6.68-43.79 2.68-26.21 29.85-54.07-9.11 18.91 10.23 30.97 24.32 39.31 3.59-4.72 5.77-10.28 6.09-16.17 2.34 5.67-.02 11.72-2.51 16.95 1.97.48 4.23 2.25 6.26 1.96 3.25-5.24 5.53-11.23 4.09-17.46-1.99-10.4-13.62-14.75-16.97-24.35-4.9-17.42 15.65-26.81 6.57-49.01.05-.02.11-.04.16-.06 4 8.21 4.97 18.61 1.17 27.05zm-86.08-73.4c12.45-9.62 35.62-13.48 44.12 3.02-.41-3.07-1.56-5.8-3.69-8.09l.23-.2c7.51 7.08 2.39 14.11 5.58 13.23 6.67-1.78 6.11-11.16 4.35-16.41.08-.03.15-.06.23-.09 2.13 5.1 3.88 13-1.98 16.26-8.94 4.03-1.22-11.04-19.37-12.88-.07-.05-.14-.1-.21-.16-13.7-1.75-26.78 4.81-37.62 12.61-.06-.09-.12-.17-.18-.26 2.84-2.33 5.6-4.8 8.54-7.03zM78.3 99.01c.23-4.97.91-9.96 2.29-14.78-2.19 3.26-3.69 6.98-5.4 10.44l-.02-.06-.06.02c.98-7.64 2.76-15.35 7.66-21.5l-.18-.15c-7.68 7.3-16.05 14.26-20.95 23.86-.12-.07-.23-.14-.35-.21 8.2-19.38 24.65-38.07 46.24-41.74.02-.07.03-.15.04-.23-.05.17-.03.33.03.49-6.21 1.39-11.3 5.13-15.55 9.72-.21.19-.43.38-.64.56.04.05.08.1.11.15 5-3.62 10.77-5.29 16.78-6.16-18.27 4-26.66 22.98-30 39.59zm9.32 32.24c.54-5.93-2.9-2.07-4.33-7.44 3.28 5.11 5.24 1.55 5.25 9.1-.61-.35-.84-.99-.92-1.66zm79.5-23.69c-1.07 4.98-1.55 17.54-6.99 19.19-1.64.55-.2 3.85-.86 5.27-.12-.01-.25-.01-.37-.02v-5.02c-.98-.27-1.76-.48-2.69-.73-1.13 7.36-3.63 14.73-8.63 20.42.16.26.34.52.5.78-.17-.26-.34-.52-.5-.78-7.99 8.04-20.53 20.16-32.04 11.59-20.34-11.9-26.95-30.01-25.02-52.87 1.74 1.09 3.55 1.69 4.95 3.05.25 1.34 2.4 1.42 2.81 2.76-.11.2-.22.39-.33.59.38.02.37-.21.46-.46.29-.03.58-.07.9-.1-.09.49-.14.8-.2 1.1.05.02.11.03.16.05.21-.26.42-.53.63-.79l.27.03c.03.35.05.7.08 1.05 1.14-.86 1.14-.86 1.62-.19 3.04.04 5.93-.67 8.98-.8 1.34-.4 5.53 1.05 4.64-1.45-1.64-6.81-7.3-8.9-13.8-8.26-.47 1.24-.84-.29-1.43-.34.32.54.78 1.05-.16 1.19-.31-.38-.47-.84-.91-1.05l-.07.1c.36.22.4.63.58 1.01-.36.2-.63.35-.93.51l-.93-1.58c.02.79.61 1.35.05 2.08-.9-.18-1.14-1.1-1.66-1.75.32.65.62 1.32.78 2.02-1.31 1.01-1.54-1.63-2.4-2.21-.06.04-.13.07-.19.11.46.85.92 1.71 1.42 2.62-1.49-.03-2.1-1.52-3.41-1.82.81.67 1.61 1.35 2.42 2.02-.06.09-.11.18-.17.27-1.17-.61-2.33-1.23-3.5-1.84-.01.05-.03.1-.04.15.66.63 1.32 1.27 1.99 1.9-.07.1-.13.2-.2.3-.8-.24-1.61-.48-2.48-.74.93-2-.67-7.14 2.1-7.44 6.22-1.04 12.02 1.9 17.91 3.38 1.83.36 6.48 2.09 5.64-1.41-2.14-5.25-9.38-4.71-14.11-5.46-3.84-.69-6.97.83-10.32 2.55 2.88-10.99 8.82-24.73 22.02-24.77 3.98-.46 7.98 1.62 11.83.58 2.69-.69 5.16-2.16 8.09-2.15-2.15-1.49-4.62-1.56-6.99-2.17l.03-.2c9.52-.91 19.13 1.54 28.46-1.13-1.08.83-2.16 1.65-3.29 2.51 1.96 2.56 3.19 5.39 3.13 8.66.06 5.22 3.44 9.69 4.35 14.75 1.07 8.78 1.47 17.56-.21 26.31 4.95-3.63 5.08-10.57 7.57-15.77.64 1.35.41 2.94.46 4.4zm-58.14-.4c.71-2.02 4.8 1.95 5.21 3.01-5.65.19-11.63 1.99-16.32-1.95-.01-1.23 2.32-1.66 3.2-2.47 1.14 3.4 5.77 4.54 7.91 1.41z"/><path d="M130.31 138.16c-3.55-1.63-4.63 1.15-7.11.37-4.31-2.49-7.84 1.51-12.14 1.86 8.21 8.21 18.43 8.89 26.25-.24-2.51.12-4.64-1.33-7-1.99zM150.97 101.25h.01zM154.23 104.25l-1.51.3c.56-.71 1.03-1.3 1.49-1.88-.23-.26.76-.74-.16-.88-.6 1.17-1.49 1.97-2.83 2.45.7-.98 1.31-1.83 1.91-2.68l-.33-.3c-.68 1.15-1.44 2.21-2.67 2.75-.05-.06-.11-.12-.16-.17.29-.87 1-1.67.99-2.6h-.51c-.07 1.15-.81 2.3-1.57 2.24.29-.97.98-1.94.52-2.96-.29.93-.53 1.87-1.17 2.63-.12-.05-.23-.11-.35-.16.11-.77.23-1.53.35-2.37-.9.34-.2 1.76-1.41 1.88v-1.89c-.59.34.02 1.67-1.24 1.25.08-.3.15-.6.22-.89-.04-.02-.09-.04-.13-.06-.1.34-.46.86-.81.81-.46-.59-1.22-.47-1.71-.43-5.56-.45-10.37 3.05-11.56 8.52-.65 1.76 1.52 1.17 2.51 1.14 3.91.09 7.72 1.7 11.66 1.15.05-.93.66-.41 1.31.01-.1-.36-.16-.55-.24-.87h1.86c-.26-.16-.42-.27-.78-.49.61-.26 1.06-.45 1.61-.68.91-2.68 4.08-3.92 6.02-5.82l-.12-.15-1.19.15zm-8.01 5.07c-4.05 1.72-9.04 1.19-13.13.21.43-1.58 2.77-2.46 3.79-3.63 2.36 2.98 6.36 4.7 8.69-.65 1.12.64 2.22 1.28 3.35 1.93-.68 1.11-1.65 1.72-2.7 2.14zM153.67 94.65c-6.39-3.29-13.64-.96-20.07 1.03-1.64 1.07-4.44 3.41-2.69 5.5 1.12.62 2.2-.02 3.28-.17 1.73-.62 3.55-1.05 5.29-1.7l.02.01c5.4-2.6 10.93-3.27 16.9-2.9-.97-.68-1.76-1.21-2.73-1.77zM121.46 128.63c1.49-2.4-2.19-1.11-3.31-.7.94 1.28 2.37 1.53 3.31.7zM129.85 127.85c-1.23-.01-2.59-.77-3.53-.13-.07 1.9 2.63 2.03 3.53.13zM139.87 62.99c.03-.07.06-.14.1-.21-.04.07-.07.13-.11.2l.01.01z"/><path d="M50.46 203.5c45.06 32.81 109.76 25.52 145.21-17.76 25.66-30.4 31.31-75.27 14.07-111.09-23.03-49.41-82.41-72.47-132.81-51.78-51.38 20.34-78.16 79.44-60.36 131.82 4.27 12.91 10.95 25.04 19.66 35.55-14.42-14.91-24.32-34.19-28-54.65C-7.05 50.55 76.95-17.39 157.26 13.27c71.99 27.28 95.31 119.66 44.34 177.5-37.89 44.1-106.67 50.5-151.14 12.73z"/></svg>