<svg xmlns="http://www.w3.org/2000/svg"   viewBox="0 0 1000 700"   fill="#919F8E" fill-rule="evenodd">
	<path
		d="M 2.174 2.314 C 0.657 3.930, 0 5.893, 0 8.814 C 0 11.117, 0.337 12.979, 0.750 12.954 C 1.163 12.928, 4.650 10.007, 8.500 6.462 L 15.500 0.017 9.924 0.009 C 5.382 0.002, 3.946 0.429, 2.174 2.314 M 40.537 7.250 C 32.358 16.202, 29.647 21.685, 27.067 34.500 C 24.934 45.097, 20.428 61.743, 14.345 81.500 C 11.064 92.157, 10.642 94.748, 10.575 104.655 C 10.501 115.675, 10.538 115.858, 13.590 119.655 C 15.289 121.770, 18.889 125.198, 21.590 127.274 C 28.386 132.497, 62.306 149.177, 74.848 153.464 C 87.050 157.634, 99.156 163.730, 104.753 168.520 C 110.751 173.655, 114.326 180.061, 119.515 194.975 C 125.302 211.604, 134.770 233.892, 138.869 240.531 C 140.556 243.264, 142.824 247.118, 143.909 249.095 C 147.029 254.779, 152.246 258.764, 157.622 259.571 C 164.116 260.544, 177.660 259.443, 189 257.018 C 209.837 252.564, 224.626 253.536, 238 260.241 C 243.373 262.935, 244.898 264.280, 246.794 268 C 248.461 271.271, 248.927 273.456, 248.500 276 C 247.464 282.170, 242.270 291.292, 235.403 299 C 220.932 315.244, 216.931 324.018, 216.239 341.030 L 215.769 352.560 219.914 362.298 C 227.169 379.343, 227.182 381.952, 220.111 401.691 C 215.302 415.114, 210.081 425.700, 205.943 430.412 C 198.787 438.562, 179.945 443.086, 147.080 444.545 C 130.215 445.294, 122.960 446.639, 117.656 450.003 C 110.634 454.456, 108.499 458.189, 103.911 474.027 C 99.220 490.222, 94.630 500.307, 89.718 505.208 C 87.904 507.019, 80.812 511.726, 73.960 515.669 C 46.203 531.639, 30.473 547.780, 20.799 570.221 C 15.913 581.553, 11.622 596.821, 9.476 610.507 C 7.465 623.333, 7.861 645.635, 10.444 665 C 11.440 672.463, 12.104 684.149, 12.093 694 C 12.070 713.932, 13.361 719.856, 19.164 726.449 C 26.750 735.067, 30.124 736.075, 59.287 738.441 C 74.080 739.641, 77.941 740.292, 82.283 742.317 C 85.152 743.655, 96.950 751.845, 108.500 760.516 C 120.050 769.187, 131.928 777.405, 134.895 778.780 C 137.862 780.154, 143.658 781.764, 147.775 782.357 C 155.621 783.488, 154.231 783.639, 203.500 776.298 C 215.874 774.454, 219.868 774.869, 225.567 778.591 C 230.718 781.954, 234.811 787.453, 241.192 799.580 C 251.040 818.295, 261.258 824.981, 280 824.973 C 290.331 824.969, 294.875 823.746, 336.239 809.837 C 371.434 798.002, 372.776 797.637, 382.782 797.192 C 392.045 796.780, 393.945 797.014, 401.596 799.502 C 411.017 802.567, 416.307 805.642, 416.830 808.357 C 417.268 810.633, 412.837 814.842, 394.205 829.850 C 386.117 836.364, 377.549 843.820, 375.165 846.418 C 369.770 852.294, 365.125 862.044, 364.031 869.784 C 363.131 876.151, 364.151 898.559, 365.932 911.525 C 367.109 920.099, 366.378 926.767, 363.505 933.642 C 360.089 941.818, 357.722 943.669, 339.253 952.605 C 318.209 962.788, 310.025 967.930, 302.177 975.901 C 297.381 980.772, 290.895 990.861, 287.167 999.250 C 286.983 999.662, 287.972 1000, 289.364 1000 C 291.512 1000, 292.602 998.703, 296.559 991.445 C 299.124 986.739, 302.350 981.550, 303.727 979.912 C 308.203 974.593, 318.134 968.384, 337.414 958.852 C 369.568 942.954, 373.027 937.098, 369.516 904.507 C 368.480 894.897, 367.934 883.854, 368.174 877.396 C 368.536 867.673, 368.919 865.800, 371.728 860 C 376.467 850.216, 379.244 847.165, 394.500 834.976 C 414.050 819.356, 421 812.403, 421 808.466 C 421 797.405, 391.217 789.323, 369.408 794.466 C 366.058 795.256, 346.933 801.419, 326.908 808.161 L 290.500 820.419 280.500 820.407 C 263.765 820.388, 254.376 815.172, 247.982 802.339 C 238.934 784.181, 230.206 774.274, 220.879 771.574 C 215.885 770.128, 214.571 770.159, 202.500 772.014 C 154.551 779.383, 155.885 779.234, 148.556 778.044 C 138.138 776.353, 131.573 772.608, 108 754.909 C 96.175 746.031, 85.052 738.144, 83.282 737.383 C 81.512 736.622, 74.312 735.529, 67.282 734.952 C 41.057 732.803, 35.115 731.883, 29.692 729.130 C 20.133 724.277, 15.170 712.643, 16.428 698.042 C 17.066 690.644, 15.032 661.848, 12.999 649.500 C 9.574 628.693, 14.508 597.091, 24.969 572.826 C 35.239 549.006, 47.238 536.195, 73.043 521.500 C 87.483 513.277, 96.422 505.461, 100.740 497.281 C 102.419 494.102, 105.242 486.325, 107.014 480 C 111.861 462.703, 113.721 458.314, 117.393 455.514 C 122.988 451.247, 128.574 449.961, 146 448.932 C 186.672 446.530, 200.259 443.067, 209.544 432.740 C 215.248 426.395, 218.411 420.206, 224.369 403.731 C 231.596 383.746, 231.548 377.234, 224.043 359.602 C 220.743 351.847, 220 348.937, 220 343.761 C 220 330.460, 226.379 315.685, 237.598 303 C 250.399 288.527, 254.069 280.613, 252.581 270.692 C 251.430 263.018, 244.883 257.086, 232.917 252.876 C 223.506 249.565, 201.999 249.586, 186.500 252.921 C 173.739 255.668, 160.113 256.180, 155.180 254.100 C 148.187 251.150, 136.583 228.570, 123.590 192.624 C 118.163 177.611, 117.800 176.863, 113.212 171.235 C 105.751 162.084, 92.125 153.910, 76 148.913 C 66.677 146.023, 26.878 126.225, 21.621 121.861 C 19.487 120.090, 16.910 116.810, 15.893 114.571 C 12.412 106.906, 13.287 101.625, 24.271 64 C 26.760 55.475, 29.793 43.550, 31.011 37.500 C 33.926 23.019, 37.346 16.387, 46.609 7.250 L 53.960 0 50.561 0 C 47.617 0, 46.274 0.971, 40.537 7.250 M 151.523 3.732 C 151.137 5.784, 151.399 17.748, 152.104 30.318 C 153.699 58.756, 152.718 70.613, 147.909 81.047 C 145.339 86.622, 143.845 88.463, 139.413 91.515 C 132.346 96.383, 121.266 108.202, 118.913 113.384 C 117.875 115.669, 117.034 119.801, 117.022 122.673 C 116.994 129.160, 119.093 131.857, 129.422 138.610 C 133.536 141.299, 137.374 144.534, 137.951 145.797 C 138.528 147.060, 139.004 152.910, 139.008 158.797 C 139.024 179.243, 142.193 196.593, 147.425 204.882 C 154.887 216.702, 165.361 221.457, 206 231.477 C 229.974 237.388, 247.771 245.695, 259.978 256.670 C 267.034 263.014, 272.006 273.077, 271.985 280.972 C 271.946 295.667, 264.509 312, 257.857 312 C 255.578 312, 244.847 324.018, 241.928 329.839 C 239.037 335.605, 238.803 343.438, 241.207 354 C 243.548 364.290, 246 384.832, 246 394.158 C 246 405.770, 241.814 422.247, 235.752 434.500 C 230.351 445.415, 227.809 447.108, 211.602 450.588 C 205.496 451.899, 195.775 454.104, 190 455.487 C 183.589 457.022, 173.658 458.406, 164.500 459.041 C 146.437 460.294, 140.726 461.778, 134.240 466.904 C 124.471 474.627, 120.492 481.155, 117.051 495.113 C 115.913 499.726, 113.625 506.280, 111.964 509.678 C 109.147 515.444, 108.431 516.133, 101.223 520.020 C 86.454 527.984, 74.247 538.581, 68.500 548.426 C 65.202 554.075, 53.561 581.482, 49.476 593.213 C 43.967 609.030, 40.436 639.487, 41.240 664.241 C 41.823 682.182, 43.336 687.089, 50.753 695.100 C 56.315 701.108, 56.318 701.109, 73.500 706.579 C 88.963 711.502, 112.519 724.114, 131.279 737.515 C 165.705 762.105, 164.410 761.533, 185.500 761.434 C 200.240 761.365, 219.417 758.870, 224.193 756.400 C 227.844 754.512, 230.368 754.637, 234.858 756.928 C 239.010 759.046, 242.278 762.483, 251.911 774.864 C 263.987 790.385, 271.853 795.735, 285.990 798.040 C 302.728 800.770, 330.908 795.907, 367.500 783.974 C 390.364 776.517, 405.535 773.658, 422.500 773.608 C 437.419 773.563, 450.913 775.564, 458.637 778.966 C 463.100 780.931, 464.289 783.199, 465.543 792.137 C 467.111 803.321, 456.906 814.190, 428.376 831.721 C 416.597 838.958, 406.319 849.233, 400.949 859.138 L 397.500 865.500 397 910 L 396.500 954.500 393.190 961.500 C 389.151 970.042, 386.280 973.171, 378.500 977.505 C 368.422 983.120, 361.267 984.953, 343.235 986.538 C 334.110 987.340, 324.070 988.719, 320.925 989.601 C 314.967 991.273, 308 996.109, 308 998.573 C 308 1000.447, 312.885 1000.464, 313.603 998.592 C 315.041 994.845, 328.493 991.648, 348 990.417 C 360.923 989.601, 367.325 988.032, 376.987 983.313 C 384.983 979.408, 393.465 971.868, 396.533 965.938 C 400.665 957.952, 400.976 954.140, 400.988 911.352 L 401 870.203 405.447 861.352 C 410.998 850.300, 417.004 843.944, 428.396 837.063 C 447.652 825.432, 465.329 810.305, 468.455 802.782 C 471.197 796.184, 469.721 782.461, 465.824 778.312 C 463.111 775.425, 455.667 772.634, 446 770.881 C 436.589 769.174, 408.602 769.141, 400.500 770.828 C 385.842 773.881, 379.628 775.476, 366.500 779.560 C 343.674 786.660, 335.160 788.958, 322.500 791.433 C 306.318 794.597, 297.871 795.263, 289.326 794.048 C 273.800 791.842, 266.245 786.789, 253.545 770.115 C 246.284 760.582, 241.792 755.833, 237.027 752.651 C 233.961 750.603, 224.953 750.457, 221.200 752.394 C 217.765 754.166, 201.445 756.769, 188.500 757.608 C 172.985 758.614, 162.885 755.318, 148.500 744.556 C 113.981 718.729, 89.927 705.452, 67.032 699.587 C 58.342 697.360, 54.443 694.703, 50.976 688.643 C 45.960 679.877, 44.606 671.076, 45.343 652.034 C 46.278 627.884, 49.066 608.714, 53.473 596.142 C 57.468 584.747, 67.376 561.159, 72.098 551.805 C 77.299 541.503, 87.608 532.190, 101.537 525.211 C 108.111 521.917, 115.334 514.838, 117.563 509.504 C 118.338 507.648, 120.088 501.839, 121.450 496.597 C 124.400 485.240, 126.800 480.257, 132.074 474.536 C 138.773 467.268, 145.485 464.986, 164.900 463.380 C 183.132 461.871, 187.242 461.188, 203.500 456.967 C 209.550 455.397, 216.750 453.816, 219.500 453.454 C 233.118 451.663, 242.460 438.189, 248.458 411.688 C 251.213 399.518, 249.751 371.422, 245.313 351.256 C 243.120 341.287, 243.305 337.941, 246.403 331.609 C 249.967 324.324, 255.425 318.317, 260.838 315.722 C 270.887 310.904, 275.500 300.294, 275.500 282 C 275.500 272.145, 275.193 269.928, 273.353 266.500 C 267.800 256.158, 257.059 247.248, 239.113 238.098 C 228.721 232.800, 224.758 231.425, 208.342 227.423 C 185.238 221.790, 172.575 217.801, 163.801 213.393 C 155.741 209.342, 153.742 207.327, 150.017 199.500 C 145.890 190.827, 143.995 179.933, 143.333 161.087 L 142.750 144.500 139.652 141.222 C 137.947 139.419, 133.705 136.088, 130.224 133.820 C 123.881 129.687, 121 125.977, 121 121.940 C 121 116.297, 131.721 101.865, 140 96.363 C 148.249 90.881, 152.724 84.547, 155.094 75 C 156.537 69.186, 156.932 44.582, 156 18.500 C 155.725 10.800, 155.868 3.488, 156.317 2.250 C 157.024 0.306, 156.801 0, 154.679 0 C 152.634 0, 152.105 0.626, 151.523 3.732 M 242.298 12.250 C 221.121 32.967, 217.460 38.960, 214.042 58.500 C 210.346 79.624, 206.878 87.428, 199.626 90.939 C 193.734 93.791, 185.466 102.659, 184.095 107.595 C 182.728 112.520, 182.692 124.352, 184.030 129.169 C 185.472 134.360, 192.562 141.804, 201.908 147.940 C 210.782 153.766, 213.983 158.423, 214.021 165.566 C 214.049 170.701, 218.018 181.845, 221.396 186.275 C 227.929 194.840, 235.498 197.651, 255.691 199.013 C 264.239 199.589, 271.478 200.608, 273.893 201.574 C 278.271 203.326, 278.519 203.805, 281.884 217 C 284.269 226.353, 287.914 234.674, 293.150 242.721 C 298.280 250.606, 299.206 254.649, 297.872 263.327 C 297.294 267.082, 297.084 271.200, 297.405 272.478 C 297.726 273.756, 300.953 278.534, 304.576 283.096 C 317.323 299.144, 318.985 306.624, 310.869 311.418 C 309.240 312.380, 302.653 314.933, 296.230 317.091 C 283.165 321.480, 275.991 325.733, 270.642 332.262 C 264.206 340.116, 263.689 342.895, 264.640 364.500 C 266.042 396.322, 265.390 404.864, 260.600 417.455 C 259.335 420.780, 256.627 427.860, 254.583 433.188 C 248.177 449.888, 239.937 459.510, 226.071 466.484 C 217.923 470.583, 213.772 471.839, 201.077 474.048 C 194.709 475.156, 187.250 476.786, 184.500 477.670 C 164.313 484.162, 141.393 503.593, 122.774 530 C 116.393 539.050, 100.907 567.043, 94.005 582 C 85.912 599.540, 82.788 609.111, 82.233 618.065 C 81.788 625.252, 82.050 626.454, 87.464 642.065 C 99.188 675.871, 106.768 686.470, 126.786 697.046 C 131.344 699.454, 141.919 706.536, 150.286 712.783 C 168.868 726.658, 172.145 728.590, 178.438 729.388 C 181.154 729.732, 186.104 731.102, 189.438 732.433 C 195.479 734.845, 204.807 736.181, 225.432 737.588 C 244.787 738.908, 248.884 740.757, 264.840 755.374 C 276.815 766.345, 285.027 771.078, 297.113 773.975 C 307.331 776.425, 323.460 776.650, 336.500 774.526 C 348.665 772.543, 386.719 764.116, 413 757.584 C 431.514 752.982, 436.770 752.080, 450.846 751.089 C 459.836 750.456, 469.481 749.447, 472.279 748.847 C 479.102 747.383, 488.640 748.265, 493.653 750.823 C 496.665 752.360, 498.177 753.986, 499.374 756.976 C 501.468 762.210, 501.425 764.418, 498.931 779.767 C 497.793 786.770, 496.685 796.653, 496.468 801.728 C 495.861 815.937, 492.916 820.486, 477.840 830.496 C 465.224 838.872, 444.546 859.204, 435.120 872.500 C 421.488 891.729, 418.650 901.431, 416.987 934.500 C 416.461 944.950, 415.843 956.875, 415.612 961 C 415.137 969.505, 412.360 977.823, 407.974 983.877 C 404.291 988.962, 396.234 993.173, 383.850 996.487 C 378.841 997.828, 374.500 999.167, 374.204 999.462 C 373.909 999.758, 377.220 1000, 381.562 1000 C 392.614 1000, 401.363 996.594, 408.409 989.547 C 417.717 980.239, 419.769 973.294, 420.534 948.500 C 421.195 927.086, 422.444 913.210, 424.513 904.286 C 429.353 883.417, 453.946 851.701, 477.154 836.399 C 487.703 829.443, 495.965 821.881, 498.671 816.705 C 499.798 814.548, 500.429 810.557, 500.599 804.500 C 500.738 799.550, 501.831 789.445, 503.027 782.044 C 504.323 774.027, 505.048 765.847, 504.819 761.804 C 504.453 755.328, 504.234 754.814, 499.996 750.495 C 497.511 747.964, 494.002 745.540, 492.028 744.991 C 487.630 743.769, 473.837 743.747, 468.500 744.953 C 466.300 745.450, 457.300 746.367, 448.500 746.992 C 435.428 747.920, 429.298 748.932, 415 752.520 C 399.090 756.514, 361.428 765.111, 340 769.642 C 334.083 770.893, 327.093 771.443, 317 771.451 C 303.293 771.463, 302.021 771.293, 293.739 768.347 C 281.964 764.159, 275.545 760.106, 264.658 749.989 C 259.621 745.308, 254.084 740.473, 252.354 739.245 C 247.783 736, 239.529 734.317, 222 733.053 C 203.253 731.702, 195.848 730.473, 190.736 727.865 C 188.606 726.779, 184.531 725.625, 181.682 725.302 C 174.350 724.471, 169.426 721.705, 151.914 708.580 C 143.436 702.226, 131.869 694.486, 126.210 691.379 C 118.912 687.373, 114.615 684.244, 111.431 680.615 C 105.376 673.714, 98.224 658.886, 91.408 639.096 C 86.619 625.191, 85.843 621.970, 86.320 617.949 C 87.636 606.832, 97.466 583.691, 112.208 557 C 126.818 530.549, 134.951 519.150, 148.652 505.925 C 164.844 490.295, 181.625 481.646, 202 478.429 C 222.053 475.263, 233.489 469.663, 245.066 457.341 C 252.785 449.125, 255.683 444.233, 260.579 431.157 C 268.246 410.673, 269.150 406.633, 269.332 392 C 269.424 384.575, 269.102 371.502, 268.615 362.949 C 267.772 348.142, 267.834 347.165, 269.895 342.504 C 274.649 331.758, 280.423 327.363, 297 321.873 C 309.131 317.855, 311.664 316.581, 316.250 312.187 C 319.709 308.873, 320 308.160, 320 302.993 C 320 296.683, 317.650 292.187, 308.819 281.601 C 301.577 272.921, 301.002 271.478, 302.198 264.982 C 303.762 256.488, 302.576 248.698, 298.909 243.367 C 294.040 236.291, 288.274 223.167, 285.532 212.923 C 283.526 205.427, 282.346 202.880, 279.616 200.149 C 276.411 196.944, 275.639 196.684, 266.852 195.852 C 242.168 193.513, 239.849 193.118, 233.578 190.183 C 229.297 188.180, 226.663 186.189, 225.239 183.878 C 221.783 178.268, 219.030 170.260, 217.956 162.689 C 217.071 156.447, 216.460 155.024, 213.220 151.660 C 211.174 149.536, 206.125 145.511, 202 142.716 C 193.326 136.839, 192.717 136.198, 189.455 129.500 C 185.790 121.977, 186.053 114.176, 190.250 105.905 C 193.004 100.478, 194.291 99.076, 198.681 96.723 C 205.735 92.943, 212.130 85.611, 214.230 78.896 C 215.159 75.928, 216.865 68.100, 218.021 61.500 C 221.306 42.757, 225.464 35.070, 241.367 18.345 C 247.635 11.753, 252.856 7.271, 256.688 5.194 C 266.059 0.112, 266.113 0.032, 260.160 0.015 L 254.820 0 242.298 12.250 M 378 0.517 C 378 1.692, 389.528 23.915, 392.776 29 C 397.959 37.116, 409.527 48.569, 417.500 53.479 C 421.350 55.849, 428.663 59.411, 433.750 61.394 C 438.837 63.377, 447.163 66.622, 452.250 68.606 C 479.094 79.069, 491.869 89.156, 526.839 127.500 C 558.718 162.455, 575.875 176.105, 602.741 187.886 C 632.418 200.901, 643.361 212.344, 647.890 235.100 C 650.971 250.578, 659.242 266.096, 674.489 285 C 684.208 297.051, 696.206 310, 697.653 310 C 700.905 310, 699.453 307.248, 691.814 298.927 C 670.131 275.308, 655.610 251.132, 651.920 232.503 C 649.245 218.999, 647.077 214.968, 637.060 204.873 C 627.471 195.209, 618.513 189.374, 603.873 183.257 C 578.375 172.603, 561.252 159.172, 531.273 126.307 C 491.530 82.740, 481.088 74.807, 444.857 60.654 C 425.213 52.981, 421.529 51.194, 413.240 45.320 C 405.047 39.515, 398.746 31.017, 389.968 13.937 C 383.769 1.876, 382.482 0, 380.402 0 C 379.081 0, 378 0.232, 378 0.517 M 414.620 4.750 C 416.058 16.480, 418.601 22.214, 425.915 30.217 C 438.242 43.705, 458.240 53.383, 485.500 59.056 C 503.470 62.795, 518.991 70.838, 530.588 82.421 C 536.769 88.594, 538.555 91.292, 544.543 103.500 C 550.943 116.550, 552.022 118.112, 560.454 126.521 C 569.036 135.080, 579.288 142, 583.386 142 C 584.269 142, 588.186 144.931, 592.089 148.513 C 604.901 160.270, 618.633 169.845, 636.500 179.476 C 656.635 190.331, 668.455 203.135, 680.602 227.250 C 685.770 237.510, 688.258 240.098, 689.597 236.608 C 690.345 234.658, 682.882 220.163, 675.781 209.776 C 665.176 194.263, 651.547 181.997, 636 173.974 C 625.253 168.427, 605.071 154.656, 595.625 146.423 C 590.157 141.658, 583.824 137.262, 579.125 134.971 C 565.081 128.123, 558.009 120.545, 550.223 104 C 542.956 88.559, 536.174 80.015, 524.092 71.080 C 512.483 62.495, 501.976 57.844, 487.600 54.928 C 465.645 50.476, 443.817 41.051, 433.192 31.436 C 425.729 24.682, 420.212 14.457, 419.309 5.704 C 418.778 0.557, 418.491 -0, 416.379 -0 C 414.171 -0, 414.071 0.270, 414.620 4.750 M 440 1.850 C 440 2.867, 441.289 5.455, 442.864 7.600 C 446.648 12.753, 459.346 24.847, 465 28.683 C 476.873 36.739, 492.602 42.623, 508.500 44.956 C 512.900 45.601, 519.650 46.607, 523.500 47.190 C 527.350 47.773, 534.325 49.581, 539 51.209 C 555.569 56.977, 566.494 64.572, 573.701 75.334 C 576.340 79.275, 586.214 93.086, 595.641 106.026 C 610.057 125.811, 614.032 130.575, 620.641 135.994 C 624.964 139.538, 628.725 142.693, 629 143.006 C 630.015 144.161, 662.081 168.101, 680.500 181.456 C 699.284 195.076, 699.504 195.200, 699.838 192.395 C 700.023 190.835, 699.678 189.393, 699.070 189.190 C 697.675 188.725, 655.995 158.422, 642 147.698 C 618.260 129.507, 617.486 128.710, 599.268 103.722 C 589.906 90.882, 581.457 78.829, 580.494 76.938 C 579.530 75.047, 574.862 69.663, 570.121 64.973 C 556.161 51.166, 543.294 45.568, 517 41.865 C 493.502 38.555, 475.495 31.569, 460.355 19.888 C 454.407 15.299, 448.189 8.282, 445.613 3.250 C 443.759 -0.370, 440 -1.308, 440 1.850 M 455 0.919 C 455 1.425, 457.293 4.348, 460.095 7.414 C 466.122 14.008, 473.844 18.034, 486.099 20.972 C 496.243 23.404, 500.326 23.517, 502.070 21.416 C 504.479 18.514, 501.892 16.671, 492.860 14.854 C 480.996 12.468, 471.404 8.404, 466.823 3.823 C 463.667 0.667, 462.302 0, 459 0 C 456.800 0, 455 0.414, 455 0.919 M 501.500 1.309 C 506.891 5.140, 528.463 8, 551.972 8 L 566.731 8 573.616 11.480 C 583.308 16.379, 592.807 23.764, 605.118 35.972 C 617.397 48.148, 626.704 60.326, 631.577 70.594 C 633.459 74.562, 635.004 78.189, 635.010 78.654 C 635.029 80.311, 642.253 88.564, 647.831 93.302 C 655.229 99.584, 670.326 107.100, 684.549 111.579 C 696.025 115.193, 698.994 115.523, 699.746 113.264 C 700.228 111.815, 698.821 111.193, 685.500 106.962 C 672.224 102.746, 656.894 95.204, 649.514 89.258 C 643.572 84.470, 641.639 81.520, 635.198 67.405 C 627.335 50.176, 592.699 15.458, 574.331 6.395 C 569.381 3.952, 568.285 3.830, 548.331 3.495 C 536.874 3.302, 525.025 2.609, 522 1.955 C 518.975 1.300, 512.675 0.568, 508 0.327 C 500.451 -0.063, 499.724 0.047, 501.500 1.309 M 606.010 4.250 C 609.426 8.811, 628.223 36.892, 628.883 38.420 C 629.772 40.479, 643.967 54.628, 650.584 60.052 C 659.179 67.096, 676.824 78.684, 686.681 83.758 C 692.150 86.573, 694.199 87.201, 695.071 86.329 C 696.870 84.530, 695.648 83.474, 684.713 77.375 C 672.078 70.329, 656.554 59.860, 648.127 52.702 C 642.439 47.872, 629.095 32.580, 629.027 30.813 C 629.012 30.435, 624.460 23.348, 618.911 15.063 C 609.652 1.239, 608.576 -0, 605.825 -0 L 602.827 -0 606.010 4.250 M 641.462 1.750 C 643.924 8.122, 646.073 15.651, 647.527 23 C 649.066 30.784, 649.600 31.907, 653.854 36.326 C 661.703 44.479, 693.762 64.578, 697.708 63.818 C 701.566 63.075, 699.154 60.355, 690.500 55.694 C 678.324 49.135, 662.307 38.869, 657.842 34.763 C 655.567 32.671, 653.819 29.907, 653.217 27.450 C 652.684 25.277, 651.256 19.278, 650.042 14.117 C 647.155 1.841, 646.267 -0, 643.232 -0 C 641.312 -0, 640.931 0.376, 641.462 1.750 M 655.453 1.750 C 659.614 12.675, 676.475 32.504, 681.038 31.837 C 684.885 31.275, 684.330 29.383, 679.485 26.544 C 674.423 23.577, 667.521 14.936, 662.878 5.750 C 660.465 0.976, 659.531 0, 657.379 0 C 655.322 0, 654.924 0.362, 655.453 1.750 M 343.500 16.676 C 335.836 18.378, 322.474 26.333, 314.660 33.846 C 307.743 40.498, 301.979 49.008, 296.609 60.500 C 291.998 70.368, 291.707 70.724, 274.553 87.500 C 264.992 96.850, 256.636 105.568, 255.984 106.873 C 255.331 108.179, 254.555 113.644, 254.259 119.019 C 253.448 133.737, 254.461 135.327, 280.278 159.879 C 289.476 168.627, 317.961 210.459, 322.743 222.241 C 324.868 227.479, 325.096 229.712, 325.339 247.741 C 325.503 259.909, 326.051 268.545, 326.766 270.219 C 327.404 271.714, 330.463 275.696, 333.562 279.068 C 342.554 288.848, 346.236 298.871, 343.421 305.907 C 341.993 309.476, 339.707 311.569, 327.975 320.053 C 309.143 333.672, 304.996 338.404, 295.156 357.504 C 290.664 366.224, 286.667 375.392, 286.091 378.300 C 285.524 381.160, 284.122 392.050, 282.976 402.500 C 279.020 438.551, 276.069 447.563, 263.786 461.100 C 258.541 466.881, 256.500 469.882, 256.500 471.815 C 256.500 477.207, 260.271 475.149, 270.364 464.251 C 283.652 449.903, 285.821 443.352, 289.989 405 C 292.442 382.420, 293.978 375.394, 297.844 369.069 C 299.379 366.556, 302.958 359.775, 305.796 354 C 308.634 348.225, 312.428 341.925, 314.228 340 C 316.028 338.075, 322.634 332.900, 328.909 328.500 C 344.667 317.451, 349.739 312.678, 351.108 307.615 C 353.664 298.158, 349.697 285.819, 341.184 276.747 C 332.622 267.625, 332.511 267.224, 332.418 245 C 332.323 222.372, 331.859 220.543, 322.389 205.454 C 303.789 175.818, 292.382 161.530, 272.351 142.772 C 269.574 140.171, 265.825 135.273, 264.020 131.886 C 260.931 126.091, 260.776 125.321, 261.383 118.787 C 261.738 114.970, 262.652 110.643, 263.415 109.173 C 264.178 107.703, 272.641 98.850, 282.222 89.500 L 299.642 72.500 305.889 59.578 C 313.732 43.357, 320.528 36.058, 334.500 28.846 C 346.442 22.683, 350.281 22.095, 356.856 25.427 C 362.461 28.267, 367.742 34.122, 378.918 49.884 C 382.784 55.338, 388.322 61.887, 391.224 64.439 C 397.121 69.624, 412.752 77.610, 429.500 83.994 C 457.992 94.855, 465.315 100.293, 506.654 141.288 C 537.871 172.247, 541.026 174.779, 541.786 169.490 C 541.994 168.040, 533.857 159.201, 511.786 136.905 C 470.795 95.495, 461.638 88.407, 436.419 78.567 C 413.608 69.666, 399.488 62.507, 394.102 57.111 C 391.571 54.575, 386.350 48.016, 382.500 42.535 C 374.410 31.019, 364.108 20.212, 358.849 17.726 C 355.440 16.115, 348.245 15.622, 343.500 16.676 M 554 29.820 C 554 31.132, 556.904 33.084, 564.404 36.812 C 578.133 43.636, 588.713 50.811, 594.687 57.348 C 597.362 60.275, 604.292 69.607, 610.088 78.085 C 631.327 109.157, 636.946 114.976, 653.500 123.044 C 669.061 130.627, 688.548 135.588, 689.721 132.264 C 690.229 130.824, 688.378 130.034, 677.500 127.049 C 658.802 121.917, 643.728 114.015, 634.750 104.638 C 631.587 101.335, 629 98.270, 629 97.827 C 629 97.385, 627.051 94.430, 624.669 91.261 C 622.287 88.093, 616.569 79.908, 611.962 73.073 C 598.466 53.050, 587.447 43.158, 567.090 32.792 C 556.901 27.604, 554 26.945, 554 29.820 M 402.500 92.935 C 393.494 95.128, 387.149 101.250, 374.386 120.065 C 360.084 141.148, 359.845 142.008, 365.452 152.216 C 367.351 155.672, 370.078 161.620, 371.513 165.434 C 376.526 178.762, 376.787 180.926, 375.970 202.500 C 375.277 220.824, 374.959 223.308, 372.177 232.146 C 366.290 250.844, 365.590 269.319, 369.990 289.902 C 372.661 302.397, 372.566 308.242, 369.587 314.640 C 367.531 319.057, 366.322 320.244, 360.986 323.088 C 353.270 327.201, 338.391 341.619, 327.022 356 C 313.167 373.526, 312 377.652, 312 409.122 C 312 441.727, 309.468 452.468, 299.198 463.434 C 296.588 466.220, 290.038 474.023, 284.642 480.773 C 272.827 495.552, 265.587 501.684, 253 507.571 C 220.298 522.867, 206.012 533.101, 191.150 551.875 C 181.822 563.660, 176.470 571.796, 172.447 580.309 C 167.244 591.319, 167.120 595.635, 171.410 616.269 C 175.360 635.268, 178.604 645.942, 182.386 652.394 C 185.329 657.414, 202.215 673.952, 211.035 680.452 C 223.726 689.806, 231.020 692.627, 260.128 699.438 C 277.974 703.614, 288.504 708.090, 291.986 712.980 C 295.524 717.948, 301.594 721.785, 310.238 724.515 C 329.259 730.524, 350.991 731.647, 368.822 727.542 C 374.695 726.190, 392.464 722.818, 408.308 720.050 C 431.222 716.046, 437.984 714.507, 441.360 712.529 C 447.727 708.798, 465.145 701.709, 479.102 697.169 C 499.087 690.668, 537.942 685.733, 551.945 687.917 C 565.731 690.068, 572.973 694.803, 575.503 703.321 C 577.230 709.136, 576.732 711.999, 571.472 726.500 C 566.455 740.332, 562.132 757.614, 560.985 768.416 C 560.191 775.900, 560.391 780.407, 562.118 794 C 563.272 803.075, 565.081 812.814, 566.139 815.643 C 568.440 821.793, 575.261 828.584, 583.117 832.547 C 597.691 839.898, 615.053 854.356, 618.508 862.018 C 620.842 867.194, 619.929 870.162, 615.281 872.508 C 611.814 874.257, 608.053 874.472, 570 875.090 C 526.264 875.801, 517.439 876.619, 505.559 881.064 C 493.503 885.575, 479.097 898.172, 474.504 908.219 C 470.366 917.270, 469.668 925.652, 470.357 958 C 470.888 982.943, 471.277 988.427, 472.874 993.500 C 474.318 998.088, 475.261 999.575, 476.881 999.820 C 479.509 1000.216, 479.522 999.253, 476.995 991 C 475.314 985.511, 474.906 980.379, 474.367 958 C 473.626 927.226, 474.374 920.072, 479.454 909.306 C 483.791 900.115, 489.809 894.320, 500.909 888.649 C 516.469 880.698, 529.678 879.041, 577.701 879.016 C 610.049 878.999, 616.257 878.338, 620.920 874.414 C 624.504 871.398, 625.368 868.082, 623.946 862.799 C 621.730 854.568, 599.893 835.930, 580.159 825.426 C 572.405 821.298, 569.530 815.176, 566.894 797.176 C 564.688 782.105, 564.405 771.385, 565.992 763 C 567.660 754.189, 571.851 739.507, 576.097 727.606 C 582.614 709.335, 582.345 701.585, 574.914 693.523 C 564.798 682.548, 548.081 680.777, 508 686.433 C 483.913 689.832, 463.637 696.123, 442.448 706.773 C 433.910 711.065, 430.651 711.847, 398 717.444 C 386.725 719.376, 372.550 722.088, 366.500 723.470 C 350.338 727.161, 336.208 726.722, 317.654 721.953 C 306.801 719.164, 300.444 715.686, 294.004 709.017 C 287.572 702.356, 282.916 700.307, 264 695.811 C 226.815 686.975, 216.556 681.924, 196.838 662.744 C 185.216 651.439, 181.490 642.889, 175.473 613.708 C 172.487 599.231, 172.155 596.272, 173.058 592.240 C 175.249 582.464, 182.751 569.538, 196.284 552.219 C 207.929 537.316, 220.161 528.639, 249.426 514.520 C 263.311 507.821, 265.524 506.379, 273.509 498.822 C 278.346 494.245, 285.913 486, 290.326 480.500 C 294.739 475, 300.683 468.012, 303.535 464.971 C 313.948 453.867, 315.003 449.459, 315.974 413 C 316.449 395.152, 317.199 383.005, 317.980 380.500 C 320.405 372.727, 325.005 365.123, 333.786 354.371 C 344.695 341.012, 354.993 331.348, 362.693 327.244 C 369.512 323.610, 372.322 320.868, 374.452 315.768 C 376.670 310.460, 376.406 298.168, 373.822 286.409 C 372.165 278.868, 371.653 273.274, 371.681 263 C 371.713 251.158, 372.057 248.395, 374.481 240.500 C 378.986 225.829, 379.744 220.505, 380.302 199.640 C 380.884 177.863, 380.495 175.076, 374.911 161.102 C 373.240 156.921, 370.465 151.301, 368.744 148.613 L 365.616 143.726 369.328 136.613 C 375.895 124.028, 389.987 104.855, 395.267 101.320 C 405.281 94.615, 415.462 94.630, 429.470 101.369 C 435.142 104.098, 440.556 108.463, 457.500 123.974 C 469.050 134.547, 488.850 153.418, 501.500 165.910 C 515.465 179.701, 527.643 190.797, 532.500 194.158 C 545.519 203.166, 558.947 210.701, 567.690 213.904 C 578.424 217.838, 585.328 221.345, 591.688 226.096 C 595.792 229.162, 597.674 231.587, 600.688 237.700 C 604.454 245.336, 604.499 245.566, 604.440 256.964 C 604.392 266.149, 603.695 271.658, 601.021 284 C 599.099 292.872, 597.640 302.499, 597.610 306.513 C 597.561 312.796, 597.951 314.252, 601.361 320.513 C 606.778 330.460, 622.793 354.365, 629.524 362.553 C 647.319 384.198, 654.567 402.434, 651.931 418.934 C 650.238 429.527, 646.032 438.719, 615.746 498 C 608.459 512.265, 603.853 522.513, 603.161 526 C 599.199 545.989, 598.500 551.461, 598.500 562.500 C 598.500 569.242, 599.048 576.299, 599.750 578.606 C 602.560 587.838, 611.998 596.337, 623.458 599.956 C 626.781 601.005, 635.576 604.346, 643.001 607.380 C 664.578 616.195, 674.433 617.842, 685.655 614.510 C 691.438 612.792, 699 607.684, 699 605.494 C 699 603.229, 697.075 603.660, 689.705 607.574 C 681.804 611.769, 674.694 612.834, 666.867 610.994 C 663.915 610.300, 653.850 606.694, 644.500 602.979 C 635.150 599.265, 626.375 595.891, 625 595.482 C 620.725 594.211, 611.583 589.311, 609.797 587.332 C 608.860 586.295, 606.841 582.758, 605.310 579.473 C 600.876 569.958, 601.291 558.605, 607.151 529.053 C 607.879 525.385, 615.355 509.514, 630.034 480.478 C 642.025 456.759, 652.873 434.010, 654.140 429.926 C 657.581 418.839, 657.321 404.483, 653.474 393.099 C 650.452 384.157, 643.755 373.004, 636 364 C 629.488 356.440, 611.368 329.265, 606.227 319.347 C 600.983 309.233, 600.907 306.809, 605.191 286.572 C 607.908 273.743, 608.391 269.342, 608.441 257 C 608.511 239.865, 607.428 236.532, 598.806 227.345 C 591.844 219.927, 583.954 214.893, 573.230 211.029 C 562.842 207.285, 551.160 201.131, 537.500 192.208 C 529.702 187.114, 522.766 181.013, 506 164.500 C 477.574 136.502, 437.212 99.659, 432.123 97.063 C 423.541 92.684, 410.814 90.911, 402.500 92.935 M 448.500 166.837 C 441.692 170.121, 433.030 180.572, 430.131 189 C 429.469 190.925, 428.266 198.800, 427.459 206.500 C 424.530 234.426, 418.311 261.770, 407.105 296 C 397.887 324.158, 387.414 341.059, 364.336 365.023 C 357.096 372.542, 349.625 381.124, 347.735 384.096 C 340.809 394.986, 337.682 407.700, 336.074 431.500 C 334.599 453.325, 331.428 461.240, 317.194 478.627 C 303.187 495.738, 292.601 506.603, 278.016 518.839 C 245.706 545.946, 235.910 555.108, 228.287 565.352 C 208.974 591.301, 204.529 605.545, 210.480 622.409 C 215.491 636.611, 228.114 653.722, 239.170 661.299 C 242.589 663.642, 248.559 666.194, 255.819 668.414 C 270.249 672.828, 278.273 676.602, 284.276 681.803 C 299.350 694.860, 316.264 702.800, 334.043 705.168 C 354.465 707.887, 400.894 699.379, 437 686.303 C 456.364 679.290, 464.949 675.550, 486 664.961 C 510.080 652.847, 514.987 651.307, 533.419 650.072 C 556.432 648.531, 570.896 642.339, 584.110 628.372 C 591.539 620.519, 593.320 616.896, 593.419 609.427 C 593.514 602.305, 592.526 600.544, 579.199 584.100 C 566.288 568.168, 562.526 558.112, 565.081 546.362 C 566.348 540.535, 592.890 486.535, 601.876 471.500 C 614.279 450.750, 617.187 436.804, 613.510 415.719 C 610.945 401.009, 605.288 387.760, 589.738 360.047 C 580.302 343.230, 576 334.104, 576 330.904 C 576 329.445, 578.474 320.207, 581.498 310.376 C 584.522 300.544, 587.925 288.225, 589.061 283 C 591.408 272.199, 591.907 257.278, 590.103 251.811 C 587.686 244.490, 578.672 238.563, 553.370 227.660 C 517.498 212.203, 512.098 208.559, 501.640 192.748 C 491.395 177.259, 486.614 172.818, 475.980 168.917 C 464.893 164.849, 454.285 164.046, 448.500 166.837 M 452.843 169.919 C 447.623 171.605, 443.819 174.575, 440.569 179.500 C 433.735 189.858, 433.989 188.872, 429.887 220.927 C 426.782 245.189, 418.758 277.392, 408.405 307.134 C 401.908 325.800, 390.059 343.651, 370.996 363.495 C 347.156 388.311, 343.172 397.137, 340.525 431 C 338.496 456.945, 336.121 462.906, 320.406 481.500 C 305.392 499.264, 293.731 510.951, 276.548 525.458 C 245.409 551.747, 240.885 556.034, 232.443 567.241 C 218.889 585.237, 211.238 601.918, 212.326 611.101 C 213.523 621.207, 223.174 639.753, 232.451 649.773 C 239.297 657.168, 244.375 659.894, 261.684 665.468 C 270.468 668.296, 277.109 671.073, 279.576 672.948 C 281.734 674.588, 287.100 678.687, 291.500 682.055 C 301.140 689.437, 314.635 696.193, 325.500 699.080 C 336.212 701.925, 350.299 701.926, 368.792 699.081 C 406.603 693.265, 442.653 681.286, 483.500 660.966 C 495.600 654.947, 508.200 649.330, 511.500 648.484 C 514.800 647.638, 523.575 646.544, 531 646.052 C 545.996 645.060, 554.486 642.901, 565 637.405 C 575.562 631.884, 582.120 626.128, 585.874 619.085 C 591.291 608.922, 590.184 604.462, 578.777 590.506 C 567.201 576.343, 564.028 571.544, 562.007 565.145 C 559.470 557.110, 559.455 548.973, 561.964 540.855 C 564.292 533.323, 579.352 502.591, 591.049 481.500 C 606.562 453.531, 608.017 450.277, 609.749 439.681 C 611.200 430.800, 611.197 429.158, 609.718 420.145 C 608.829 414.732, 607.115 407.423, 605.909 403.902 C 603.251 396.147, 593.048 375.648, 582.066 356 C 577.609 348.025, 573.523 339.925, 572.986 338 C 571.102 331.238, 571.916 325.433, 577.019 309.232 C 589.259 270.370, 590.146 253.182, 580.273 246.211 C 576.113 243.274, 566.632 238.669, 548.666 230.859 C 515.504 216.444, 508.625 211.319, 494.844 190.760 C 488.145 180.767, 486.270 178.668, 482.237 176.649 C 470.904 170.975, 458.421 168.117, 452.843 169.919 M 40.500 183 C 38.753 184.930, 38.753 185.070, 40.500 187 C 42.112 188.781, 43.580 189, 53.933 189 C 65.074 189, 65.848 189.140, 72.589 192.370 C 77.125 194.544, 80.925 197.263, 83.290 200.026 C 87.473 204.913, 94.376 217.840, 98.928 229.309 C 104.653 243.738, 106.392 246.211, 121.694 261.696 C 141.814 282.056, 145.990 283.977, 170 283.918 C 180.515 283.892, 185.048 283.437, 190.500 281.858 C 204.636 277.766, 211.698 278.442, 214.047 284.112 C 216.859 290.901, 211.852 304.725, 203.069 314.423 C 194.926 323.415, 193.383 329.655, 195.013 347 C 196.680 364.750, 198.017 371.886, 201.132 379.667 C 206.920 394.128, 204.503 402.843, 192.474 410.889 C 181.384 418.307, 176.232 419.843, 153 422.662 C 120.935 426.553, 108.183 431.739, 93.958 446.671 C 84.753 456.334, 80.788 463.661, 77.716 476.688 C 75.747 485.037, 74.554 487.867, 70.779 493.136 C 64.238 502.265, 58.695 505.301, 41.932 508.936 C 21.160 513.441, 14.848 516.262, 5.250 525.330 C 0.480 529.837, 0 530.688, 0 534.645 C 0 537.040, 0.412 539, 0.916 539 C 1.420 539, 3.237 537.225, 4.955 535.057 C 8.836 530.157, 18.194 523.824, 25.764 520.974 C 28.919 519.786, 37.425 517.537, 44.667 515.976 C 60.307 512.604, 62.573 511.537, 70.739 503.695 C 79.217 495.554, 82.467 490.091, 84.537 480.500 C 86.664 470.644, 90.407 462.215, 95.861 455 C 100.895 448.340, 105.140 445.020, 115 440.029 C 126.270 434.324, 134.441 432.204, 153.861 429.945 C 174.859 427.504, 181.307 426.020, 189.205 421.810 C 197.261 417.516, 208.521 406.964, 210.112 402.219 C 212.329 395.604, 211.507 386.488, 207.658 375 C 204.988 367.031, 203.785 361.077, 202.665 350.300 C 200.713 331.502, 201.876 326.303, 210.031 317.384 C 218.905 307.678, 222.477 298.454, 221.826 286.928 C 221.411 279.574, 219.514 276.378, 213.800 273.405 C 209.483 271.159, 197.517 271.590, 191 274.226 C 186.149 276.188, 183.672 276.453, 170 276.475 L 154.500 276.500 145.865 272.277 C 138.117 268.488, 136.023 266.793, 125.479 255.777 C 113.098 242.842, 112.616 242.072, 103.997 221.500 C 98.946 209.445, 94.465 201.846, 88.482 195.191 C 79.135 184.795, 69.498 181, 52.445 181 C 43.580 181, 42.083 181.251, 40.500 183 M 587.309 195.636 C 586.964 196.536, 587.091 197.920, 587.591 198.713 C 588.091 199.506, 595.925 204.761, 605 210.392 C 619.972 219.681, 621.750 221.087, 624.199 225.565 C 628.059 232.621, 629.384 242.071, 628.690 257.579 C 627.563 282.724, 629.371 287.869, 650.760 320.384 C 660.053 334.511, 672.006 347.845, 677.794 350.539 C 683.081 353.001, 694.566 361.634, 697.493 365.347 L 699.978 368.500 699.985 363 L 699.993 357.500 694.108 352.744 C 690.872 350.129, 685.586 346.409, 682.362 344.478 C 671.905 338.214, 667.537 333.050, 651.937 308.500 C 637.227 285.351, 634.908 278.028, 635.744 257.365 C 636.495 238.815, 634.623 226.965, 629.770 219.562 C 627.442 216.011, 622.776 212.575, 607.617 203.250 C 592.680 194.062, 588.513 192.499, 587.309 195.636 M 41.821 208.051 C 33.341 208.805, 6.722 212.586, 2.250 213.671 C 0.902 213.998, 0 214.975, 0 216.108 C -0 218.435, -1.345 218.474, 17.644 215.601 C 39.302 212.324, 43.542 211.878, 53.298 211.851 C 68.232 211.809, 71.212 214.836, 80.024 239 C 82.331 245.325, 85.854 253.650, 87.854 257.500 C 91.987 265.458, 103.579 278.238, 110.963 282.976 C 116.717 286.668, 144.956 297.314, 153.823 299.133 C 159.684 300.336, 160.595 300.269, 166.323 298.215 C 176.385 294.607, 186.065 295.644, 185.978 300.321 C 185.923 303.259, 181.528 310.664, 173.807 320.828 C 163.780 334.026, 160.769 339.738, 160.196 346.649 C 159.802 351.395, 160.372 353.141, 166.981 367.458 C 174.783 384.361, 175.179 386.934, 170.263 388.789 C 161.817 391.975, 151.922 390.765, 139.054 384.971 C 134.204 382.787, 129.353 381, 128.273 381 C 125.460 381, 123.194 383.935, 122.459 388.529 C 121.951 391.706, 122.253 393.052, 123.957 395.218 C 126.129 397.980, 131.289 399.984, 136.250 399.994 C 137.762 399.997, 139 400.389, 139 400.863 C 139 402.455, 127.142 407.070, 119.281 408.537 C 102.619 411.648, 68.653 431.886, 54.576 447.091 C 47.179 455.081, 46.292 457.028, 44.511 469.177 C 42.265 484.496, 40.962 487.340, 35.022 489.895 C 29.306 492.354, 26.650 492.448, 18.500 490.480 C 15.200 489.683, 9.688 489.024, 6.250 489.016 C 0.661 489.002, 0 489.212, 0 491 C 0 492.745, 0.671 493.002, 5.250 493.012 C 8.138 493.018, 12.975 493.688, 16 494.500 C 22.932 496.361, 32.098 496.415, 36.282 494.619 C 39.945 493.047, 45.493 487.479, 46.364 484.500 C 46.685 483.400, 47.646 477.815, 48.499 472.089 C 50.311 459.931, 53.078 454.021, 60.289 446.911 C 66.158 441.126, 77.741 433.342, 94.148 424.158 C 109.598 415.510, 111.870 414.563, 122.181 412.476 C 130.780 410.735, 138.861 407.470, 143.393 403.905 C 148.257 400.079, 146.349 397.541, 137.387 395.915 C 129.620 394.506, 127 392.755, 127 388.977 C 127 385.207, 128.092 385.212, 136.225 389.018 C 151.119 395.988, 169.263 396.859, 175.597 390.909 C 179.887 386.878, 179 381.886, 170.866 364.279 C 163.845 349.083, 163.752 348.771, 164.961 344.669 C 166.752 338.589, 171.048 331.471, 179.642 320.343 C 188.229 309.223, 190 305.762, 190 300.105 C 190 297.018, 189.419 295.688, 187.365 294.073 C 183.805 291.272, 172.249 291.192, 164.504 293.914 C 161.509 294.967, 158.033 295.600, 156.779 295.320 C 145.401 292.786, 117.829 281.982, 110.265 277.093 C 99.692 270.259, 93.040 259.784, 83.679 235.226 C 75.684 214.250, 71.951 209.706, 61.279 207.958 C 54.959 206.923, 54.475 206.925, 41.821 208.051 M 495.467 228.017 C 484.601 233.740, 477.219 238.974, 471.736 244.845 C 466.286 250.678, 465.005 253.425, 464.987 259.315 C 464.980 261.617, 464.043 267.775, 462.906 273 C 461.768 278.225, 460.029 287.056, 459.041 292.625 C 455.505 312.549, 453.437 316.814, 438.046 335.933 C 425.222 351.861, 421.522 355.555, 411.904 362.023 C 401.751 368.852, 396.424 373.649, 391.031 380.821 C 384.227 389.870, 380.624 398.993, 374.974 421.475 C 370.074 440.974, 366.659 450.770, 360.489 463.022 C 351.492 480.887, 344.768 489.224, 323.651 508.697 C 295.902 534.285, 265.235 564.897, 258.732 573.500 C 249.525 585.680, 246.659 592.549, 246.174 603.601 C 245.708 614.223, 247.291 618.996, 253.596 625.974 C 260.448 633.558, 277.810 645.340, 294.623 653.815 C 307.028 660.067, 333.189 665.122, 353.515 665.193 C 374.788 665.269, 379.762 663.717, 421.500 643.992 C 451.010 630.045, 460.135 626.420, 468.193 625.437 C 476.253 624.454, 482.760 622.380, 490.745 618.248 C 509.472 608.560, 532.256 588.490, 537.858 576.747 C 540.735 570.716, 540.856 569.878, 541.371 552.500 C 542.009 531.007, 544.028 517.706, 547.901 509.500 C 549.458 506.200, 554.082 498.514, 558.177 492.421 C 567.585 478.418, 574.060 465.903, 578.104 453.904 C 580.701 446.199, 581.361 442.423, 581.761 433 C 582.675 411.455, 578.846 402.758, 557.743 378.458 C 552.108 371.970, 550.589 369.416, 548.599 363.089 C 545.129 352.050, 543.685 339.111, 544.943 330.328 C 546.298 320.870, 547.919 316.292, 556.031 299 C 569.095 271.155, 570.898 260.509, 563.901 252.540 C 562.250 250.660, 559.235 248.583, 557.200 247.924 C 550.474 245.745, 542.618 241.293, 533.550 234.521 C 520.996 225.145, 518.443 224, 510.087 224 C 503.857 224, 502.264 224.438, 495.467 228.017 M 497.352 232.433 C 482.983 239.628, 474.686 245.982, 471.618 252.140 C 469.959 255.468, 468.995 259.061, 468.987 261.946 C 468.980 264.451, 468.047 270.775, 466.915 276 C 465.782 281.225, 464.011 289.957, 462.979 295.404 C 459.212 315.279, 458.217 317.404, 444.842 334.156 C 430.154 352.555, 423.033 359.697, 411.394 367.701 C 400.899 374.919, 397.370 378.431, 392.562 386.446 C 387.366 395.106, 383.579 405.661, 379.038 424.144 C 374.211 443.791, 369.626 456.427, 362.941 468.500 C 353.351 485.818, 350.183 489.257, 301.867 534.792 C 269.724 565.085, 261.703 574.259, 254.761 588.673 C 243.121 612.840, 252.240 626.722, 293.384 647.474 C 303.747 652.701, 308.809 654.603, 317.500 656.534 C 334.139 660.230, 344.030 661.272, 357.898 660.786 C 373.715 660.232, 381.009 657.903, 409.418 644.334 C 448.018 625.897, 454.570 623.374, 472.161 620.173 C 491.298 616.691, 525.326 591.910, 533.503 575.500 C 536.397 569.692, 536.514 568.908, 537.151 550.995 C 537.760 533.874, 539.460 519.811, 542.005 510.841 C 542.576 508.829, 547.129 500.954, 552.122 493.341 C 580.985 449.336, 585.039 422.719, 566.894 396.346 C 565.086 393.718, 560.084 387.572, 555.780 382.690 C 546.531 372.198, 545.812 370.926, 542.909 359.929 C 541.184 353.392, 540.669 348.582, 540.616 338.500 C 540.533 322.604, 541.912 317.543, 552.468 295.004 C 561.015 276.752, 563.209 270.478, 563.306 264.002 C 563.405 257.485, 561.281 254.623, 554.450 252.067 C 546.350 249.037, 544.643 248.035, 533 239.478 C 515.055 226.289, 511.157 225.519, 497.352 232.433 M 8.489 231.811 C 0.992 234.026, 0 234.639, 0 237.059 C 0 239.536, 1.239 239.499, 8 236.819 C 12.141 235.177, 15.724 234.622, 22.500 234.569 C 30.260 234.510, 32.288 234.869, 37.219 237.180 C 48.819 242.617, 54.318 247.992, 65.703 265.020 C 72.301 274.890, 83.637 286.988, 86.307 287.010 C 89.049 287.032, 99.359 292.665, 112.186 301.149 L 125.873 310.201 136.186 309.522 C 144.404 308.980, 146.890 309.135, 148.418 310.281 C 150.303 311.694, 150.299 311.779, 148.223 315.110 C 147.061 316.974, 143.127 321.425, 139.480 325 C 135.834 328.575, 132.209 332.715, 131.425 334.200 C 129.593 337.673, 129.623 346, 131.494 353 C 133.111 359.054, 132.800 361.398, 130.212 362.631 C 129.270 363.079, 114.654 363.600, 97.730 363.788 L 66.961 364.131 65.392 366.525 C 64.339 368.132, 64.043 369.921, 64.493 371.969 C 65.261 375.465, 71.936 384.654, 77.921 390.453 C 80.164 392.627, 82 394.957, 82 395.630 C 82 396.303, 79.637 398.176, 76.750 399.792 C 73.862 401.408, 59.444 409.392, 44.708 417.533 C 20.864 430.706, 17.275 433.020, 12.086 438.567 C 5.977 445.098, 3.037 451.332, 2.956 457.928 C 2.932 459.893, 2.264 463.300, 1.471 465.500 C -0.175 470.069, -0.430 474, 0.918 474 C 2.995 474, 6.234 466.625, 7.066 460.003 C 8.017 452.430, 11.238 445.082, 15.670 440.380 C 18.675 437.191, 23.369 434.443, 59 415.016 C 81.933 402.513, 87 399.036, 87 395.803 C 87 394.800, 83.840 390.572, 79.978 386.407 C 72.654 378.508, 68.480 371.798, 69.399 369.403 C 69.843 368.245, 74.874 367.999, 98.219 367.994 C 128.447 367.988, 133.016 367.431, 135.638 363.429 C 137.348 360.820, 137.235 358.492, 134.878 347.845 C 132.937 339.073, 134.384 335.766, 145.042 324.618 C 155.222 313.970, 156.280 310.959, 151.250 306.957 C 148.713 304.939, 147.705 304.808, 138.261 305.276 C 126.623 305.853, 128.528 306.627, 107.500 292.784 C 102 289.163, 94.690 285.063, 91.256 283.673 C 81.825 279.855, 79.731 277.914, 71.325 265.206 C 61.654 250.584, 49.029 237.598, 40.492 233.492 C 35.327 231.008, 33.119 230.570, 24.500 230.322 C 17.153 230.111, 12.905 230.506, 8.489 231.811 M 0 287.800 C 0 289.199, 1.360 289.881, 6.103 290.860 C 11.911 292.060, 12.785 292.663, 24.144 303.311 C 30.710 309.465, 38.510 316.300, 41.478 318.500 C 54.907 328.456, 50.187 331.840, 19.227 334.453 C 9.726 335.255, 1.514 336.182, 0.977 336.514 C 0.440 336.846, -0 338.040, -0 339.167 C -0 340.889, 0.427 341.110, 2.671 340.546 C 4.140 340.178, 12.578 339.258, 21.421 338.502 C 30.264 337.746, 39.876 336.608, 42.779 335.974 C 49.077 334.599, 54 330.832, 54 327.389 C 54 324.503, 47.410 316.993, 42.129 313.861 C 40.133 312.678, 33.100 306.395, 26.500 299.900 C 16.238 289.800, 13.848 287.942, 10 287.070 C 2.990 285.480, 0 285.698, 0 287.800 M 481 357.979 C 473.538 359.397, 468.079 361.767, 461.630 366.389 C 445.075 378.253, 425.198 404.847, 419.336 422.976 C 415.658 434.353, 408.612 448.149, 404.227 452.564 C 402.077 454.729, 393.027 464.809, 384.117 474.964 C 367.390 494.028, 365.380 497.500, 371.070 497.500 C 373.150 497.500, 376.663 494.062, 389.462 479.500 C 398.164 469.600, 407.647 458.996, 410.536 455.935 C 416.387 449.736, 421.684 440, 425.580 428.283 C 430.651 413.033, 442.490 394.298, 455.337 381.194 C 467.057 369.239, 482.500 362.828, 494.250 365.040 C 503.632 366.806, 509.275 370.417, 521.260 382.328 C 534.768 395.752, 540.287 403.831, 542.556 413.504 C 545.053 424.150, 544.129 430.442, 538.537 440.866 C 528.739 459.133, 523.917 470.169, 517.581 488.833 C 512.720 503.155, 509.162 511.579, 503.859 521.333 C 495.002 537.621, 487.199 550.303, 481.946 556.949 C 473.973 567.036, 455.938 578.802, 441.128 583.579 C 431.815 586.583, 426.986 589.553, 414.854 599.739 C 400.874 611.476, 384.545 620.970, 369.500 626.109 C 363.476 628.167, 360.618 628.500, 349 628.500 C 328.781 628.500, 325.237 627.442, 309.015 616.564 C 293.899 606.427, 291.029 602.983, 291.038 595 C 291.048 587.027, 293.814 583.107, 314.962 561.089 C 325.983 549.614, 335 539.590, 335 538.813 C 335 537.110, 333.038 535, 331.454 535 C 330.824 535, 320.729 545.013, 309.021 557.250 C 285.380 581.961, 283.832 584.270, 283.766 594.920 C 283.692 606.739, 286.967 610.851, 307.197 624.334 C 319.470 632.513, 320.212 632.853, 329.436 634.514 C 342.592 636.883, 362.616 636.201, 372.500 633.049 C 386.990 628.427, 402.682 619.234, 418 606.393 C 429.622 596.650, 435.011 593.423, 444.478 590.535 C 458.079 586.387, 477.394 573.416, 487.251 561.813 C 498.861 548.146, 516.201 516.935, 522.130 499.033 C 529.206 477.668, 534.772 464.189, 541.923 451.098 C 549.816 436.651, 550.987 433.114, 550.994 423.697 C 551.009 405.624, 546.288 397.252, 523.771 375.427 C 511.092 363.137, 508.571 361.143, 503.876 359.697 C 497.156 357.628, 486.900 356.857, 481 357.979 M 698.076 400.858 C 697.529 401.880, 693.126 405.999, 688.291 410.012 C 675.708 420.455, 669.103 426.985, 667.061 431 C 665.227 434.605, 663.449 457.763, 663.669 475.185 C 663.785 484.426, 666.631 494.488, 671.112 501.500 C 679.519 514.657, 681.168 519.963, 683.662 541.876 C 684.416 548.502, 687.601 551.185, 694.257 550.802 L 699.500 550.500 699.816 546.651 L 700.133 542.802 696.169 543.471 C 693.660 543.895, 691.955 543.736, 691.522 543.036 C 691.147 542.428, 690.419 537.467, 689.906 532.010 C 688.749 519.712, 686.368 511.891, 681.143 503.216 C 671.767 487.653, 669.648 479.625, 671.056 465 C 671.506 460.325, 671.912 452.450, 671.959 447.500 C 672.090 433.658, 673.376 431.680, 692.769 415.500 L 699.961 409.500 699.981 404.250 C 700.001 398.604, 699.633 397.948, 698.076 400.858 M 456.505 435.737 C 453.186 436.576, 446.464 441.666, 442.045 446.686 C 439.751 449.293, 430.395 461.945, 421.253 474.802 C 411.894 487.967, 402.719 499.779, 400.252 501.840 C 384.404 515.080, 373.291 526.200, 347.169 554.958 C 334.033 569.418, 329.997 575.976, 329.213 584.132 C 328.788 588.561, 329.045 589.438, 331.532 592.034 C 335.492 596.167, 340.162 597.468, 350.500 597.319 C 363.763 597.128, 372.827 593.936, 386.284 584.716 C 404.875 571.980, 423.009 556.989, 438.564 541.500 C 451.442 528.676, 455.063 524.333, 463.526 511.564 C 468.970 503.350, 475.631 492.325, 478.328 487.064 L 483.233 477.500 482.717 467.500 C 482.048 454.519, 479.981 448.023, 474.683 442.257 C 468.817 435.873, 463.504 433.967, 456.505 435.737 M 457.664 440.505 C 450.129 443.095, 446.793 446.662, 430.445 469.609 C 410.435 497.697, 405.181 504.046, 396.797 510.263 C 389.257 515.855, 376.625 528.575, 354.370 552.988 C 341.035 567.616, 337.136 573.145, 334.415 581.285 C 332.966 585.622, 332.962 586.293, 334.373 588.446 C 336.738 592.056, 342.021 593.325, 352.404 592.775 C 366.782 592.015, 375.196 587.984, 397.907 570.978 C 414.446 558.593, 427.322 547.631, 438.271 536.614 C 448.575 526.247, 466.447 500.332, 474.150 484.589 C 479.618 473.414, 479.999 470.371, 477.393 458.697 C 474.175 444.283, 466.707 437.396, 457.664 440.505 M 190 510.839 C 168.947 522.490, 164.408 525.555, 156.499 533.464 C 150.178 539.785, 139.030 557.644, 135.053 567.821 C 129.292 582.560, 127.365 604.098, 130.481 618.910 C 133.532 633.414, 141.056 651.300, 149.081 663.123 C 163.231 683.970, 191.506 703.070, 220.775 711.552 C 226.052 713.081, 233.718 716.552, 241.344 720.867 C 268.421 736.185, 292.470 746.721, 306.500 749.413 C 323.557 752.685, 359.644 753.928, 380.500 751.961 C 396.297 750.472, 405.349 748.437, 453.771 735.494 C 502.018 722.598, 512.044 720.265, 523.154 719.349 C 529.890 718.794, 531.224 718.975, 534.272 720.859 C 536.177 722.037, 538.455 723, 539.333 723 C 542.092 723, 543.278 726.805, 542.570 733.395 C 542.210 736.753, 540.066 748.500, 537.806 759.500 C 532.776 783.981, 532.344 793.900, 535.844 804.500 C 537.288 808.872, 538.357 815.067, 538.693 821 L 539.230 830.500 535.865 835.487 C 530.666 843.192, 526.260 845.117, 511.631 846.076 C 504.339 846.555, 497.941 847.528, 495.593 848.515 C 487.249 852.024, 473.044 868.503, 459.629 890.239 C 455.983 896.146, 453 901.603, 453 902.367 C 453 904.290, 455.564 906.233, 457.572 905.833 C 458.490 905.650, 462.309 900.443, 466.060 894.263 C 479.396 872.291, 489.098 860.504, 497.248 856.374 C 501.296 854.323, 504.361 853.734, 514.353 853.086 C 522.420 852.562, 527.614 851.734, 529.750 850.629 C 534.570 848.137, 540.002 843.049, 543.175 838.054 C 545.711 834.064, 545.999 832.732, 545.992 825.054 C 545.984 815.157, 544.647 805.878, 542.267 799.194 C 539.771 792.186, 540.376 783.820, 544.991 761.500 C 547.266 750.500, 549.384 737.423, 549.699 732.439 L 550.271 723.379 547.032 719.689 C 545.250 717.660, 543.052 715.997, 542.146 715.993 C 541.241 715.990, 539.150 715.093, 537.500 714 C 535.127 712.428, 532.828 712.017, 526.500 712.030 C 515.326 712.053, 500.087 715.288, 458.500 726.462 C 438.700 731.782, 418.450 737.201, 413.500 738.503 C 386.558 745.590, 365.511 747.254, 331.770 744.964 C 314.077 743.763, 304.670 741.992, 293.500 737.759 C 282.125 733.448, 261.666 723.566, 246.502 715.057 C 237.987 710.280, 229.424 706.415, 221.676 703.853 C 201.315 697.118, 180.219 685.451, 167.672 673.983 C 157.119 664.339, 146.607 645.866, 139.944 625.258 C 135.617 611.876, 134.935 598.457, 137.896 585 C 140.181 574.620, 148.385 556.752, 156.263 545 C 162.356 535.912, 168.852 531.104, 191.865 518.655 C 202.891 512.690, 212.469 507.140, 213.148 506.321 C 214.828 504.298, 213.043 501.554, 209.899 501.327 C 208.492 501.226, 200.266 505.158, 190 510.839 M 682.500 639.043 C 665.502 645.544, 641.860 657.236, 630.201 664.908 C 619.667 671.840, 604.511 685.933, 600.139 692.860 C 598.529 695.412, 596.005 701.775, 594.531 707 C 593.056 712.225, 588.947 725.884, 585.399 737.353 C 581.851 748.823, 578.684 760.748, 578.361 763.853 C 577.739 769.844, 579.899 786.113, 582.695 796.500 C 585.354 806.374, 589.360 814.167, 594.866 820.177 C 601.182 827.070, 605.366 829.171, 619 832.295 C 631.907 835.251, 640.270 839.066, 663.909 852.778 C 683.035 863.872, 686.476 866.853, 689.004 874.511 C 689.937 877.339, 689.790 878.492, 688.063 881.877 C 684.518 888.826, 671.609 893.694, 650.468 896.056 C 642.493 896.947, 634.557 896.823, 610.780 895.435 C 562.343 892.608, 548.118 895.144, 527.772 910.229 C 523.282 913.558, 513.283 920.420, 505.554 925.477 C 497.593 930.685, 489.388 936.948, 486.629 939.922 L 481.758 945.173 482.190 953.402 C 482.573 960.689, 483.149 962.711, 487.224 971.065 C 489.755 976.254, 494.677 984.884, 498.163 990.242 C 503.070 997.787, 505.008 999.986, 506.750 999.992 C 507.988 999.997, 509 999.734, 509 999.409 C 509 999.084, 506.006 994.048, 502.346 988.218 C 493.717 974.471, 487.065 960.348, 486.342 954.236 C 485.891 950.428, 486.235 948.459, 487.937 945.124 C 489.764 941.542, 492.414 939.365, 504.706 931.349 C 512.735 926.113, 523.258 918.926, 528.091 915.379 C 549.513 899.656, 563.590 896.908, 609 899.586 C 645.764 901.754, 662.310 900.628, 677.496 894.924 C 685.228 892.020, 692.831 884.970, 693.629 879.964 C 695.366 869.061, 688.830 861.749, 665 847.934 C 655.375 842.354, 645.475 836.767, 643 835.519 C 637.950 832.973, 624.328 828.620, 616 826.892 C 597.402 823.034, 588.580 809.664, 583.474 777.601 C 581.581 765.709, 581.618 765.490, 590.459 736.500 C 593.982 724.950, 598.017 711.617, 599.427 706.871 C 603.405 693.480, 611.206 683.239, 624.082 674.503 C 626.512 672.854, 628.725 671.226, 629 670.885 C 629.275 670.543, 634.243 667.537, 640.039 664.206 C 652.755 656.897, 672.709 647.663, 687 642.473 C 698.019 638.472, 700.680 636.909, 699.559 635.096 C 698.447 633.296, 696.120 633.834, 682.500 639.043 M 673 660.168 C 649.331 672.389, 643.826 676.045, 632.093 687.335 C 621.127 697.887, 617.814 703.237, 612.691 718.667 C 610.165 726.275, 606.276 739.597, 604.049 748.271 C 600.537 761.949, 600.002 765.466, 600.015 774.771 C 600.046 797.507, 605.920 808.883, 621.756 816.877 C 624.954 818.491, 637.005 823.055, 648.535 827.019 C 660.066 830.984, 674 836.347, 679.500 838.937 C 688.469 843.162, 689.959 844.258, 693.947 849.574 C 696.393 852.833, 698.756 855.927, 699.197 856.450 C 699.639 856.972, 700 855.601, 700 853.402 C 700 849.935, 699.289 848.657, 694.652 843.793 C 687.667 836.465, 682.383 833.921, 653.500 823.975 C 629.228 815.618, 618.682 810.925, 613.842 806.327 C 608.061 800.836, 604 787.683, 604 774.451 C 604 766.176, 609.442 742.950, 616.094 722.837 C 622.150 704.528, 624.815 699.977, 635.500 689.696 C 644.686 680.858, 650.350 677.229, 674 665.026 C 686.925 658.358, 698.116 652.292, 698.868 651.547 C 700.339 650.090, 699.639 647.989, 697.691 648.017 C 697.036 648.027, 685.925 653.495, 673 660.168 M 676.282 674.914 C 651.357 690.305, 646.286 694.203, 639.464 703.217 C 630.586 714.949, 626.583 726.658, 624.781 746.165 C 623.797 756.819, 623.873 761.425, 625.255 775.165 C 627.100 793.493, 628.957 799.801, 634.504 806.570 C 639.560 812.740, 643.928 814.985, 664.500 821.985 C 674.400 825.353, 686.438 830.012, 691.252 832.338 C 698.896 836.031, 700.071 836.351, 700.542 834.868 C 702.618 828.327, 697.625 825.271, 668.802 815.440 C 643.003 806.640, 642.376 806.268, 637.782 797 C 633.174 787.704, 631.686 778.162, 631.699 758 C 631.712 739.361, 633.484 730.684, 639.969 717.500 C 647.517 702.156, 650.257 699.631, 676.860 683.500 L 699.949 669.500 699.974 665.250 C 699.988 662.913, 699.663 661.044, 699.250 661.098 C 698.837 661.151, 688.502 667.369, 676.282 674.914 M 686.532 685.273 C 672.646 694.915, 666.253 701.461, 658.781 713.687 C 647.987 731.349, 647.688 732.457, 648.316 752.500 C 648.898 771.049, 651.129 783.125, 654.849 787.864 C 655.988 789.314, 658.233 792.750, 659.839 795.500 C 666.099 806.221, 678.918 815.570, 692 818.955 C 694.475 819.595, 697.288 820.348, 698.250 820.627 C 699.560 821.007, 699.999 820.552, 699.998 818.817 C 699.996 816.777, 698.921 816.160, 691.018 813.663 C 679.422 809.998, 670.878 804.506, 667.059 798.263 C 665.456 795.643, 663.199 792.288, 662.043 790.806 C 655.756 782.750, 651.996 766.486, 652.030 747.500 C 652.051 735.370, 653.509 731.305, 664.095 713.843 C 671.846 701.059, 675.002 698.059, 692.805 686.553 C 696.823 683.956, 699.938 681.307, 699.727 680.666 C 698.861 678.035, 695.026 679.374, 686.532 685.273 M 688.882 708 C 683.936 710.614, 676.631 718.972, 673.491 725.611 C 667.306 738.685, 664.718 757.395, 667.372 769.859 C 669.367 779.235, 672.302 784.182, 680.315 791.678 C 685.752 796.764, 687.717 797.935, 693.092 799.289 C 696.586 800.169, 699.565 800.768, 699.712 800.621 C 699.859 800.474, 700.247 798.812, 700.574 796.927 C 700.978 794.600, 700.861 793.935, 700.209 794.857 C 699.406 795.994, 698.364 795.957, 693.811 794.633 C 683.592 791.663, 677.788 785.630, 672.755 772.745 C 667.214 758.560, 673.131 730.031, 684.240 717.380 C 687.652 713.493, 693.958 710.059, 697.750 710.022 C 699.326 710.007, 700 709.401, 700 708 C 700 706.348, 699.348 706.008, 696.250 706.044 C 694.188 706.069, 690.872 706.949, 688.882 708 M 0.045 744.123 C 0 750.713, 0.022 750.766, 4.508 754.900 C 6.987 757.186, 10.245 759.523, 11.748 760.094 C 13.251 760.666, 21.010 761.565, 28.990 762.092 C 36.971 762.620, 46.319 763.451, 49.765 763.939 C 57.852 765.084, 67.196 769.519, 73.500 775.204 C 85.445 785.978, 99.356 793.204, 115.693 797.123 C 123.507 798.997, 126.416 799.172, 141.500 798.671 C 158.394 798.110, 180.024 796.106, 193.591 793.845 C 199.891 792.795, 201.338 792.877, 206.575 794.582 C 212.219 796.419, 212.730 796.877, 218.653 805.412 C 231.625 824.106, 246.402 836.915, 261.027 842.142 C 266.754 844.188, 269.345 844.458, 283.500 844.478 C 301.711 844.503, 301.568 844.537, 324.190 834.907 C 344.284 826.355, 345.258 826.037, 353.568 825.335 C 362.608 824.571, 362.815 825.113, 356.630 833.382 C 350.729 841.271, 345.661 851.798, 341.012 865.821 C 337.167 877.419, 337.135 877.653, 336.273 899.616 L 335.406 921.732 332.158 928.330 C 328.167 936.438, 324.287 939.773, 312 945.659 C 306.775 948.162, 300.975 950.942, 299.112 951.837 C 297.249 952.732, 290.724 958.834, 284.612 965.397 C 278.500 971.960, 268.575 982.431, 262.555 988.665 L 251.611 1000 256.795 1000 C 261.962 1000, 262.003 999.975, 269.327 992.250 C 273.369 987.988, 279.964 980.741, 283.984 976.147 C 293.516 965.252, 298.449 960.566, 302.335 958.717 C 304.076 957.888, 309.848 955.138, 315.163 952.605 C 326.886 947.018, 335.766 938.925, 339.792 930.163 C 342.223 924.871, 342.449 923.092, 343.236 903 C 344.038 882.539, 344.244 880.969, 347.496 870.500 C 351.613 857.252, 358.084 843.730, 364.368 835.247 C 370.075 827.543, 370.378 824.337, 365.766 820.456 C 362.619 817.808, 362.275 817.749, 353.016 818.272 C 342.393 818.872, 342.214 818.927, 318.538 828.951 C 299.764 836.899, 295.483 838.007, 283.614 837.985 C 269.688 837.960, 259.898 834.724, 246.896 825.849 C 239.752 820.973, 233.654 814.294, 226.430 803.438 C 215.181 786.531, 208.859 783.984, 186.739 787.446 C 169.722 790.109, 140.917 792.277, 130.500 791.678 C 111.630 790.595, 90.820 781.534, 75.436 767.702 C 65.570 758.831, 58.169 756.626, 33.478 755.199 C 14.956 754.129, 10.918 752.735, 6.029 745.723 C -0.301 736.644, 0.094 736.750, 0.045 744.123 M 0.510 770.823 C 0.230 771.104, -0 772.092, -0 773.020 C -0 774.352, 1.946 775.082, 9.250 776.494 C 21.785 778.915, 27.819 781.125, 36.312 786.401 C 45.592 792.167, 56.871 796.655, 80.444 803.962 C 90.925 807.210, 109.625 813.272, 122 817.432 C 142.187 824.218, 145.284 824.996, 152.124 824.998 C 160.910 825, 164.710 823.835, 177.967 817.074 C 183.210 814.400, 189.892 811.505, 192.816 810.640 C 197.651 809.211, 198.488 809.211, 202.069 810.644 C 207.130 812.669, 209.481 815.544, 218.186 830.355 C 227.473 846.153, 237.825 856.980, 245.954 859.394 C 257.096 862.703, 266.040 861.402, 299.296 851.638 C 307.983 849.087, 316.421 847, 318.046 847 C 321.983 847, 321.876 849.144, 317.750 852.909 C 303.010 866.359, 300.779 868.753, 298.341 873.735 C 295.762 879.007, 295.713 879.466, 296.310 892.685 C 296.858 904.816, 296.721 906.626, 294.999 910.002 C 291.294 917.264, 281.818 923.004, 272.267 923.771 C 264.407 924.402, 262.328 926.521, 258.584 937.715 C 254.547 949.791, 250.823 955.552, 245.235 958.368 C 238.398 961.813, 235.008 962.319, 230.737 960.534 C 221.873 956.831, 208.143 959.849, 196.500 968.059 C 188.216 973.901, 178.780 979, 176.253 979 C 175.260 979, 171.180 976.966, 167.185 974.480 C 158.521 969.088, 151.806 966.745, 126 960.108 C 105.802 954.914, 85.695 950.848, 71 948.987 C 56.521 947.153, 30.441 946.643, 17 947.930 C 1.101 949.453, -0 949.732, -0 952.244 C -0 954.055, 0.455 954.209, 4.265 953.687 C 43.190 948.352, 79.048 951.824, 130.500 965.911 C 152.457 971.923, 157.650 973.836, 166 978.988 C 176.129 985.238, 178.982 984.870, 193.152 975.482 C 209.768 964.474, 219.811 961.223, 227.401 964.394 C 231.873 966.263, 236.871 966.431, 242.500 964.903 C 248.494 963.276, 258.076 953.131, 260.873 945.451 C 265.091 933.867, 266.029 931.484, 266.936 930.059 C 267.489 929.191, 270.377 928.358, 274.205 927.962 C 277.699 927.600, 282.218 926.516, 284.247 925.553 C 289.008 923.294, 298.656 914.024, 300.072 910.349 C 300.801 908.457, 300.938 903.260, 300.481 894.880 C 299.847 883.282, 299.966 881.865, 301.942 877.380 C 305.319 869.720, 308.678 865.516, 314.919 861.138 C 324.506 854.413, 328.470 847.295, 324.476 843.980 C 321.740 841.709, 309.634 843.569, 291.500 849.047 C 264.138 857.311, 258.388 858.195, 249.386 855.522 C 238.484 852.284, 232.924 846.624, 222.385 828.032 C 214.882 814.797, 207.134 806.536, 201.298 805.550 C 195.104 804.504, 186.722 807.070, 172.954 814.226 C 160.974 820.453, 160.823 820.500, 152.692 820.463 C 145.165 820.430, 142.794 819.837, 123.500 813.171 C 111.950 809.180, 93.774 803.211, 83.109 799.906 C 59.302 792.530, 49.476 788.617, 37.086 781.580 C 31.814 778.585, 24.721 775.426, 21.325 774.560 C 12.212 772.235, 1.095 770.239, 0.510 770.823 M 3.750 793.660 C 1.626 794.025, 1 794.691, 1 796.585 C 1 798.781, 1.288 798.957, 3.750 798.269 C 5.263 797.846, 9.650 797.543, 13.500 797.594 C 22.212 797.712, 30.670 800.904, 57.699 814.274 C 68.475 819.605, 81.855 825.362, 88.199 827.399 C 107.594 833.625, 113.046 834.541, 157.366 839.017 C 172.659 840.562, 177.494 842.604, 182.500 849.631 C 190.390 860.706, 204.045 870.755, 215.168 873.673 C 221.260 875.271, 222.254 875.273, 231.083 873.711 C 249.470 870.459, 258.422 870.394, 262.645 873.483 C 264.246 874.653, 264.292 875.086, 263.061 877.387 C 260.062 882.989, 237.836 895.769, 218.500 903.008 C 202.066 909.161, 197.609 913.528, 193.603 927.401 C 187.970 946.908, 185.746 948.654, 167.757 947.702 C 159.726 947.277, 147.248 945.229, 124.215 940.555 C 72.034 929.967, 37.033 924.578, 12.250 923.315 C 0.454 922.714, -0 922.766, -0 924.694 C -0 926.532, 0.881 926.750, 10.750 927.353 C 36.073 928.902, 69.703 934.065, 119 943.972 C 157.414 951.693, 170.605 953.440, 179.593 951.999 C 184.706 951.180, 186.061 950.462, 189.676 946.662 C 193.059 943.106, 194.352 940.584, 196.479 933.386 C 201.896 915.063, 202.655 914.233, 220.207 907.453 C 235.063 901.714, 242.079 898.284, 252.133 891.846 C 260.534 886.465, 269 878.126, 269 875.230 C 269 874.209, 267.620 872.052, 265.933 870.437 L 262.865 867.500 249.683 867.620 C 241.364 867.695, 233.994 868.339, 229.709 869.365 C 221.367 871.362, 216.697 870.527, 206.634 865.238 C 199.678 861.583, 192.252 854.907, 182.725 843.744 C 178.300 838.559, 177.456 838.039, 171.225 836.652 C 167.526 835.829, 160.900 834.868, 156.500 834.518 C 129.507 832.370, 118.853 830.904, 104.788 827.402 C 89.846 823.682, 82.341 820.729, 58 808.989 C 45.625 803.020, 32.575 797.140, 29 795.922 C 22.640 793.756, 9.857 792.610, 3.750 793.660 M 1.190 833.816 C 1.481 836.333, 2.457 836.820, 17 841.694 C 42.162 850.127, 54.302 852.091, 99 854.960 C 124.571 856.601, 143.618 860.694, 157.769 867.587 C 161.767 869.534, 165.718 872.167, 166.551 873.437 C 168.305 876.115, 170.233 886.692, 169.428 889.227 C 168.461 892.275, 161.611 893.301, 146.815 892.613 C 133.437 891.992, 133.094 892.028, 131.565 894.211 C 130.639 895.533, 130 898.539, 130 901.573 C 130 910.838, 127.407 915, 121.635 915 C 120.262 915, 111.570 912.256, 102.319 908.902 C 69.393 896.964, 48.120 892.751, 20 892.600 C 4.178 892.514, 1.500 892.717, 1.500 894 C 1.500 895.213, 3.320 895.542, 11 895.719 C 44.418 896.490, 68.897 901.447, 104.297 914.613 C 119.470 920.255, 126.096 920.597, 130.532 915.966 C 133.083 913.304, 133.485 912.051, 133.820 905.716 C 134.031 901.747, 134.623 898.057, 135.136 897.515 C 135.694 896.926, 141.818 896.662, 150.344 896.858 C 161.106 897.106, 165.464 896.833, 168.059 895.748 C 173.768 893.362, 174.304 892.088, 173.487 882.850 C 172.788 874.953, 172.605 874.492, 168.384 869.979 C 157.746 858.607, 132.311 852.237, 88.500 849.973 C 57.486 848.371, 41.582 845.361, 14.952 836.053 L 0.880 831.134 1.190 833.816 M 697.850 899.483 C 697.202 900.131, 662.444 902.700, 636.839 903.991 C 612.076 905.241, 603.176 906.271, 588.040 909.642 C 557.654 916.409, 541.217 926.591, 533.415 943.478 C 527.991 955.217, 525.838 964.750, 525.732 977.500 C 525.681 983.550, 526.203 991.087, 526.891 994.250 C 527.996 999.329, 528.425 1000, 530.571 1000 C 533.448 1000, 533.380 1000.518, 531.448 993.299 C 529.232 985.019, 529.442 971.200, 531.928 961.646 C 534.849 950.419, 541.825 936.220, 546.378 932.233 C 554.539 925.086, 576.154 916.358, 595 912.598 C 607.270 910.151, 617.962 909.124, 648 907.509 C 663.675 906.667, 681.225 905.547, 687 905.022 C 692.775 904.497, 698.063 904.052, 698.750 904.034 C 699.438 904.015, 700 902.875, 700 901.500 C 700 899.203, 699.035 898.298, 697.850 899.483 M 614 922.119 C 590.390 924.011, 579.082 927.961, 573 936.439 C 571.075 939.123, 567.170 943.908, 564.321 947.073 C 552.867 959.801, 550.453 966.812, 551.264 985 C 551.895 999.162, 552.199 1000, 556.701 1000 L 560.188 1000 559.344 994.750 C 558.880 991.862, 558.513 985.225, 558.529 980 C 558.556 971.515, 558.887 969.800, 561.632 963.953 C 563.322 960.353, 567.306 954.503, 570.485 950.953 C 573.665 947.404, 577.364 942.854, 578.705 940.842 C 581.633 936.451, 587.922 933.493, 598.724 931.426 C 615.202 928.273, 652.229 927.076, 672.500 929.041 C 678 929.574, 686.438 930.299, 691.250 930.653 L 700 931.296 700 927.840 L 700 924.384 682.250 922.677 C 663.451 920.869, 632.741 920.618, 614 922.119 M 683 941.050 C 677.775 941.449, 663.695 941.827, 651.711 941.888 C 610.625 942.099, 595.266 945.478, 585.059 956.552 C 578.052 964.154, 577.560 973.369, 583.233 990.750 C 585.917 998.971, 586.517 1000, 588.626 1000 C 589.932 1000, 591 999.663, 591 999.250 C 591 998.837, 589.425 994.094, 587.500 988.709 C 578.739 964.199, 586.170 953.188, 615 947.961 C 618.025 947.412, 636.475 946.553, 656 946.052 C 695.991 945.026, 700 944.645, 700 941.872 C 700 939.782, 699.741 939.770, 683 941.050 M 441.148 958.322 C 440.345 959.289, 440.592 964.460, 442.066 977.572 C 444.755 1001.489, 444.319 1000, 448.630 1000 C 452.130 1000, 452.208 999.916, 451.670 996.750 C 451.365 994.962, 450.364 986.300, 449.444 977.500 C 447.804 961.817, 446.431 957, 443.599 957 C 442.854 957, 441.751 957.595, 441.148 958.322 M 662.053 960.528 C 636.381 965.174, 622.128 978.805, 624.702 996.250 C 625.116 999.051, 625.729 1000, 627.128 1000 C 628.767 1000, 629 999.185, 629 993.460 C 629 982.773, 633.379 976.384, 644.395 970.997 C 655.966 965.339, 664.605 963.692, 683.249 963.591 C 699.925 963.500, 699.998 963.490, 699.999 961.250 C 700 959.011, 699.925 959, 684.750 959.090 C 676.362 959.140, 666.149 959.787, 662.053 960.528 M 47.358 987.510 C 45.810 991.544, 48.059 992.466, 61.105 993.146 C 72.981 993.765, 89.767 996.735, 93.905 998.949 C 94.985 999.527, 100.961 999.984, 107.184 999.965 C 117.547 999.932, 118.290 999.807, 116 998.484 C 112.312 996.352, 95.807 991.131, 85.500 988.835 C 80.034 987.617, 70.910 986.618, 62.267 986.290 C 49.307 985.797, 47.973 985.907, 47.358 987.510"
	/>
</svg>
