<svg fill="#9ac1a0" xmlns="http://www.w3.org/2000/svg"  viewBox="0 0 64.72 73" ><path d="m38.15 26.3-5.55 4.08-5.55-4.08a.646.646 0 0 0-.91 0c-.25.25-.25.66 0 .91l5.8 4.39v4.34c0 .36.29.64.65.64.36 0 .65-.29.65-.64v-4.32l5.83-4.41c.25-.25.25-.66 0-.91a.658.658 0 0 0-.92 0z"/><path  d="M9.33 8.87a7.76 7.76 0 0 0-2.29 5.53c0 4.31 3.51 7.82 7.82 7.82 2.09 0 4.05-.81 5.52-2.29a7.76 7.76 0 0 0 2.29-5.53c0-4.31-3.51-7.82-7.82-7.82-2.08-.01-4.04.81-5.52 2.29zm11.28 5.52c0 1.53-.6 2.98-1.69 4.06a5.705 5.705 0 0 1-4.06 1.69c-3.17 0-5.75-2.58-5.75-5.75 0-1.53.6-2.98 1.69-4.06a5.705 5.705 0 0 1 4.06-1.69c3.17 0 5.75 2.58 5.75 5.75z"/><path  d="M5.99 34.18h17.74c.56 0 1.02-.44 1.03-1 .01-.28.18-6.88-3.97-10.68-.37-.34-.93-.36-1.33-.06-.05.04-4.64 3.48-8.91.01a1.03 1.03 0 0 0-1.33.02c-.17.15-4.17 3.7-4.27 10.67 0 .28.1.54.3.74.2.19.46.3.74.3zm4.03-9.57c3.73 2.48 7.74 1.3 9.94-.02 2.1 2.38 2.6 5.83 2.71 7.51H7.08c.31-3.94 2.02-6.42 2.94-7.49z"/><path d="M49.86 22.21c2.09 0 4.05-.81 5.53-2.29a7.76 7.76 0 0 0 2.29-5.53c0-4.31-3.51-7.82-7.82-7.82-2.09 0-4.05.82-5.53 2.29a7.76 7.76 0 0 0-2.29 5.53c0 4.31 3.51 7.82 7.82 7.82zM45.8 10.33a5.705 5.705 0 0 1 4.06-1.69c3.17 0 5.75 2.58 5.75 5.75 0 1.53-.6 2.98-1.69 4.06a5.705 5.705 0 0 1-4.06 1.69c-3.17 0-5.75-2.58-5.75-5.75 0-1.53.6-2.97 1.69-4.06z"/><path d="M59.76 33.18c.01-.28.18-6.88-3.97-10.68-.37-.34-.93-.36-1.33-.06-.05.04-4.64 3.48-8.91.01a1.03 1.03 0 0 0-1.33.02c-.17.15-4.17 3.7-4.27 10.67 0 .28.1.54.3.74.19.2.46.31.74.31h17.74c.56-.01 1.01-.46 1.03-1.01zm-17.69-1.07c.32-3.95 2.03-6.43 2.94-7.5 3.73 2.48 7.74 1.3 9.94-.02 2.1 2.38 2.6 5.83 2.71 7.51l-15.59.01z"/><path d="M32.6 38.82c-2.09 0-4.05.81-5.53 2.29a7.76 7.76 0 0 0-2.29 5.53c0 4.31 3.51 7.81 7.82 7.81 2.09 0 4.05-.81 5.53-2.29a7.76 7.76 0 0 0 2.29-5.53c0-4.31-3.51-7.81-7.82-7.81zm4.06 11.88a5.705 5.705 0 0 1-4.06 1.69c-3.17 0-5.75-2.58-5.75-5.75 0-1.53.6-2.98 1.69-4.06a5.705 5.705 0 0 1 4.06-1.69c3.17 0 5.75 2.58 5.75 5.75 0 1.52-.6 2.97-1.69 4.06z"/><path d="M23.73 66.42h17.74c.56 0 1.01-.44 1.03-1 .01-.28.18-6.88-3.97-10.68-.37-.34-.93-.36-1.33-.06-.05.04-4.64 3.49-8.91.01a1.03 1.03 0 0 0-1.33.02c-.17.15-4.17 3.7-4.27 10.67 0 .28.1.54.3.74.2.19.46.3.74.3zm4.03-9.56c3.73 2.48 7.74 1.3 9.94-.02 2.1 2.38 2.6 5.83 2.71 7.51H24.82c.31-3.94 2.02-6.43 2.94-7.49z"/></svg>