<svg fill="#9ac1a0" xmlns="http://www.w3.org/2000/svg" viewBox="0 0 64.72 73"><path d="M9.63 20.43c-.21.24-.41.49-.6.75C7.35 22.67 6.02 25.95 6.8 30c3.36 17.52 18.13 30.87 35.9 32.47.38.03.76.05 1.14.05 2.04 0 3.97-.5 5.5-1.45.74-.43 1.4-.96 1.96-1.58l1.53-1.69c2.98-3.29 2.72-8.39-.57-11.37l-2.58-2.33a8.035 8.035 0 0 0-5.4-2.08c-2.27 0-4.45.97-5.97 2.65l-1.53 1.69c-.6.66-1.07 1.4-1.42 2.21A28.55 28.55 0 0 1 21.2 35.61a8.046 8.046 0 0 0 2.94-2.06l1.53-1.69a7.995 7.995 0 0 0 2.07-5.8 8.002 8.002 0 0 0-2.64-5.57l-2.57-2.33a8.035 8.035 0 0 0-5.4-2.08c-2.27 0-4.45.97-5.97 2.65l-1.53 1.7zm3.06-.3a5.999 5.999 0 0 1 4.44-1.97c1.48 0 2.91.55 4.01 1.55l2.57 2.33a5.957 5.957 0 0 1 1.96 4.14c.08 1.6-.47 3.13-1.54 4.31l-1.52 1.69c-.73.81-1.67 1.4-2.71 1.71l-.46.14a1.04 1.04 0 0 0-.63 1.45l.22.43a30.593 30.593 0 0 0 16.16 14.83l.4.16c.26.1.56.09.82-.03.26-.12.45-.34.54-.61l.14-.41c.26-.78.68-1.49 1.23-2.1l1.53-1.69a5.999 5.999 0 0 1 4.44-1.97c1.48 0 2.91.55 4.01 1.55l2.57 2.33c2.44 2.21 2.63 6 .42 8.44l-1.53 1.69c-.42.46-.91.86-1.49 1.19-1.46.9-3.38 1.29-5.4 1.11-16.85-1.5-30.85-14.17-34.04-30.79-.67-3.48.59-6.04 1.61-6.91l.09-.09.07-.08c.03-.03.06-.07.08-.11.15-.21.31-.41.48-.6l1.53-1.69z"/><path d="M58.15 35.05c0-13.55-11.02-24.57-24.57-24.57-1.19 0-2.15.97-2.15 2.15 0 1.19.97 2.15 2.15 2.15 11.18 0 20.27 9.09 20.27 20.27 0 1.19.97 2.15 2.15 2.15s2.15-.97 2.15-2.15zM56 36.16c-.62 0-1.12-.5-1.12-1.12 0-11.75-9.56-21.3-21.3-21.3-.62 0-1.12-.5-1.12-1.12 0-.62.5-1.12 1.12-1.12 12.98 0 23.54 10.56 23.54 23.54-.01.62-.51 1.12-1.12 1.12z"/><path d="M33.31 18.48c-1.19 0-2.15.97-2.15 2.15 0 1.19.97 2.15 2.15 2.15 6.91 0 12.53 5.62 12.53 12.53 0 1.19.97 2.15 2.15 2.15 1.19 0 2.15-.97 2.15-2.15.01-9.28-7.54-16.83-16.83-16.83zM48 36.43c-.62 0-1.12-.5-1.12-1.12 0-7.48-6.08-13.57-13.56-13.57-.62 0-1.12-.5-1.12-1.12 0-.62.5-1.12 1.12-1.12 8.71 0 15.8 7.09 15.8 15.8-.01.63-.51 1.13-1.12 1.13z"/></svg>